SplineFontDB: 3.0
FontName: Nunito-ExtraBold
FullName: Nunito ExtraBold
FamilyName: Nunito
Weight: ExtraBold
Copyright: Digitized data Copyright (c) 2011-2013, vernon adams.
Version: 2.0
ItalicAngle: 0
UnderlinePosition: 0
UnderlineWidth: 0
Ascent: 1638
Descent: 410
UFOAscent: 2030
UFODescent: -675
LayerCount: 2
Layer: 0 0 "Back"  1
Layer: 1 0 "Fore"  0
OS2Version: 0
OS2_WeightWidthSlopeOnly: 0
OS2_UseTypoMetrics: 0
CreationTime: 1392324994
ModificationTime: 1392325093
PfmFamily: 0
TTFWeight: 800
TTFWidth: 5
LineGap: 0
VLineGap: 0
OS2TypoAscent: 1999
OS2TypoAOffset: 0
OS2TypoDescent: 572
OS2TypoDOffset: 0
OS2TypoLinegap: 0
OS2WinAscent: 1999
OS2WinAOffset: 0
OS2WinDescent: -572
OS2WinDOffset: 0
HheadAscent: 0
HheadAOffset: 1
HheadDescent: 0
HheadDOffset: 1
OS2Vendor: 'NeWT'
Lookup: 258 0 0 "kernHorizontalKerninglookup0"  {"kernHorizontalKerninglookup0 subtable"  } ['kern' ('DFLT' <'dflt' > ) ]
Lookup: 258 0 0 "kernHorizontalKerninginLatinloo"  {"kernHorizontalKerninginLatinloo subtable"  } ['kern' ('latn' <'dflt' > ) ]
DEI: 91125
LangName: 1033 "" "" "" "" "" "Version 2.0" "" "Nunito is a trademark of Vernon Adams and may be registered in certain jurisdictions." "newtypography" "Vernon Adams" "" "newtypography.co.uk" "newtypography.co.uk" "Copyright (c) 2013, vernon adams.+AAoACgAA-This Font Software is licensed under the SIL Open Font License, Version 1.1.+AAoA-This license is copied below, and is also available with a FAQ at:+AAoA-http://scripts.sil.org/OFL+AAoA" "http://scripts.sil.org/OFL" "" "" "" "Nunito-ExtraBold" 
PickledData: "(dp1
S'com.typemytype.robofont.foreground.layerStrokeColor'
p2
(F0.5
I0
F0.5
F0.69999999999999996
tp3
sS'com.typemytype.robofont.guides'
p4
((dp5
S'angle'
p6
I0
sS'name'
p7
NsS'magnetic'
p8
I5
sS'isGlobal'
p9
I1
sS'y'
I1013
sS'x'
I587
s(dp10
g6
I0
sg7
Nsg8
I5
sg9
I1
sS'y'
I903
sS'x'
I595
s(dp11
g6
I0
sg7
Nsg8
I5
sg9
I1
sS'y'
I120
sS'x'
I780
s(dp12
g6
I0
sg7
Nsg8
I5
sg9
I1
sS'y'
S'-22'
p13
sS'x'
I907
s(dp14
g6
I0
sg7
Nsg8
I5
sg9
I1

StartChar: A
Encoding: 33 65 0
Width: 1476
VWidth: 0
GlyphClass: 2
Flags: HW
PickledData: "(dp1
S'segmentType'
p2
S'line'
p3
sS'b'
(dp4
sS'anchors'
p5
(tsS'lib'
p6
(dp7
sS'unicodes'
p8
(tsS'width'
p9
I1445
sS'points'
p10
(dp11
sS'contours'
p12
(dp13
sS'components'
p14
(tsS'y'
I1232
sS'x'
I718
sS'com.typemytype.robofont.layerData'
p15
(dp16
S'b'
(dp17
S'name'
p18
S'A'
sg6
(dp19
sg8
(tsg9
I1414
sg12
((dp20
g10
((dp21
g2
S'line'
p22
sS'x'
I403
sS'smooth'
p23
I0
sS'y'
I502
s(dp24
g2
S'line'
p25
sS'x'
I703
sg23
I0
sS'y'
I1275
s(dp26
g2
S'line'
p27
sS'x'
I705
sg23
I0
sS'y'
I1275
s(dp28
g2
S'line'
p29
sS'x'
I1004
sg23
I0
sS'y'
I502
stp30
s(dp31
g10
((dp32
g2
S'curve'
p33
sS'x'
I150
sg23
I1
sS'y'
I0
s(dp34
S'y'
I0
sS'x'
I181
sg23
I0
s(dp35
S'y'
I15
sS'x'
I214
sg23
I0
s(dp36
g2
S'curve'
p37
sS'x'
I229
sg23
I1
sS'y'
I53
s(dp38
g2
S'line'
p39
sS'x'
I356
sg23
I0
sS'y'
I373
s(dp40
g2
S'line'
p41
sS'x'
I1051
sg23
I0
sS'y'
I373
s(dp42
g2
S'line'
p43
sS'x'
I1179
sg23
I1
sS'y'
I53
s(dp44
S'y'
I17
sS'x'
I1193
sg23
I0
s(dp45
S'y'
I0
sS'x'
I1228
sg23
I0
s(dp46
g2
S'curve'
p47
sS'x'
I1260
sg23
I1
sS'y'
I0
s(dp48
S'y'
I0
sS'x'
I1306
sg23
I0
s(dp49
S'y'
I31
sS'x'
I1354
sg23
I0
s(dp50
g2
S'curve'
p51
sS'x'
I1354
sg23
I1
sS'y'
I80
s(dp52
S'y'
I87
sS'x'
I1354
sg23
I0
s(dp53
S'y'
I97
sS'x'
I1352
sg23
I0
s(dp54
g2
S'curve'
p55
sS'x'
I1349
sg23
I0
sS'y'
I108
s(dp56
g2
S'line'
p57
sS'x'
I871
sg23
I1
sS'y'
I1288
s(dp58
S'y'
I1420
sS'x'
I817
sg23
I0
s(dp59
S'y'
I1430
sS'x'
I777
sg23
I0
s(dp60
g2
S'curve'
p61
sS'x'
I710
sg23
I1
sS'y'
I1430
s(dp62
S'y'
I1430
sS'x'
I644
sg23
I0
s(dp63
S'y'
I1413
sS'x'
I596
sg23
I0
s(dp64
g2
S'curve'
p65
sS'x'
I542
sg23
I1
sS'y'
I1280
s(dp66
g2
S'line'
p67
sS'x'
I66
sg23
I1
sS'y'
I108
s(dp68
S'y'
I97
sS'x'
I62
sg23
I0
s(dp69
S'y'
I87
sS'x'
I60
sg23
I0
s(dp70
g2
S'curve'
p71
sS'x'
I60
sg23
I1
sS'y'
I78
s(dp72
S'y'
I32
sS'x'
I60
sg23
I0
s(dp73
S'y'
I0
sS'x'
I106
sg23
I0
stp74
stp75
sg14
(tsg5
(tsssg18
S'A'
s."
AnchorPoint: "top" 737 1438 basechar 0
AnchorPoint: "ogonek" 1265 19 basechar 0
LayerCount: 2
Fore
SplineSet
974.658 530 m 1
 503.342 530 l 1
 739 1177 l 1
 974.658 530 l 1
1128 109 m 1
 1155.40914508 30.6881569245 1215.32183741 -2.85464936008 1273.81925221 -2.85464936008 c 0
 1348.23901201 -2.85464936008 1420.36819535 51.4331921941 1420.36819535 136.894150549 c 0
 1420.36819535 155.817937635 1416.83154924 176.270208435 1409 198 c 2
 1000 1245 l 1
 931 1430 842 1464 739 1464 c 0
 636 1464 547 1430 479 1245 c 1
 70 198 l 2
 61.9832406746 176.065255735 58.3675794739 155.432244717 58.3675794739 136.35909824 c 0
 58.3675794739 51.2066666425 130.434696511 -2.85464936008 204.675646989 -2.85464936008 c 0
 263.15464378 -2.85464936008 322.982414139 30.6881569245 350 109 c 1
 430.86 331 l 1
 1047.14 331 l 1
 1128 109 l 1
EndSplineSet
EndChar

StartChar: AE
Encoding: 133 198 1
Width: 1984
VWidth: 0
GlyphClass: 2
Flags: HW
PickledData: "(dp1
S'com.typemytype.robofont.layerData'
p2
(dp3
S'b'
(dp4
S'name'
p5
S'AE'
p6
sS'lib'
p7
(dp8
sS'unicodes'
p9
(tsS'width'
p10
I1976
sS'contours'
p11
(tsS'components'
p12
(tsS'anchors'
p13
(tsss."
AnchorPoint: "top" 1295 1446 basechar 0
LayerCount: 2
Fore
SplineSet
1268 0 m 2
 1812 0 l 1
 1898 1 1946 34 1946 106 c 0
 1946 195 1902 235 1796 235 c 2
 1404 235 l 1
 1343 620 l 1
 1770 620 l 2
 1860 620 1899 653 1899 731 c 0
 1899 816 1835 855 1752 855 c 2
 1314 855 l 1
 1259 1211 l 1
 1797 1211 l 2
 1887 1211 1935 1244 1935 1322 c 0
 1935 1403 1870 1446 1787 1446 c 2
 984 1445 l 2
 829 1445 744 1358 625 1118 c 1
 98 230 l 1
 78 190 61 146 60 112 c 0
 60 43 117 2 183 2 c 0
 256 2 309 52 355 138 c 1
 484 339 l 1
 1079 339 l 1
 1109 163 l 1
 1125 44 1176 0 1268 0 c 2
573 530 m 1
 956 1261 l 1
 959 1261 l 1
 1057 530 l 1
 573 530 l 1
EndSplineSet
EndChar

StartChar: B
Encoding: 34 66 13
Width: 1404
VWidth: 0
GlyphClass: 2
Flags: HW
PickledData: "(dp1
S'segmentType'
p2
S'curve'
p3
sS'b'
(dp4
sS'anchors'
p5
(tsS'lib'
p6
(dp7
sS'unicodes'
p8
(tsS'width'
p9
I1395
sS'points'
p10
(dp11
sS'contours'
p12
(dp13
sS'components'
p14
(tsS'y'
I1260
sS'x'
I676
sS'com.typemytype.robofont.layerData'
p15
(dp16
S'b'
(dp17
S'name'
p18
S'B'
sg6
(dp19
sg8
(tsg9
I1292
sg12
((dp20
g10
((dp21
g2
S'curve'
p22
sS'x'
I266
sS'smooth'
p23
I1
sS'y'
I0
s(dp24
g2
S'line'
p25
sS'x'
I1035
sg23
I1
sS'y'
I0
s(dp26
S'y'
I0
sS'x'
I1084
sg23
I0
s(dp27
S'y'
I36
sS'x'
I1108
sg23
I0
s(dp28
g2
S'curve'
p29
sS'x'
I1108
sg23
I1
sS'y'
I73
s(dp30
S'y'
I109
sS'x'
I1108
sg23
I0
s(dp31
S'y'
I145
sS'x'
I1084
sg23
I0
s(dp32
g2
S'curve'
p33
sS'x'
I1035
sg23
I1
sS'y'
I145
s(dp34
g2
S'line'
p35
sS'x'
I353
sg23
I0
sS'y'
I145
s(dp36
g2
S'line'
p37
sS'x'
I353
sg23
I0
sS'y'
I662
s(dp38
g2
S'line'
p39
sS'x'
I975
sg23
I1
sS'y'
I662
s(dp40
S'y'
I662
sS'x'
I1024
sg23
I0
s(dp41
S'y'
I698
sS'x'
I1049
sg23
I0
s(dp42
g2
S'curve'
p43
sS'x'
I1049
sg23
I1
sS'y'
I734
s(dp44
S'y'
I770
sS'x'
I1049
sg23
I0
s(dp45
S'y'
I806
sS'x'
I1026
sg23
I0
s(dp46
g2
S'curve'
p47
sS'x'
I975
sg23
I1
sS'y'
I806
s(dp48
g2
S'line'
p49
sS'x'
I353
sg23
I0
sS'y'
I806
s(dp50
g2
S'line'
p51
sS'x'
I353
sg23
I0
sS'y'
I1281
s(dp52
g2
S'line'
p53
sS'x'
I1007
sg23
I1
sS'y'
I1281
s(dp54
S'y'
I1281
sS'x'
I1056
sg23
I0
s(dp55
S'y'
I1317
sS'x'
I1080
sg23
I0
s(dp56
g2
S'curve'
p57
sS'x'
I1080
sg23
I1
sS'y'
I1354
s(dp58
S'y'
I1390
sS'x'
I1080
sg23
I0
s(dp59
S'y'
I1426
sS'x'
I1056
sg23
I0
s(dp60
g2
S'curve'
p61
sS'x'
I1007
sg23
I1
sS'y'
I1426
s(dp62
g2
S'line'
p63
sS'x'
I261
sg23
I1
sS'y'
I1426
s(dp64
S'y'
I1426
sS'x'
I213
sg23
I0
s(dp65
S'y'
I1383
sS'x'
I178
sg23
I0
s(dp66
g2
S'curve'
p67
sS'x'
I178
sg23
I1
sS'y'
I1340
s(dp68
g2
S'line'
p69
sS'x'
I178
sg23
I1
sS'y'
I86
s(dp70
S'y'
I41
sS'x'
I178
sg23
I0
s(dp71
S'y'
I0
sS'x'
I222
sg23
I0
stp72
stp73
sg14
(tsg5
(tsssg18
S'B'
s."
AnchorPoint: "top" 687 1438 basechar 0
LayerCount: 2
Fore
SplineSet
344 0 m 2
 798 0 l 2
 1145 0 1313 196 1313 395 c 0
 1313 594 1186 722 986 751 c 1
 986 755 l 1
 1160 787 1255 920 1255 1086 c 0
 1255 1382 1003 1446 700 1446 c 2
 344 1446 l 2
 245 1446 161 1393 161 1290 c 2
 161 205 l 2
 161 44 231 0 344 0 c 2
472 217 m 1
 472 643 l 1
 642 643 l 2
 861 643 992 610 992 431 c 0
 992 249 884 217 683 217 c 2
 472 217 l 1
472 834 m 1
 472 1230 l 1
 680 1230 l 2
 836 1230 951 1205 951 1044 c 0
 951 881 848 834 656 834 c 2
 472 834 l 1
EndSplineSet
EndChar

StartChar: C
Encoding: 35 67 14
Width: 1379
VWidth: 0
GlyphClass: 2
Flags: HW
PickledData: "(dp1
S'b'
(dp2
sS'anchors'
p3
(tsS'lib'
p4
(dp5
sS'unicodes'
p6
(tsS'width'
p7
I1354
sS'contours'
p8
(tsS'components'
p9
(tsS'com.typemytype.robofont.layerData'
p10
(dp11
S'b'
(dp12
S'name'
p13
S'C'
sg4
(dp14
sg6
(tsg7
F1353.8900000000001
sg8
(tsg9
(tsg3
(tsssg13
S'C'
s."
AnchorPoint: "top" 805 1438 basechar 0
AnchorPoint: "bot" 789 0 basechar 0
LayerCount: 2
Fore
SplineSet
805 -30 m 0
 1005 -30 1136 20 1241 93 c 0
 1285.82698325 125.301796754 1303.71053603 165.969094097 1303.71053603 203.972475711 c 0
 1303.71053603 265.931757827 1256.17459784 320.810135215 1200.36493113 320.810135215 c 0
 1186.55169822 320.810135215 1172.23162274 317.448325919 1158 310 c 0
 1068 262 954 222 843 222 c 0
 579 222 440 403 440 725 c 0
 440 1102 607 1232 845 1232 c 0
 970 1232 1062 1186 1124 1161 c 0
 1140.77539894 1154.07103087 1157.04837841 1150.93976183 1172.42554651 1150.93976183 c 0
 1239.72724711 1150.93976183 1289.86900129 1210.92159532 1289.86900129 1275.01197153 c 0
 1289.86900129 1316.7399613 1268.61362449 1360.20958586 1217 1390 c 0
 1129 1437 1009 1484 829 1484 c 0
 416 1484 106 1196 106 718 c 0
 106 252 410 -30 805 -30 c 0
EndSplineSet
EndChar

StartChar: D
Encoding: 36 68 20
Width: 1539
VWidth: 0
GlyphClass: 2
Flags: HW
PickledData: "(dp1
S'b'
(dp2
sS'anchors'
p3
(tsS'lib'
p4
(dp5
sS'unicodes'
p6
(tsS'width'
p7
I1535
sS'contours'
p8
(tsS'components'
p9
(tsS'com.typemytype.robofont.layerData'
p10
(dp11
S'b'
(dp12
S'name'
p13
S'D'
sg4
(dp14
sg6
(tsg7
I1499
sg8
((dp15
S'points'
p16
((dp17
S'segmentType'
p18
S'curve'
p19
sS'x'
I266
sS'smooth'
p20
I1
sS'y'
I0
s(dp21
g18
S'line'
p22
sS'x'
I1035
sg20
I1
sS'y'
I0
s(dp23
S'y'
I0
sS'x'
I1084
sg20
I0
s(dp24
S'y'
I34
sS'x'
I1108
sg20
I0
s(dp25
g18
S'curve'
p26
sS'x'
I1108
sg20
I1
sS'y'
I71
s(dp27
S'y'
I107
sS'x'
I1108
sg20
I0
s(dp28
S'y'
I141
sS'x'
I1084
sg20
I0
s(dp29
g18
S'curve'
p30
sS'x'
I1035
sg20
I1
sS'y'
I141
s(dp31
g18
S'line'
p32
sS'x'
I356
sg20
I0
sS'y'
I141
s(dp33
g18
S'line'
p34
sS'x'
I356
sg20
I0
sS'y'
I665
s(dp35
g18
S'line'
p36
sS'x'
I975
sg20
I1
sS'y'
I665
s(dp37
S'y'
I665
sS'x'
I1024
sg20
I0
s(dp38
S'y'
I698
sS'x'
I1049
sg20
I0
s(dp39
g18
S'curve'
p40
sS'x'
I1049
sg20
I1
sS'y'
I734
s(dp41
S'y'
I770
sS'x'
I1049
sg20
I0
s(dp42
S'y'
I803
sS'x'
I1026
sg20
I0
s(dp43
g18
S'curve'
p44
sS'x'
I975
sg20
I1
sS'y'
I803
s(dp45
g18
S'line'
p46
sS'x'
I356
sg20
I0
sS'y'
I803
s(dp47
g18
S'line'
p48
sS'x'
I356
sg20
I0
sS'y'
I1285
s(dp49
g18
S'line'
p50
sS'x'
I1007
sg20
I1
sS'y'
I1285
s(dp51
S'y'
I1285
sS'x'
I1056
sg20
I0
s(dp52
S'y'
I1319
sS'x'
I1080
sg20
I0
s(dp53
g18
S'curve'
p54
sS'x'
I1080
sg20
I1
sS'y'
I1356
s(dp55
S'y'
I1392
sS'x'
I1080
sg20
I0
s(dp56
S'y'
I1426
sS'x'
I1056
sg20
I0
s(dp57
g18
S'curve'
p58
sS'x'
I1007
sg20
I1
sS'y'
I1426
s(dp59
g18
S'line'
p60
sS'x'
I261
sg20
I1
sS'y'
I1426
s(dp61
S'y'
I1426
sS'x'
I213
sg20
I0
s(dp62
S'y'
I1383
sS'x'
I178
sg20
I0
s(dp63
g18
S'curve'
p64
sS'x'
I178
sg20
I1
sS'y'
I1340
s(dp65
g18
S'line'
p66
sS'x'
I178
sg20
I1
sS'y'
I86
s(dp67
S'y'
I41
sS'x'
I178
sg20
I0
s(dp68
S'y'
I0
sS'x'
I222
sg20
I0
stp69
stp70
sg9
(tsg3
(tsssg13
S'D'
s."
AnchorPoint: "top" 746 1438 basechar 0
AnchorPoint: "mid" 324 744 basechar 0
LayerCount: 2
Fore
SplineSet
320 0 m 2
 658 0 l 2
 1158 0 1435 248 1435 715 c 0
 1435 1191 1163 1446 633 1446 c 2
 357 1446 l 2
 224 1446 161 1377 161 1240 c 2
 161 205 l 2
 161 100 210 0 320 0 c 2
479 231 m 1
 479 1214 l 1
 648 1214 l 2
 963 1214 1101 1087 1101 722 c 0
 1101 370 985 231 657 231 c 2
 479 231 l 1
EndSplineSet
EndChar

StartChar: Dcroat
Encoding: 207 272 22
Width: 1532
VWidth: 0
GlyphClass: 2
Flags: HW
LayerCount: 2
Fore
SplineSet
91 635 m 2
 563 635 l 2
 637 635 683 673 683 734 c 0
 683 796 637 834 563 834 c 2
 108 834 l 2
 34 834 -12 796 -12 734 c 0
 -12 673 27 635 91 635 c 2
EndSplineSet
Refer: 20 68 N 1 0 0 1 0 0 2
EndChar

StartChar: uni0394
Encoding: 413 916 23
Width: 1354
VWidth: 0
GlyphClass: 2
Flags: HW
LayerCount: 2
Fore
SplineSet
27 0 m 1
 1327 0 l 1
 847 1370 l 1
 816.573484675 1438.7050346 743.759867652 1471.28469844 672.407724588 1471.28469844 c 0
 598.365864339 1471.28469844 525.897739371 1436.20246787 504 1370 c 1
 27 0 l 1
327 163 m 1
 669 1209 l 1
 1023 163 l 1
 327 163 l 1
EndSplineSet
EndChar

StartChar: E
Encoding: 37 69 24
Width: 1253
VWidth: 0
GlyphClass: 2
Flags: HW
PickledData: "(dp1
S'b'
(dp2
sS'anchors'
p3
(tsS'lib'
p4
(dp5
sS'unicodes'
p6
(tsS'width'
p7
I1258
sS'contours'
p8
(tsS'components'
p9
(tsS'com.typemytype.robofont.layerData'
p10
(dp11
S'b'
(dp12
S'name'
p13
S'E'
sg4
(dp14
sg6
(tsg7
I1234
sg8
(tsg9
(tsg3
(tsssg13
S'E'
s."
AnchorPoint: "top" 666 1438 basechar 0
AnchorPoint: "ogonek" 835 9 basechar 0
AnchorPoint: "bot" 682 0 basechar 0
LayerCount: 2
Fore
SplineSet
318 0 m 2
 1049 0 l 2
 1119 0 1165 56 1165 119 c 0
 1165 182 1119 240 1049 240 c 2
 475 240 l 1
 475 619 l 1
 984 619 l 2
 1056 619 1105 674 1105 737 c 0
 1105 800 1057 856 984 856 c 2
 475 856 l 1
 475 1206 l 1
 1026 1206 l 2
 1098 1206 1146 1263 1146 1325 c 0
 1146 1389 1098 1446 1026 1446 c 2
 343 1446 l 2
 200 1446 161 1355 161 1236 c 2
 161 193 l 2
 161 98 214 0 318 0 c 2
EndSplineSet
EndChar

StartChar: Eng
Encoding: 265 330 33
Width: 1585
VWidth: 0
GlyphClass: 2
Flags: HW
PickledData: "(dp1
S'com.typemytype.robofont.layerData'
p2
(dp3
S'b'
(dp4
S'name'
p5
S'Eng'
p6
sS'lib'
p7
(dp8
sS'unicodes'
p9
(tsS'width'
p10
I1495
sS'contours'
p11
(tsS'components'
p12
(tsS'anchors'
p13
(tsss."
LayerCount: 2
Fore
SplineSet
672 -433 m 0
 788.036467369 -461.513234503 892.884516847 -477.362655349 984.958965909 -477.362655349 c 0
 1264.24054946 -477.362655349 1426 -331.541768186 1426 49 c 2
 1426 350 l 1
 1148 353 l 1
 1148 -7 l 2
 1148 -197.547731337 1086.99044964 -280.553204406 934.114482675 -280.553204406 c 0
 874.381614251 -280.553204406 800.623674353 -267.880916364 711 -244 c 0
 699.563446387 -240.880939924 688.689886742 -239.443355164 678.46517054 -239.443355164 c 0
 620.010789395 -239.443355164 582.763031915 -286.428986746 582.763031915 -334.828847027 c 0
 582.763031915 -375.677047315 609.294285394 -417.532590397 672 -433 c 0
EndSplineSet
Refer: 69 78 N 1 0 0 1 0 0 2
EndChar

StartChar: Euro
Encoding: 461 8364 36
Width: 1455
VWidth: 0
GlyphClass: 2
Flags: HW
LayerCount: 2
Fore
SplineSet
77 498 m 2
 971 498 l 2
 1011.75900733 498 1032.02008786 529.349770381 1032.02008786 561.259298599 c 0
 1032.02008786 594.329047745 1010.25884792 628 967 628 c 2
 77 628 l 2
 36.8757799916 628 16.6244177131 595.297829052 16.6244177131 562.697214703 c 0
 16.6244177131 530.298455921 36.6257727585 498 77 498 c 2
77 797 m 2
 971 797 l 2
 1011.75900733 797 1032.02008786 828.349770381 1032.02008786 860.259298599 c 0
 1032.02008786 893.329047745 1010.25884792 927 967 927 c 2
 77 927 l 2
 36.8757799916 927 16.6244177131 894.297829052 16.6244177131 861.697214703 c 0
 16.6244177131 829.298455921 36.6257727585 797 77 797 c 2
EndSplineSet
Refer: 14 67 N 1 0 0 1 78 0 2
EndChar

StartChar: F
Encoding: 38 70 37
Width: 1170
VWidth: 0
GlyphClass: 2
Flags: HW
PickledData: "(dp1
S'b'
(dp2
sS'anchors'
p3
(tsS'lib'
p4
(dp5
sS'unicodes'
p6
(tsS'width'
p7
I1175
sS'contours'
p8
(tsS'components'
p9
(tsS'com.typemytype.robofont.layerData'
p10
(dp11
S'b'
(dp12
S'name'
p13
S'F'
sg4
(dp14
sg6
(tsg7
I1142
sg8
((dp15
S'points'
p16
((dp17
S'segmentType'
p18
S'curve'
p19
sS'x'
I266
sS'smooth'
p20
I1
sS'y'
I0
s(dp21
g18
S'line'
p22
sS'x'
I1035
sg20
I1
sS'y'
I0
s(dp23
S'y'
I0
sS'x'
I1084
sg20
I0
s(dp24
S'y'
I34
sS'x'
I1108
sg20
I0
s(dp25
g18
S'curve'
p26
sS'x'
I1108
sg20
I1
sS'y'
I71
s(dp27
S'y'
I107
sS'x'
I1108
sg20
I0
s(dp28
S'y'
I141
sS'x'
I1084
sg20
I0
s(dp29
g18
S'curve'
p30
sS'x'
I1035
sg20
I1
sS'y'
I141
s(dp31
g18
S'line'
p32
sS'x'
I353
sg20
I0
sS'y'
I141
s(dp33
g18
S'line'
p34
sS'x'
I353
sg20
I0
sS'y'
I665
s(dp35
g18
S'line'
p36
sS'x'
I975
sg20
I1
sS'y'
I665
s(dp37
S'y'
I665
sS'x'
I1024
sg20
I0
s(dp38
S'y'
I698
sS'x'
I1049
sg20
I0
s(dp39
g18
S'curve'
p40
sS'x'
I1049
sg20
I1
sS'y'
I734
s(dp41
S'y'
I770
sS'x'
I1049
sg20
I0
s(dp42
S'y'
I803
sS'x'
I1026
sg20
I0
s(dp43
g18
S'curve'
p44
sS'x'
I975
sg20
I1
sS'y'
I803
s(dp45
g18
S'line'
p46
sS'x'
I353
sg20
I0
sS'y'
I803
s(dp47
g18
S'line'
p48
sS'x'
I353
sg20
I0
sS'y'
I1285
s(dp49
g18
S'line'
p50
sS'x'
I1007
sg20
I1
sS'y'
I1285
s(dp51
S'y'
I1285
sS'x'
I1056
sg20
I0
s(dp52
S'y'
I1319
sS'x'
I1080
sg20
I0
s(dp53
g18
S'curve'
p54
sS'x'
I1080
sg20
I1
sS'y'
I1356
s(dp55
S'y'
I1392
sS'x'
I1080
sg20
I0
s(dp56
S'y'
I1426
sS'x'
I1056
sg20
I0
s(dp57
g18
S'curve'
p58
sS'x'
I1007
sg20
I1
sS'y'
I1426
s(dp59
g18
S'line'
p60
sS'x'
I261
sg20
I1
sS'y'
I1426
s(dp61
S'y'
I1426
sS'x'
I213
sg20
I0
s(dp62
S'y'
I1383
sS'x'
I178
sg20
I0
s(dp63
g18
S'curve'
p64
sS'x'
I178
sg20
I1
sS'y'
I1340
s(dp65
g18
S'line'
p66
sS'x'
I178
sg20
I1
sS'y'
I86
s(dp67
S'y'
I41
sS'x'
I178
sg20
I0
s(dp68
S'y'
I0
sS'x'
I222
sg20
I0
stp69
stp70
sg9
(tsg3
(tsssg13
S'F'
s."
LayerCount: 2
Fore
SplineSet
319 0 m 0
 405 0 481 69 481 169 c 2
 481 623 l 1
 969 623 l 2
 1038 623 1084 678 1084 741 c 0
 1084 804 1038 860 969 860 c 2
 481 860 l 1
 481 1206 l 1
 998 1206 l 2
 1068 1206 1113 1263 1113 1325 c 0
 1113 1389 1068 1446 998 1446 c 2
 345 1446 l 2
 246 1446 160 1390 160 1283 c 2
 160 169 l 2
 160 69 233 0 319 0 c 0
EndSplineSet
EndChar

StartChar: G
Encoding: 39 71 38
Width: 1511
VWidth: 0
GlyphClass: 2
Flags: HW
PickledData: "(dp1
S'b'
(dp2
sS'anchors'
p3
(tsS'lib'
p4
(dp5
sS'unicodes'
p6
(tsS'width'
p7
I1538
sS'contours'
p8
(tsS'components'
p9
(tsS'com.typemytype.robofont.layerData'
p10
(dp11
S'b'
(dp12
S'name'
p13
S'G'
sg4
(dp14
sg6
(tsg7
I1448
sg8
((dp15
S'points'
p16
((dp17
S'segmentType'
p18
S'curve'
p19
sS'x'
I783
sS'smooth'
p20
I1
sS'y'
S'-22'
p21
s(dp22
S'y'
S'-22'
p23
sS'x'
I965
sg20
I0
s(dp24
S'y'
I34
sS'x'
I1086
sg20
I0
s(dp25
g18
S'curve'
p26
sS'x'
I1166
sg20
I1
sS'y'
I86
s(dp27
S'y'
I154
sS'x'
I1270
sg20
I0
s(dp28
S'y'
I258
sS'x'
I1186
sg20
I0
s(dp29
g18
S'curve'
p30
sS'x'
I1112
sg20
I1
sS'y'
I214
s(dp31
S'y'
I162
sS'x'
I1024
sg20
I0
s(dp32
S'y'
I120
sS'x'
I939
sg20
I0
s(dp33
g18
S'curve'
p34
sS'x'
I806
sg20
I1
sS'y'
I120
s(dp35
S'y'
I120
sS'x'
I446
sg20
I0
s(dp36
S'y'
I406
sS'x'
I316
sg20
I0
s(dp37
g18
S'curve'
p38
sS'x'
I316
sg20
I1
sS'y'
I706
s(dp39
S'y'
I1005
sS'x'
I316
sg20
I0
s(dp40
S'y'
I1296
sS'x'
I450
sg20
I0
s(dp41
g18
S'curve'
p42
sS'x'
I801
sg20
I1
sS'y'
I1296
s(dp43
S'y'
I1296
sS'x'
I980
sg20
I0
s(dp44
S'y'
I1246
sS'x'
I1053
sg20
I0
s(dp45
g18
S'curve'
p46
sS'x'
I1094
sg20
I1
sS'y'
I1225
s(dp47
S'y'
I1184
sS'x'
I1174
sg20
I0
s(dp48
S'y'
I1300
sS'x'
I1231
sg20
I0
s(dp49
g18
S'curve'
p50
sS'x'
I1156
sg20
I1
sS'y'
I1343
s(dp51
S'y'
I1372
sS'x'
I1106
sg20
I0
s(dp52
S'y'
I1438
sS'x'
I995
sg20
I0
s(dp53
g18
S'curve'
p54
sS'x'
I797
sg20
I1
sS'y'
I1438
s(dp55
S'y'
I1438
sS'x'
I359
sg20
I0
s(dp56
S'y'
I1093
sS'x'
I128
sg20
I0
s(dp57
g18
S'curve'
p58
sS'x'
I128
sg20
I1
sS'y'
I704
s(dp59
S'y'
I307
sS'x'
I128
sg20
I0
s(dp60
S'y'
S'-22'
p61
sS'x'
I350
sg20
I0
stp62
stp63
sg9
(tsg3
(tsssg13
S'G'
s."
AnchorPoint: "top" 819 1438 basechar 0
AnchorPoint: "bot" 851 0 basechar 0
LayerCount: 2
Fore
SplineSet
850 -30 m 0
 977 -30 1121 -2 1230 19 c 0
 1378 48 1415 104 1415 264 c 2
 1415 631 l 2
 1415 727 1389 781 1300 781 c 0
 1231 781 986 782 917 782 c 0
 846 782 812 732 812 679 c 0
 812 613 858 574 928 574 c 2
 1107 574 l 1
 1107 248 l 1
 1026 228 944 218 865 218 c 0
 606 218 442 361 442 721 c 0
 442 1038 572 1239 872 1239 c 0
 992 1239 1119 1208 1214 1171 c 0
 1229 1162 1246 1158 1260 1158 c 0
 1324 1158 1368 1219 1368 1279 c 0
 1368 1315 1349 1357 1304 1384 c 0
 1190 1446 1021 1484 856 1484 c 0
 345 1484 106 1144 106 727 c 0
 106 221 398 -30 850 -30 c 0
EndSplineSet
EndChar

StartChar: H
Encoding: 40 72 44
Width: 1542
VWidth: 0
GlyphClass: 2
Flags: HW
PickledData: "(dp1
S'b'
(dp2
sS'anchors'
p3
(tsS'lib'
p4
(dp5
sS'unicodes'
p6
(tsS'width'
p7
I1524
sS'contours'
p8
(tsS'components'
p9
(tsS'com.typemytype.robofont.layerData'
p10
(dp11
S'b'
(dp12
S'name'
p13
S'H'
sg4
(dp14
sg6
(tsg7
I1464
sg8
(tsg9
(tsg3
(tsssg13
S'H'
s."
AnchorPoint: "top" 777 1438 basechar 0
LayerCount: 2
Fore
SplineSet
321 1 m 0
 407 1 482 70 482 169 c 2
 482 620 l 1
 1060 620 l 1
 1060 169 l 2
 1060 70 1134 1 1220 1 c 0
 1306 1 1381 70 1381 169 c 2
 1381 1278 l 2
 1381 1377 1306 1446 1221 1446 c 0
 1135 1446 1060 1377 1060 1278 c 2
 1060 876 l 1
 482 876 l 1
 482 1278 l 2
 482 1377 407 1446 321 1446 c 0
 235 1446 161 1377 161 1278 c 2
 161 169 l 2
 161 70 235 1 321 1 c 0
EndSplineSet
EndChar

StartChar: Hbar
Encoding: 229 294 45
Width: 1535
VWidth: 0
GlyphClass: 2
Flags: HW
PickledData: "(dp1
S'com.typemytype.robofont.layerData'
p2
(dp3
S'b'
(dp4
S'name'
p5
S'Hbar'
p6
sS'lib'
p7
(dp8
sS'unicodes'
p9
(tsS'width'
p10
I1464
sS'contours'
p11
(tsS'components'
p12
(tsS'anchors'
p13
(tsss."
LayerCount: 2
Fore
SplineSet
106 1009 m 2
 1430 1009 l 2
 1476 1009 1502 1040 1502 1075 c 0
 1502 1111 1478 1142 1430 1142 c 2
 106 1142 l 2
 59 1142 34 1111 34 1075 c 0
 34 1040 59 1009 106 1009 c 2
EndSplineSet
Refer: 44 72 N 1 0 0 1 0 0 2
EndChar

StartChar: I
Encoding: 41 73 47
Width: 664
VWidth: 0
GlyphClass: 2
Flags: HW
PickledData: "(dp1
S'b'
(dp2
sS'anchors'
p3
(tsS'lib'
p4
(dp5
sS'unicodes'
p6
(tsS'width'
p7
I637
sS'contours'
p8
(tsS'components'
p9
(tsS'com.typemytype.robofont.layerData'
p10
(dp11
S'b'
(dp12
S'name'
p13
S'I'
sg4
(dp14
sg6
(tsg7
I592
sg8
(tsg9
(tsg3
(tsssg13
S'I'
s."
AnchorPoint: "top" 332 1438 basechar 0
AnchorPoint: "ogonek" 337 23 basechar 0
LayerCount: 2
Fore
SplineSet
332 1 m 0
 418 1 493 70 493 169 c 2
 493 1279 l 2
 493 1379 418 1448 332 1448 c 0
 246 1448 172 1379 172 1279 c 2
 172 169 l 2
 172 70 246 1 332 1 c 0
EndSplineSet
EndChar

StartChar: J
Encoding: 42 74 58
Width: 1118
VWidth: 0
GlyphClass: 2
Flags: HW
PickledData: "(dp1
S'b'
(dp2
sS'anchors'
p3
(tsS'lib'
p4
(dp5
sS'unicodes'
p6
(tsS'width'
p7
I1126
sS'contours'
p8
(tsS'components'
p9
(tsS'com.typemytype.robofont.layerData'
p10
(dp11
S'b'
(dp12
S'name'
p13
S'J'
sg4
(dp14
sg6
(tsg7
I1003
sg8
(tsg9
(tsg3
(tsssg13
S'J'
s."
AnchorPoint: "top" 817 1438 basechar 0
LayerCount: 2
Fore
SplineSet
480 -33 m 0
 777 -33 976 124 976 462 c 2
 977 1279 l 2
 977 1378 902 1447 817 1447 c 0
 730 1447 656 1378 656 1279 c 2
 656 486 l 2
 656 302 593 242 454 242 c 0
 383 242 315 273 263 302 c 1
 239 320 214 328 192 328 c 0
 122 328 70 260 70 187 c 0
 70 136.738385214 89.9183089866 99.8112682601 131 69 c 0
 220 3 324 -33 480 -33 c 0
EndSplineSet
EndChar

StartChar: K
Encoding: 43 75 60
Width: 1383
VWidth: 0
GlyphClass: 2
Flags: HW
PickledData: "(dp1
S'b'
(dp2
sS'anchors'
p3
(tsS'lib'
p4
(dp5
sS'unicodes'
p6
(tsS'width'
p7
I1329
sS'contours'
p8
(tsS'components'
p9
(tsS'com.typemytype.robofont.layerData'
p10
(dp11
S'b'
(dp12
S'name'
p13
S'K'
sg4
(dp14
sg6
(tsg7
I1210
sg8
(tsg9
(tsg3
(tsssg13
S'K'
s."
AnchorPoint: "top" 677 1438 basechar 0
AnchorPoint: "bot" 694 0 basechar 0
LayerCount: 2
Fore
SplineSet
322 0 m 0
 407 0 483 69 483 168 c 2
 482 712 l 1
 976 127 l 1
 1023 67 1072 0 1141 0 c 0
 1217 0 1295 62 1295 143 c 0
 1295 184 1266 237 1232 280 c 1
 815 762 l 1
 1195 1181 l 1
 1228 1220 1257 1268 1257 1308 c 0
 1257 1387 1184 1446 1111 1446 c 0
 1055 1446 1016 1405 967 1345 c 1
 482 790 l 1
 483 1279 l 2
 483 1379 405 1447 322 1447 c 0
 237 1447 162 1379 162 1279 c 2
 162 168 l 2
 162 68 236 0 322 0 c 0
EndSplineSet
EndChar

StartChar: L
Encoding: 44 76 62
Width: 1161
VWidth: 0
GlyphClass: 2
Flags: HW
PickledData: "(dp1
S'b'
(dp2
sS'anchors'
p3
(tsS'lib'
p4
(dp5
sS'unicodes'
p6
(tsS'width'
p7
I1169
sS'contours'
p8
(tsS'components'
p9
(tsS'com.typemytype.robofont.layerData'
p10
(dp11
S'b'
(dp12
S'name'
p13
S'L'
sg4
(dp14
sg6
(tsg7
I1095
sg8
((dp15
S'points'
p16
((dp17
S'segmentType'
p18
S'curve'
p19
sS'x'
I266
sS'smooth'
p20
I1
sS'y'
I0
s(dp21
g18
S'line'
p22
sS'x'
I1035
sg20
I1
sS'y'
I0
s(dp23
S'y'
I0
sS'x'
I1084
sg20
I0
s(dp24
S'y'
I34
sS'x'
I1108
sg20
I0
s(dp25
g18
S'curve'
p26
sS'x'
I1108
sg20
I1
sS'y'
I71
s(dp27
S'y'
I107
sS'x'
I1108
sg20
I0
s(dp28
S'y'
I141
sS'x'
I1084
sg20
I0
s(dp29
g18
S'curve'
p30
sS'x'
I1035
sg20
I1
sS'y'
I141
s(dp31
g18
S'line'
p32
sS'x'
I356
sg20
I0
sS'y'
I141
s(dp33
g18
S'line'
p34
sS'x'
I356
sg20
I0
sS'y'
I665
s(dp35
g18
S'line'
p36
sS'x'
I975
sg20
I1
sS'y'
I665
s(dp37
S'y'
I665
sS'x'
I1024
sg20
I0
s(dp38
S'y'
I698
sS'x'
I1049
sg20
I0
s(dp39
g18
S'curve'
p40
sS'x'
I1049
sg20
I1
sS'y'
I734
s(dp41
S'y'
I770
sS'x'
I1049
sg20
I0
s(dp42
S'y'
I803
sS'x'
I1026
sg20
I0
s(dp43
g18
S'curve'
p44
sS'x'
I975
sg20
I1
sS'y'
I803
s(dp45
g18
S'line'
p46
sS'x'
I356
sg20
I0
sS'y'
I803
s(dp47
g18
S'line'
p48
sS'x'
I356
sg20
I0
sS'y'
I1285
s(dp49
g18
S'line'
p50
sS'x'
I1007
sg20
I1
sS'y'
I1285
s(dp51
S'y'
I1285
sS'x'
I1056
sg20
I0
s(dp52
S'y'
I1319
sS'x'
I1080
sg20
I0
s(dp53
g18
S'curve'
p54
sS'x'
I1080
sg20
I1
sS'y'
I1356
s(dp55
S'y'
I1392
sS'x'
I1080
sg20
I0
s(dp56
S'y'
I1426
sS'x'
I1056
sg20
I0
s(dp57
g18
S'curve'
p58
sS'x'
I1007
sg20
I1
sS'y'
I1426
s(dp59
g18
S'line'
p60
sS'x'
I261
sg20
I1
sS'y'
I1426
s(dp61
S'y'
I1426
sS'x'
I213
sg20
I0
s(dp62
S'y'
I1383
sS'x'
I178
sg20
I0
s(dp63
g18
S'curve'
p64
sS'x'
I178
sg20
I1
sS'y'
I1340
s(dp65
g18
S'line'
p66
sS'x'
I178
sg20
I1
sS'y'
I86
s(dp67
S'y'
I41
sS'x'
I178
sg20
I0
s(dp68
S'y'
I0
sS'x'
I222
sg20
I0
stp69
stp70
sg9
(tsg3
(tsssg13
S'L'
s."
AnchorPoint: "top" 513 1446 basechar 0
AnchorPoint: "caron.alt" 373 1015 basechar 0
AnchorPoint: "bot" 674 0 basechar 0
AnchorPoint: "mid" 322 743 basechar 0
LayerCount: 2
Fore
SplineSet
323 0 m 2
 1021 0 l 2
 1091 0 1138 58 1138 122 c 0
 1138 186 1091 244 1021 244 c 2
 482 244 l 1
 482 1278 l 2
 482 1377 407 1446 322 1446 c 0
 235 1446 161 1377 161 1278 c 2
 161 217 l 2
 161 106 213 0 323 0 c 2
EndSplineSet
EndChar

StartChar: Lslash
Encoding: 256 321 67
Width: 1186
VWidth: 0
GlyphClass: 2
Flags: HW
LayerCount: 2
Fore
SplineSet
71 577 m 2
 751 808 l 2
 795.068523333 822.812949019 813.217650612 855.454054054 813.217650612 888.909981515 c 0
 813.217650612 937.454989559 775.005739973 987.715557874 722.32026996 987.715557874 c 0
 713.267371518 987.715557874 703.787137622 986.231602045 694 983 c 2
 17 760 l 2
 -29.5763254438 744.602867622 -49.1857466655 708.313792962 -49.1857466655 671.665286719 c 0
 -49.1857466655 622.057056061 -13.2555416779 571.790241435 40.3566004675 571.790241435 c 0
 50.0310324626 571.790241435 60.281241672 573.427080557 71 577 c 2
EndSplineSet
Refer: 62 76 N 1 0 0 1 0 0 2
EndChar

StartChar: M
Encoding: 45 77 68
Width: 1968
VWidth: 0
GlyphClass: 2
Flags: HW
PickledData: "(dp1
S'b'
(dp2
sS'anchors'
p3
(tsS'lib'
p4
(dp5
sS'unicodes'
p6
(tsS'width'
p7
I1984
sS'contours'
p8
(tsS'components'
p9
(tsS'com.typemytype.robofont.layerData'
p10
(dp11
S'b'
(dp12
S'name'
p13
S'M'
sg4
(dp14
sg6
(tsg7
I1899
sg8
(tsg9
(tsg3
(tsssg13
S'M'
s."
AnchorPoint: "top" 1000 1438 basechar 0
LayerCount: 2
Fore
SplineSet
980 59 m 0
 1070 59 1124 115 1165 221 c 1
 1518 1089 l 1
 1517 122 l 2
 1517 40.3784373558 1586.60307615 0.122403956749 1656.52737675 0.122403956749 c 0
 1727.10008364 0.122403956749 1798 41.1284852787 1798 122 c 2
 1798 1209 l 2
 1798 1335.21138693 1684.09117253 1420.41559597 1562.24594455 1420.41559597 c 0
 1463.01320257 1420.41559597 1358.51645297 1363.90186457 1306 1227 c 1
 980 434 l 1
 654 1227 l 1
 601.034688461 1363.90186457 496.290554299 1420.41559597 396.921468446 1420.41559597 c 0
 274.90882747 1420.41559597 161 1335.21138693 161 1209 c 2
 162 122 l 2
 162 41.1284852787 232.647603492 0.122403956749 302.969161957 0.122403956749 c 0
 372.644621625 0.122403956749 442 40.3784373558 442 122 c 2
 442 1089 l 1
 795 221 l 1
 836 114 889 59 980 59 c 0
EndSplineSet
EndChar

StartChar: N
Encoding: 46 78 69
Width: 1585
VWidth: 0
GlyphClass: 2
Flags: HW
PickledData: "(dp1
S'b'
(dp2
sS'anchors'
p3
(tsS'lib'
p4
(dp5
sS'unicodes'
p6
(tsS'width'
p7
I1557
sS'contours'
p8
(tsS'components'
p9
(tsS'com.typemytype.robofont.layerData'
p10
(dp11
S'b'
(dp12
S'name'
p13
S'N'
sg4
(dp14
sg6
(tsg7
I1499
sg8
(tsg9
(tsg3
(tsssg13
S'N'
s."
AnchorPoint: "top" 841 1445 basechar 0
AnchorPoint: "bot" 820 0 basechar 0
LayerCount: 2
Fore
SplineSet
298 0 m 0
 371 0 439 57 439 139 c 2
 439 992 l 1
 1069 129 l 2
 1123 54 1196 0 1263 0 c 0
 1381 0 1426 102 1426 230 c 2
 1426 1307 l 2
 1426 1390 1360 1447 1286 1447 c 0
 1212 1447 1147 1389 1147 1307 c 2
 1147 459 l 1
 516 1322 l 1
 465 1395 391 1446 322 1447 c 0
 233 1447 159 1380 159 1261 c 2
 159 139 l 2
 159 57 224 0 298 0 c 0
EndSplineSet
EndChar

StartChar: O
Encoding: 47 79 74
Width: 1620
VWidth: 0
GlyphClass: 2
Flags: HW
PickledData: "(dp1
S'b'
(dp2
sS'anchors'
p3
(tsS'com.typemytype.robofont.layerData'
p4
(dp5
S'b'
(dp6
S'name'
p7
S'O'
sS'lib'
p8
(dp9
sS'unicodes'
p10
(tsS'width'
p11
I1597
sS'contours'
p12
(tsS'components'
p13
(tsg3
(tsssg10
(tsS'com.typemytype.robofont.guides'
p14
(tsg11
I1604
sg12
(tsg13
(tsg8
(dp15
sg7
S'O'
s."
AnchorPoint: "top" 811 1445 basechar 0
LayerCount: 2
Fore
SplineSet
810 210 m 0
 552 210 440 384 440 727 c 0
 440 1069 551 1244 810 1244 c 0
 1069 1244 1180 1069 1180 727 c 0
 1180 384 1068 210 810 210 c 0
810 -30 m 0
 1271 -30 1517 248 1517 727 c 0
 1517 1206 1271 1484 810 1484 c 0
 350 1484 103 1206 103 727 c 0
 103 248 350 -30 810 -30 c 0
EndSplineSet
EndChar

StartChar: OE
Encoding: 273 338 75
Width: 1998
VWidth: 0
GlyphClass: 2
Flags: HW
LayerCount: 2
Fore
SplineSet
729 -20 m 0
 801 -20 1039 -1 1068 0 c 1
 1761 0 l 2
 1848 0 1899 40 1899 116 c 0
 1899 205 1820 233 1732 233 c 2
 1324 233 l 1
 1324 622 l 1
 1672 622 l 2
 1776 622 1838 655 1838 737 c 0
 1838 825 1767 854 1686 854 c 2
 1324 854 l 1
 1324 1213 l 1
 1716 1213 l 2
 1821 1213 1882 1246 1882 1330 c 0
 1882 1410 1822 1446 1742 1446 c 2
 1105 1446 l 2
 1064 1446 880 1465 757 1465 c 0
 337 1465 94 1184 94 722 c 0
 94 257 345 -20 729 -20 c 0
751 197 m 0
 508 197 410 421 410 727 c 0
 410 1035 521 1248 753 1248 c 0
 911 1248 1002 1232 1016 1226 c 1
 1016 223 l 1
 1006 216 901 198 751 197 c 0
EndSplineSet
EndChar

StartChar: Omega
Encoding: 464 8486 83
Width: 1527
VWidth: 0
GlyphClass: 2
Flags: HW
LayerCount: 2
Fore
SplineSet
152 0 m 2
 667 0 l 1
 582 165 415 527 415 800 c 0
 415 1001 506 1154 777 1154 c 0
 1050 1154 1141 1002 1141 800 c 0
 1141 528 974 169 888 0 c 1
 1403 0 l 2
 1462 0 1491 50 1491 101 c 0
 1491 151 1462 201 1403 201 c 2
 1157 201 l 1
 1347 442 1478 739 1478 951 c 0
 1478 1176 1360 1460 777 1460 c 0
 208 1460 77 1175 77 951 c 0
 77 739 192 482 398 201 c 1
 152 201 l 2
 93 201 64 151 64 101 c 0
 64 50 93 0 152 0 c 2
EndSplineSet
EndChar

StartChar: Oslash
Encoding: 151 216 84
Width: 1608
VWidth: 0
GlyphClass: 2
Flags: HW
PickledData: "(dp1
S'com.typemytype.robofont.layerData'
p2
(dp3
S'b'
(dp4
S'name'
p5
S'Oslash'
p6
sS'lib'
p7
(dp8
sS'unicodes'
p9
(tsS'width'
p10
I1597
sS'contours'
p11
(tsS'components'
p12
(tsS'anchors'
p13
(tsss."
LayerCount: 2
Fore
SplineSet
1027.21452138 1181.48508419 m 1
 510.197431068 368.742265181 l 1
 462.386383683 454.08418558 440 573.652365815 440 727 c 0
 440 1069 551 1244 810 1244 c 0
 899.610687014 1244 971.504716052 1223.05124902 1027.21452138 1181.48508419 c 1
1134.92598247 1031.55382108 m 1
 1165.55435778 952.019805986 1180 850.376669888 1180 727 c 0
 1180 384 1068 210 810 210 c 0
 740.464914685 210 681.535091991 222.639148603 632.544903624 247.819559295 c 1
 1134.92598247 1031.55382108 l 1
306 -201 m 0
 344 -201 365 -171 391 -129 c 2
 490.817611664 26.7194040228 l 1
 581.946746917 -10.6211489335 688.549461089 -30 810 -30 c 0
 1271 -30 1517 248 1517 727 c 0
 1517 981.780747149 1447.40191438 1179.6947658 1312.87077886 1309.15470915 c 1
 1407 1456 l 2
 1423 1482 1435 1510 1435 1536 c 0
 1435 1583 1394 1617 1350 1617 c 0
 1321 1617 1294 1603 1275 1571 c 1
 1171.51008291 1408.31546108 l 1
 1071.67394426 1458.03937542 950.875702855 1484 810 1484 c 0
 350 1484 103 1206 103 727 c 0
 103 448.848525186 186.2891942 238.474896664 346.210001313 110.95657794 c 1
 247 -45 l 2
 232 -69 222 -97 222 -121 c 0
 222 -171 262 -201 306 -201 c 0
EndSplineSet
EndChar

StartChar: P
Encoding: 48 80 87
Width: 1345
VWidth: 0
GlyphClass: 2
Flags: HW
PickledData: "(dp1
S'b'
(dp2
sS'anchors'
p3
(tsS'lib'
p4
(dp5
sS'unicodes'
p6
(tsS'width'
p7
I1319
sS'contours'
p8
(tsS'components'
p9
(tsS'com.typemytype.robofont.layerData'
p10
(dp11
S'b'
(dp12
S'name'
p13
S'P'
sg4
(dp14
sg6
(tsg7
I1201
sg8
((dp15
S'points'
p16
((dp17
S'segmentType'
p18
S'curve'
p19
sS'x'
I266
sS'smooth'
p20
I1
sS'y'
I0
s(dp21
g18
S'line'
p22
sS'x'
I1035
sg20
I1
sS'y'
I0
s(dp23
S'y'
I0
sS'x'
I1084
sg20
I0
s(dp24
S'y'
I34
sS'x'
I1108
sg20
I0
s(dp25
g18
S'curve'
p26
sS'x'
I1108
sg20
I1
sS'y'
I71
s(dp27
S'y'
I107
sS'x'
I1108
sg20
I0
s(dp28
S'y'
I141
sS'x'
I1084
sg20
I0
s(dp29
g18
S'curve'
p30
sS'x'
I1035
sg20
I1
sS'y'
I141
s(dp31
g18
S'line'
p32
sS'x'
I356
sg20
I0
sS'y'
I141
s(dp33
g18
S'line'
p34
sS'x'
I356
sg20
I0
sS'y'
I665
s(dp35
g18
S'line'
p36
sS'x'
I975
sg20
I1
sS'y'
I665
s(dp37
S'y'
I665
sS'x'
I1024
sg20
I0
s(dp38
S'y'
I698
sS'x'
I1049
sg20
I0
s(dp39
g18
S'curve'
p40
sS'x'
I1049
sg20
I1
sS'y'
I734
s(dp41
S'y'
I770
sS'x'
I1049
sg20
I0
s(dp42
S'y'
I803
sS'x'
I1026
sg20
I0
s(dp43
g18
S'curve'
p44
sS'x'
I975
sg20
I1
sS'y'
I803
s(dp45
g18
S'line'
p46
sS'x'
I356
sg20
I0
sS'y'
I803
s(dp47
g18
S'line'
p48
sS'x'
I356
sg20
I0
sS'y'
I1285
s(dp49
g18
S'line'
p50
sS'x'
I1007
sg20
I1
sS'y'
I1285
s(dp51
S'y'
I1285
sS'x'
I1056
sg20
I0
s(dp52
S'y'
I1319
sS'x'
I1080
sg20
I0
s(dp53
g18
S'curve'
p54
sS'x'
I1080
sg20
I1
sS'y'
I1356
s(dp55
S'y'
I1392
sS'x'
I1080
sg20
I0
s(dp56
S'y'
I1426
sS'x'
I1056
sg20
I0
s(dp57
g18
S'curve'
p58
sS'x'
I1007
sg20
I1
sS'y'
I1426
s(dp59
g18
S'line'
p60
sS'x'
I261
sg20
I1
sS'y'
I1426
s(dp61
S'y'
I1426
sS'x'
I213
sg20
I0
s(dp62
S'y'
I1383
sS'x'
I178
sg20
I0
s(dp63
g18
S'curve'
p64
sS'x'
I178
sg20
I1
sS'y'
I1340
s(dp65
g18
S'line'
p66
sS'x'
I178
sg20
I1
sS'y'
I86
s(dp67
S'y'
I41
sS'x'
I178
sg20
I0
s(dp68
S'y'
I0
sS'x'
I222
sg20
I0
stp69
stp70
sg9
(tsg3
(tsssg13
S'P'
s."
AnchorPoint: "top" 702 1438 basechar 0
LayerCount: 2
Fore
SplineSet
321 0 m 0
 407 0 482 68 482 168 c 2
 482 565 l 1
 753 565 l 2
 1097 565 1305 697 1305 1007 c 0
 1305 1345 1078 1447 765 1447 c 2
 351 1447 l 2
 203 1447 161 1350 161 1229 c 2
 161 168 l 2
 161 68 235 0 321 0 c 0
482 779 m 1
 482 1220 l 1
 728 1220 l 2
 894 1220 990 1188 990 1007 c 0
 990 822 894 782 717 779 c 1
 482 779 l 1
EndSplineSet
EndChar

StartChar: Q
Encoding: 49 81 88
Width: 1620
VWidth: 0
GlyphClass: 2
Flags: HW
PickledData: "(dp1
S'b'
(dp2
sS'anchors'
p3
(tsS'lib'
p4
(dp5
sS'unicodes'
p6
(tsS'width'
p7
I1604
sS'contours'
p8
(tsS'components'
p9
(tsS'com.typemytype.robofont.layerData'
p10
(dp11
S'b'
(dp12
S'name'
p13
S'Q'
sg4
(dp14
sg6
(tsg7
I1597
sg8
(tsg9
(tsg3
(tsssg13
S'Q'
s."
LayerCount: 2
Fore
SplineSet
1317.04472512 -245.867895083 m 0
 1370.88044975 -245.867895083 1425.37332366 -194.557616875 1425.37332366 -131.995411271 c 0
 1425.37332366 -93.4381029513 1401.00683047 -60.257979802 1358 -35 c 2
 1054 148 l 1
 740 54 l 1
 1248 -226 l 2
 1271.93878188 -239.420226208 1295.35133303 -245.867895083 1317.04472512 -245.867895083 c 0
EndSplineSet
Refer: 74 79 N 1 0 0 1 0 0 2
EndChar

StartChar: R
Encoding: 50 82 89
Width: 1429
VWidth: 0
GlyphClass: 2
Flags: HW
PickledData: "(dp1
S'b'
(dp2
sS'anchors'
p3
(tsS'com.typemytype.robofont.layerData'
p4
(dp5
S'b'
(dp6
S'name'
p7
S'R'
sS'lib'
p8
(dp9
sS'unicodes'
p10
(tsS'width'
p11
I1363
sS'contours'
p12
((dp13
S'points'
p14
((dp15
S'segmentType'
p16
S'curve'
p17
sS'x'
I267
sS'smooth'
p18
I1
sS'y'
I0
s(dp19
S'y'
I0
sS'x'
I311
sg18
I0
s(dp20
S'y'
I27
sS'x'
I356
sg18
I0
s(dp21
g16
S'curve'
p22
sS'x'
I356
sg18
I1
sS'y'
I84
s(dp23
g16
S'line'
p24
sS'x'
I356
sg18
I0
sS'y'
I628
s(dp25
g16
S'line'
p26
sS'x'
I669
sg18
I1
sS'y'
I628
s(dp27
S'y'
I628
sS'x'
I962
sg18
I0
s(dp28
S'y'
I722
sS'x'
I1182
sg18
I0
s(dp29
g16
S'curve'
p30
sS'x'
I1182
sg18
I1
sS'y'
I1026
s(dp31
S'y'
I1324
sS'x'
I1182
sg18
I0
s(dp32
S'y'
I1426
sS'x'
I993
sg18
I0
s(dp33
g16
S'curve'
p34
sS'x'
I684
sg18
I1
sS'y'
I1426
s(dp35
g16
S'line'
p36
sS'x'
I268
sg18
I1
sS'y'
I1426
s(dp37
S'y'
I1426
sS'x'
I217
sg18
I0
s(dp38
S'y'
I1387
sS'x'
I178
sg18
I0
s(dp39
g16
S'curve'
p40
sS'x'
I178
sg18
I1
sS'y'
I1339
s(dp41
g16
S'line'
p42
sS'x'
I178
sg18
I1
sS'y'
I84
s(dp43
S'y'
I28
sS'x'
I178
sg18
I0
s(dp44
S'y'
I0
sS'x'
I222
sg18
I0
stp45
s(dp46
g14
((dp47
g16
S'line'
p48
sS'x'
I356
sg18
I0
sS'y'
I764
s(dp49
g16
S'line'
p50
sS'x'
I356
sg18
I0
sS'y'
I1285
s(dp51
g16
S'line'
p52
sS'x'
I684
sg18
I1
sS'y'
I1285
s(dp53
S'y'
I1285
sS'x'
I914
sg18
I0
s(dp54
S'y'
I1210
sS'x'
I1008
sg18
I0
s(dp55
g16
S'curve'
p56
sS'x'
I1008
sg18
I1
sS'y'
I1026
s(dp57
S'y'
I838
sS'x'
I1008
sg18
I0
s(dp58
S'y'
I764
sS'x'
I901
sg18
I0
s(dp59
g16
S'curve'
p60
sS'x'
I670
sg18
I1
sS'y'
I764
stp61
stp62
sS'components'
p63
(tsg3
(tsssg10
(tsS'com.typemytype.robofont.guides'
p64
(tsg11
I1408
sg12
(tsg63
(tsg8
(dp65
sg7
S'R'
s."
AnchorPoint: "top" 707 1438 basechar 0
AnchorPoint: "bot" 761 0 basechar 0
LayerCount: 2
Fore
SplineSet
321 1 m 0
 406 1 482 56 482 169 c 2
 482 610 l 1
 720 610 l 2
 898 610 949 542 965 379 c 1
 986 181 l 1
 997 56 1062 1 1154 1 c 0
 1249.67090709 1 1305.36922939 55.3627152993 1305.36922939 168.376983406 c 0
 1305.36922939 181.759830741 1304.5881906 195.96512903 1303 211 c 2
 1278 413 l 1
 1255 607 1186 709 986 742 c 1
 986 746 l 1
 1216 784 1310 917 1310 1081 c 0
 1310 1380 1051 1447 768 1447 c 2
 343 1447 l 2
 244 1447 161 1387 161 1284 c 2
 161 169 l 2
 161 59 235 1 321 1 c 0
479 830 m 1
 479 1228 l 1
 685 1228 l 1
 689.495019985 1228.00010101 l 2
 837.159920204 1228.00010101 992 1227.0201005 992 1032 c 0
 992 846 819 830 665 830 c 2
 479 830 l 1
EndSplineSet
EndChar

StartChar: S
Encoding: 51 83 93
Width: 1326
VWidth: 0
GlyphClass: 2
Flags: HW
PickledData: "(dp1
S'b'
(dp2
sS'anchors'
p3
(tsS'lib'
p4
(dp5
sS'unicodes'
p6
(tsS'width'
p7
I1317
sS'contours'
p8
(tsS'components'
p9
(tsS'com.typemytype.robofont.layerData'
p10
(dp11
S'b'
(dp12
S'name'
p13
S'S'
sg4
(dp14
sg6
(tsg7
I1274
sg8
(tsg9
(tsg3
(tsssg13
S'S'
s."
AnchorPoint: "top" 670 1438 basechar 0
AnchorPoint: "bot" 664 0 basechar 0
LayerCount: 2
Fore
SplineSet
663 -30 m 0
 1020 -30 1246 139 1246 414 c 0
 1246 660 1084 759 820 840 c 1
 674.010354779 890.534877192 411 911.863929976 411 1078 c 0
 411 1203 548 1244 693 1244 c 0
 833 1244 938 1208 1039 1152 c 0
 1054.2956033 1143.78569453 1069.4307433 1140.12453497 1083.8884088 1140.12453497 c 0
 1143.70930374 1140.12453497 1191.9316829 1202.80441009 1191.9316829 1264.97793452 c 0
 1191.9316829 1293.87632626 1181.51366719 1322.66532545 1157 1345 c 0
 1059 1432 852 1484 676 1484 c 0
 337 1484 105 1322 105 1060 c 0
 105 857 204 759 435 677 c 1
 766 567 l 2
 870 532 936 486 936 387 c 0
 936 263 812 210 659 210 c 0
 506 210 380 261 290 309 c 0
 274 317.533333333 258.266666667 321.32 243.231407407 321.32 c 0
 175.525493416 321.32 121.975329189 244.532868422 121.975329189 178.622000084 c 0
 121.975329189 149.394717591 132.505213869 122.306098897 157 105 c 0
 264 30 431 -30 663 -30 c 0
EndSplineSet
EndChar

StartChar: Sigma
Encoding: 414 931 99
Width: 1422
VWidth: 0
GlyphClass: 2
Flags: HW
LayerCount: 2
Fore
SplineSet
378 -225 m 2
 1163 -224 l 2
 1246.24849631 -224 1288.25112273 -152.825724521 1288.25112273 -81.8645399454 c 0
 1288.25112273 -11.3269928743 1246.74850976 59 1163 59 c 2
 458 59 l 1
 888 451 l 2
 946.888940089 505.198670524 980.791783509 559.940517062 980.791783509 617.065503231 c 0
 980.791783509 669.555725408 952.167097594 724.05806859 888 782 c 2
 458 1166 l 1
 1163 1166 l 2
 1246.74850976 1166 1288.25112273 1236.32699287 1288.25112273 1306.86453995 c 0
 1288.25112273 1377.82572452 1246.24849631 1449 1163 1449 c 2
 382 1449 l 2
 241.303008014 1449 145.587972665 1366.99749498 145.587972665 1257.24171762 c 0
 145.587972665 1193.03827947 178.340284113 1119.33806982 254 1047 c 2
 714 613 l 1
 254 168 l 2
 189.107823517 104.239663804 159.373693899 32.6506127189 159.373693899 -31.7842531332 c 0
 159.373693899 -138.137262294 240.378901179 -225 378 -225 c 2
EndSplineSet
EndChar

StartChar: T
Encoding: 52 84 100
Width: 1209
VWidth: 0
GlyphClass: 2
Flags: HW
PickledData: "(dp1
S'b'
(dp2
sS'anchors'
p3
(tsS'lib'
p4
(dp5
sS'unicodes'
p6
(tsS'width'
p7
I1199
sS'contours'
p8
(tsS'components'
p9
(tsS'com.typemytype.robofont.layerData'
p10
(dp11
S'b'
(dp12
S'name'
p13
S'T'
sg4
(dp14
sg6
(tsg7
I1158
sg8
((dp15
S'points'
p16
((dp17
S'segmentType'
p18
S'curve'
p19
sS'x'
I581
sS'smooth'
p20
I1
sS'y'
I0
s(dp21
g18
S'line'
p22
sS'x'
I1350
sg20
I1
sS'y'
I0
s(dp23
S'y'
I0
sS'x'
I1399
sg20
I0
s(dp24
S'y'
I34
sS'x'
I1423
sg20
I0
s(dp25
g18
S'curve'
p26
sS'x'
I1423
sg20
I1
sS'y'
I71
s(dp27
S'y'
I107
sS'x'
I1423
sg20
I0
s(dp28
S'y'
I141
sS'x'
I1399
sg20
I0
s(dp29
g18
S'curve'
p30
sS'x'
I1350
sg20
I1
sS'y'
I141
s(dp31
g18
S'line'
p32
sS'x'
I671
sg20
I0
sS'y'
I141
s(dp33
g18
S'line'
p34
sS'x'
I671
sg20
I0
sS'y'
I665
s(dp35
g18
S'line'
p36
sS'x'
I1290
sg20
I1
sS'y'
I665
s(dp37
S'y'
I665
sS'x'
I1339
sg20
I0
s(dp38
S'y'
I698
sS'x'
I1364
sg20
I0
s(dp39
g18
S'curve'
p40
sS'x'
I1364
sg20
I1
sS'y'
I734
s(dp41
S'y'
I770
sS'x'
I1364
sg20
I0
s(dp42
S'y'
I803
sS'x'
I1341
sg20
I0
s(dp43
g18
S'curve'
p44
sS'x'
I1290
sg20
I1
sS'y'
I803
s(dp45
g18
S'line'
p46
sS'x'
I671
sg20
I0
sS'y'
I803
s(dp47
g18
S'line'
p48
sS'x'
I671
sg20
I0
sS'y'
I1285
s(dp49
g18
S'line'
p50
sS'x'
I1322
sg20
I1
sS'y'
I1285
s(dp51
S'y'
I1285
sS'x'
I1371
sg20
I0
s(dp52
S'y'
I1319
sS'x'
I1395
sg20
I0
s(dp53
g18
S'curve'
p54
sS'x'
I1395
sg20
I1
sS'y'
I1356
s(dp55
S'y'
I1392
sS'x'
I1395
sg20
I0
s(dp56
S'y'
I1426
sS'x'
I1371
sg20
I0
s(dp57
g18
S'curve'
p58
sS'x'
I1322
sg20
I1
sS'y'
I1426
s(dp59
g18
S'line'
p60
sS'x'
I576
sg20
I1
sS'y'
I1426
s(dp61
S'y'
I1426
sS'x'
I528
sg20
I0
s(dp62
S'y'
I1383
sS'x'
I493
sg20
I0
s(dp63
g18
S'curve'
p64
sS'x'
I493
sg20
I1
sS'y'
I1340
s(dp65
g18
S'line'
p66
sS'x'
I493
sg20
I1
sS'y'
I86
s(dp67
S'y'
I41
sS'x'
I493
sg20
I0
s(dp68
S'y'
I0
sS'x'
I537
sg20
I0
stp69
stp70
sg9
(tsg3
(tsssg13
S'T'
s."
AnchorPoint: "top" 619 1446 basechar 0
AnchorPoint: "bot" 604 0 basechar 0
AnchorPoint: "mid" 611 720 basechar 0
LayerCount: 2
Fore
SplineSet
606 0 m 0
 692 0 767 69 767 169 c 2
 767 1203 l 1
 1069 1203 l 2
 1142 1203 1192 1262 1192 1325 c 0
 1192 1389 1141 1447 1069 1447 c 2
 141 1447 l 2
 68 1447 17 1389 17 1325 c 0
 17 1261 68 1203 141 1203 c 2
 446 1203 l 1
 446 169 l 2
 446 69 521 0 606 0 c 0
EndSplineSet
EndChar

StartChar: Thorn
Encoding: 157 222 105
Width: 1362
VWidth: 0
GlyphClass: 2
Flags: HW
LayerCount: 2
Fore
SplineSet
319 2 m 0
 422 2 486 91 486 220 c 2
 486 338 l 1
 723 338 l 2
 1064 338 1309 474 1309 780 c 0
 1309 1095 1039 1218 719 1218 c 2
 486 1218 l 1
 486 1287 l 2
 486 1408 413 1469 318 1469 c 0
 205 1469 163 1375 163 1266 c 2
 163 190 l 2
 163 68 220 2 319 2 c 0
486 551 m 1
 486 1005 l 1
 699 1005 l 2
 867 1005 991 950 991 780 c 0
 991 607 863 551 686 551 c 2
 486 551 l 1
EndSplineSet
EndChar

StartChar: U
Encoding: 53 85 106
Width: 1521
VWidth: 0
GlyphClass: 2
Flags: HW
PickledData: "(dp1
S'b'
(dp2
sS'anchors'
p3
(tsS'lib'
p4
(dp5
sS'unicodes'
p6
(tsS'width'
p7
I1513
sS'contours'
p8
(tsS'components'
p9
(tsS'com.typemytype.robofont.layerData'
p10
(dp11
S'b'
(dp12
S'name'
p13
S'U'
sg4
(dp14
sg6
(tsg7
I1490
sg8
(tsg9
(tsg3
(tsssg13
S'U'
s."
AnchorPoint: "top" 774 1438 basechar 0
AnchorPoint: "ogonek" 921 9 basechar 0
LayerCount: 2
Fore
SplineSet
760 -30 m 0
 1104 -30 1369 144 1369 495 c 2
 1369 1282 l 2
 1369 1381 1295 1450 1209 1450 c 0
 1123 1450 1048 1381 1048 1282 c 2
 1048 502 l 2
 1048 296 903 210 760 210 c 0
 618 210 474 296 474 502 c 2
 474 1282 l 1
 473 1381 398 1450 312 1450 c 0
 226 1450 152 1381 152 1282 c 2
 152 495 l 2
 152 141 417 -30 760 -30 c 0
EndSplineSet
EndChar

StartChar: V
Encoding: 54 86 117
Width: 1410
VWidth: 0
GlyphClass: 2
Flags: HW
PickledData: "(dp1
S'b'
(dp2
sS'anchors'
p3
(tsS'com.typemytype.robofont.layerData'
p4
(dp5
S'b'
(dp6
S'name'
p7
S'V'
sS'lib'
p8
(dp9
sS'unicodes'
p10
(tsS'width'
p11
I1289
sS'contours'
p12
((dp13
S'points'
p14
((dp15
S'segmentType'
p16
S'curve'
p17
sS'x'
I644
sS'smooth'
p18
I1
sS'y'
S'-5'
p19
s(dp20
S'y'
S'-5'
p21
sS'x'
I712
sg18
I0
s(dp22
S'y'
I38
sS'x'
I764
sg18
I0
s(dp23
g16
S'curve'
p24
sS'x'
I793
sg18
I1
sS'y'
I117
s(dp25
g16
S'line'
p26
sS'x'
I1243
sg18
I1
sS'y'
I1324
s(dp27
S'y'
I1335
sS'x'
I1247
sg18
I0
s(dp28
S'y'
I1342
sS'x'
I1248
sg18
I0
s(dp29
g16
S'curve'
p30
sS'x'
I1248
sg18
I1
sS'y'
I1351
s(dp31
S'y'
I1395
sS'x'
I1248
sg18
I0
s(dp32
S'y'
I1427
sS'x'
I1203
sg18
I0
s(dp33
g16
S'curve'
p34
sS'x'
I1160
sg18
I1
sS'y'
I1427
s(dp35
S'y'
I1427
sS'x'
I1125
sg18
I0
s(dp36
S'y'
I1408
sS'x'
I1090
sg18
I0
s(dp37
g16
S'curve'
p38
sS'x'
I1076
sg18
I1
sS'y'
I1369
s(dp39
g16
S'line'
p40
sS'x'
I651
sg18
I0
sS'y'
I192
s(dp41
g16
S'line'
p42
sS'x'
I650
sg18
I0
sS'y'
I190
s(dp43
g16
S'line'
p44
sS'x'
I214
sg18
I1
sS'y'
I1370
s(dp45
S'y'
I1407
sS'x'
I200
sg18
I0
s(dp46
S'y'
I1427
sS'x'
I170
sg18
I0
s(dp47
g16
S'curve'
p48
sS'x'
I135
sg18
I1
sS'y'
I1427
s(dp49
S'y'
I1427
sS'x'
I90
sg18
I0
s(dp50
S'y'
I1392
sS'x'
I43
sg18
I0
s(dp51
g16
S'curve'
p52
sS'x'
I43
sg18
I1
sS'y'
I1344
s(dp53
S'y'
I1336
sS'x'
I43
sg18
I0
s(dp54
S'y'
I1326
sS'x'
I44
sg18
I0
s(dp55
g16
S'curve'
p56
sS'x'
I48
sg18
I0
sS'y'
I1318
s(dp57
g16
S'line'
p58
sS'x'
I501
sg18
I1
sS'y'
I117
s(dp59
S'y'
I35
sS'x'
I532
sg18
I0
s(dp60
S'y'
S'-5'
p61
sS'x'
I581
sg18
I0
stp62
stp63
sS'components'
p64
(tsg3
(tsssg10
(tsS'com.typemytype.robofont.guides'
p65
(tsg11
I1365
sg12
(tsg64
(tsg8
(dp66
sg7
S'V'
s."
LayerCount: 2
Fore
SplineSet
703 -6 m 0
 860 -6 914 69 990 297 c 1
 1328 1243 l 2
 1336.11273052 1266.35150811 1339.77840722 1288.23669036 1339.77840722 1308.39333084 c 0
 1339.77840722 1396.62391893 1269.54298328 1451.73514749 1194.6056949 1451.73514749 c 0
 1130.50565643 1451.73514749 1062.96536216 1411.41141502 1033 1317 c 1
 703 328 l 1
 372 1317 l 1
 342.034637841 1411.41141502 274.662841022 1451.73514749 210.761466308 1451.73514749 c 0
 136.106396362 1451.73514749 66.1880769394 1396.69761744 66.1880769394 1308.57032757 c 0
 66.1880769394 1288.36482675 69.8635173874 1266.41987563 78 1243 c 2
 415 297 l 1
 491 69 545 -6 703 -6 c 0
EndSplineSet
EndChar

StartChar: W
Encoding: 55 87 118
Width: 2134
VWidth: 0
GlyphClass: 2
Flags: HW
PickledData: "(dp1
S'b'
(dp2
sS'anchors'
p3
(tsS'lib'
p4
(dp5
sS'unicodes'
p6
(tsS'width'
p7
I2070
sS'contours'
p8
(tsS'components'
p9
(tsS'com.typemytype.robofont.layerData'
p10
(dp11
S'b'
(dp12
S'name'
p13
S'W'
sg4
(dp14
sg6
(tsg7
I2126
sg8
(tsg9
(tsg3
(tsssg13
S'W'
s."
AnchorPoint: "top" 1065 1438 basechar 0
LayerCount: 2
Fore
SplineSet
1798 153 m 2
 2077 1268 l 2
 2080.41418039 1282.10204943 2082.00494689 1295.6091481 2082.00494689 1308.44361061 c 0
 2082.00494689 1396.22195815 2007.59587828 1452.53734068 1933.20419146 1452.53734068 c 0
 1871.92293772 1452.53734068 1810.65347906 1414.32237185 1791 1324 c 1
 1557 318 l 1
 1286 1235 l 1
 1248 1372 1189 1447 1065 1447 c 0
 941 1447 883 1372 845 1235 c 1
 573 318 l 1
 339 1324 l 1
 319.764680068 1414.32237185 258.563666427 1452.53734068 197.220497803 1452.53734068 c 0
 122.720239976 1452.53734068 48.010307836 1396.17141411 48.010307836 1308.32544422 c 0
 48.010307836 1295.52624962 49.5962960019 1282.05877738 53 1268 c 2
 333 153 l 2
 359 49 454.25 -7.75 551.625 -7.75 c 0
 649 -7.75 748.5 49 783 172 c 1
 1065 1127 l 1
 1347 172 l 1
 1382 49 1481.75 -7.75 1579.25 -7.75 c 0
 1676.75 -7.75 1772 49 1798 153 c 2
EndSplineSet
EndChar

StartChar: X
Encoding: 56 88 123
Width: 1349
VWidth: 0
GlyphClass: 2
Flags: HW
PickledData: "(dp1
S'b'
(dp2
sS'anchors'
p3
(tsS'lib'
p4
(dp5
sS'unicodes'
p6
(tsS'width'
p7
I1322
sS'contours'
p8
(tsS'components'
p9
(tsS'com.typemytype.robofont.layerData'
p10
(dp11
S'b'
(dp12
S'name'
p13
S'X'
sg4
(dp14
sg6
(tsg7
I1274
sg8
((dp15
S'points'
p16
((dp17
S'segmentType'
p18
S'curve'
p19
sS'x'
I151
sS'smooth'
p20
I1
sS'y'
I0
s(dp21
S'y'
I0
sS'x'
I176
sg20
I0
s(dp22
S'y'
I12
sS'x'
I201
sg20
I0
s(dp23
g18
S'curve'
p24
sS'x'
I222
sg20
I1
sS'y'
I41
s(dp25
g18
S'line'
p26
sS'x'
I641
sg20
I0
sS'y'
I616
s(dp27
g18
S'line'
p28
sS'x'
I746
sg20
I0
sS'y'
I734
s(dp29
g18
S'line'
p30
sS'x'
I1175
sg20
I1
sS'y'
I1310
s(dp31
S'y'
I1325
sS'x'
I1186
sg20
I0
s(dp32
S'y'
I1338
sS'x'
I1190
sg20
I0
s(dp33
g18
S'curve'
p34
sS'x'
I1190
sg20
I1
sS'y'
I1353
s(dp35
S'y'
I1393
sS'x'
I1190
sg20
I0
s(dp36
S'y'
I1426
sS'x'
I1153
sg20
I0
s(dp37
g18
S'curve'
p38
sS'x'
I1110
sg20
I1
sS'y'
I1426
s(dp39
S'y'
I1426
sS'x'
I1083
sg20
I0
s(dp40
S'y'
I1414
sS'x'
I1058
sg20
I0
s(dp41
g18
S'curve'
p42
sS'x'
I1037
sg20
I1
sS'y'
I1385
s(dp43
g18
S'line'
p44
sS'x'
I648
sg20
I0
sS'y'
I844
s(dp45
g18
S'line'
p46
sS'x'
I542
sg20
I0
sS'y'
I732
s(dp47
g18
S'line'
p48
sS'x'
I84
sg20
I1
sS'y'
I121
s(dp49
S'y'
I106
sS'x'
I73
sg20
I0
s(dp50
S'y'
I91
sS'x'
I68
sg20
I0
s(dp51
g18
S'curve'
p52
sS'x'
I68
sg20
I1
sS'y'
I76
s(dp53
S'y'
I35
sS'x'
I68
sg20
I0
s(dp54
S'y'
I0
sS'x'
I108
sg20
I0
stp55
s(dp56
g16
((dp57
g18
S'curve'
p58
sS'x'
I1104
sg20
I1
sS'y'
I0
s(dp59
S'y'
I0
sS'x'
I1151
sg20
I0
s(dp60
S'y'
I40
sS'x'
I1200
sg20
I0
s(dp61
g18
S'curve'
p62
sS'x'
I1200
sg20
I1
sS'y'
I85
s(dp63
S'y'
I98
sS'x'
I1200
sg20
I0
s(dp64
S'y'
I113
sS'x'
I1195
sg20
I0
s(dp65
g18
S'curve'
p66
sS'x'
I1186
sg20
I0
sS'y'
I126
s(dp67
g18
S'line'
p68
sS'x'
I272
sg20
I0
sS'y'
I1385
s(dp69
S'y'
I1414
sS'x'
I252
sg20
I0
s(dp70
S'y'
I1426
sS'x'
I225
sg20
I0
s(dp71
g18
S'curve'
p72
sS'x'
I197
sg20
I1
sS'y'
I1426
s(dp73
S'y'
I1426
sS'x'
I149
sg20
I0
s(dp74
S'y'
I1388
sS'x'
I100
sg20
I0
s(dp75
g18
S'curve'
p76
sS'x'
I100
sg20
I1
sS'y'
I1343
s(dp77
S'y'
I1328
sS'x'
I100
sg20
I0
s(dp78
S'y'
I1315
sS'x'
I105
sg20
I0
s(dp79
g18
S'curve'
p80
sS'x'
I114
sg20
I0
sS'y'
I1303
s(dp81
g18
S'line'
p82
sS'x'
I1033
sg20
I0
sS'y'
I40
s(dp83
S'y'
I13
sS'x'
I1052
sg20
I0
s(dp84
S'y'
I0
sS'x'
I1076
sg20
I0
stp85
stp86
sg9
(tsg3
(tsssg13
S'X'
s."
LayerCount: 2
Fore
SplineSet
1004 63 m 1
 1042.78888269 8.99394025589 1091.1037881 -12.9619495889 1136.619069 -12.9619495889 c 0
 1214.35401319 -12.9619495889 1283.92279683 51.0806821828 1283.92279683 128.879314733 c 0
 1283.92279683 158.196450116 1274.04378403 189.466986157 1251 220 c 2
 862.404 733.107 l 1
 1258 1238 l 2
 1278.06702901 1264.04854727 1286.77873958 1291.99585271 1286.77873958 1318.74573427 c 0
 1286.77873958 1387.70471137 1228.88370295 1448.70602059 1158.38379213 1448.70602059 c 0
 1114.49868677 1448.70602059 1065.72935633 1425.06880527 1023 1365 c 1
 701.984 944.927 l 1
 374 1378 l 1
 335.674021923 1431.47810895 288.079823033 1453.44426713 243.306992283 1453.44426713 c 0
 166.962411214 1453.44426713 98.8211016101 1389.5765442 98.8211016101 1309.16744517 c 0
 98.8211016101 1278.01072316 109.051760457 1244.37049772 133 1211 c 1
 502.359 724.176 l 1
 110 242 l 1
 79.1498897936 202.115214662 66.2660980008 163.39581214 66.2660980008 129.062509303 c 0
 66.2660980008 54.36080575 127.258191611 0.422974113771 196.891445719 0.422974113771 c 0
 240.489975976 0.422974113771 287.476030287 21.5677847051 325 72 c 1
 664.958 509.866 l 1
 1004 63 l 1
EndSplineSet
EndChar

StartChar: Y
Encoding: 57 89 124
Width: 1315
VWidth: 0
GlyphClass: 2
Flags: HW
PickledData: "(dp1
S'b'
(dp2
sS'anchors'
p3
(tsS'com.typemytype.robofont.layerData'
p4
(dp5
S'b'
(dp6
S'name'
p7
S'Y'
sS'lib'
p8
(dp9
sS'unicodes'
p10
(tsS'width'
p11
I1278
sS'contours'
p12
((dp13
S'points'
p14
((dp15
S'segmentType'
p16
S'curve'
p17
sS'x'
I641
sS'smooth'
p18
I1
sS'y'
I0
s(dp19
S'y'
I0
sS'x'
I685
sg18
I0
s(dp20
S'y'
I29
sS'x'
I730
sg18
I0
s(dp21
g16
S'curve'
p22
sS'x'
I730
sg18
I1
sS'y'
I85
s(dp23
g16
S'line'
p24
sS'x'
I730
sg18
I0
sS'y'
I1285
s(dp25
g16
S'line'
p26
sS'x'
I1115
sg18
I1
sS'y'
I1285
s(dp27
S'y'
I1285
sS'x'
I1164
sg18
I0
s(dp28
S'y'
I1319
sS'x'
I1190
sg18
I0
s(dp29
g16
S'curve'
p30
sS'x'
I1190
sg18
I1
sS'y'
I1355
s(dp31
S'y'
I1392
sS'x'
I1190
sg18
I0
s(dp32
S'y'
I1426
sS'x'
I1166
sg18
I0
s(dp33
g16
S'curve'
p34
sS'x'
I1115
sg18
I1
sS'y'
I1426
s(dp35
g16
S'line'
p36
sS'x'
I160
sg18
I1
sS'y'
I1426
s(dp37
S'y'
I1426
sS'x'
I111
sg18
I0
s(dp38
S'y'
I1392
sS'x'
I86
sg18
I0
s(dp39
g16
S'curve'
p40
sS'x'
I86
sg18
I1
sS'y'
I1355
s(dp41
S'y'
I1319
sS'x'
I86
sg18
I0
s(dp42
S'y'
I1285
sS'x'
I111
sg18
I0
s(dp43
g16
S'curve'
p44
sS'x'
I160
sg18
I1
sS'y'
I1285
s(dp45
g16
S'line'
p46
sS'x'
I552
sg18
I0
sS'y'
I1285
s(dp47
g16
S'line'
p48
sS'x'
I552
sg18
I1
sS'y'
I85
s(dp49
S'y'
I29
sS'x'
I552
sg18
I0
s(dp50
S'y'
I0
sS'x'
I596
sg18
I0
stp51
stp52
sS'components'
p53
(tsg3
(tsssg10
(tsS'com.typemytype.robofont.guides'
p54
(tsg11
I1321
sg12
(tsg53
(tsg8
(dp55
sg7
S'Y'
s."
AnchorPoint: "top" 670 1438 basechar 0
LayerCount: 2
Fore
SplineSet
493 162 m 2
 493 53.1252868597 573.065623996 -1.12521551667 653.223277081 -1.12521551667 c 0
 733.565411949 -1.12521551667 814 53.3752878506 814 162 c 2
 814 574 l 1
 1221 1232 l 2
 1238.09393065 1260.60271565 1245.47737844 1288.03100711 1245.47737844 1313.01470109 c 0
 1245.47737844 1385.71762067 1182.95296762 1437.71923344 1115.248218 1437.71923344 c 0
 1068.75052962 1437.71923344 1019.80950849 1413.19241222 987 1354 c 1
 669 820 l 1
 365 1341 l 1
 325.545309632 1412.82776964 269.715365172 1442.01164843 217.220839583 1442.01164843 c 0
 139.976260149 1442.01164843 69.953695563 1378.82126243 69.953695563 1295.32569074 c 0
 69.953695563 1267.29777548 77.8439810841 1236.98183044 96 1206 c 2
 493 566 l 1
 493 162 l 2
EndSplineSet
EndChar

StartChar: Z
Encoding: 58 90 129
Width: 1215
VWidth: 0
GlyphClass: 2
Flags: HW
PickledData: "(dp1
S'b'
(dp2
sS'anchors'
p3
(tsS'lib'
p4
(dp5
sS'unicodes'
p6
(tsS'width'
p7
I1222
sS'contours'
p8
(tsS'components'
p9
(tsS'com.typemytype.robofont.layerData'
p10
(dp11
S'b'
(dp12
S'name'
p13
S'Z'
sg4
(dp14
sg6
(tsg7
I1165
sg8
((dp15
S'points'
p16
((dp17
S'segmentType'
p18
S'curve'
p19
sS'x'
I266
sS'smooth'
p20
I1
sS'y'
I0
s(dp21
g18
S'line'
p22
sS'x'
I1035
sg20
I1
sS'y'
I0
s(dp23
S'y'
I0
sS'x'
I1084
sg20
I0
s(dp24
S'y'
I34
sS'x'
I1108
sg20
I0
s(dp25
g18
S'curve'
p26
sS'x'
I1108
sg20
I1
sS'y'
I71
s(dp27
S'y'
I107
sS'x'
I1108
sg20
I0
s(dp28
S'y'
I141
sS'x'
I1084
sg20
I0
s(dp29
g18
S'curve'
p30
sS'x'
I1035
sg20
I1
sS'y'
I141
s(dp31
g18
S'line'
p32
sS'x'
I356
sg20
I0
sS'y'
I141
s(dp33
g18
S'line'
p34
sS'x'
I356
sg20
I0
sS'y'
I665
s(dp35
g18
S'line'
p36
sS'x'
I975
sg20
I1
sS'y'
I665
s(dp37
S'y'
I665
sS'x'
I1024
sg20
I0
s(dp38
S'y'
I698
sS'x'
I1049
sg20
I0
s(dp39
g18
S'curve'
p40
sS'x'
I1049
sg20
I1
sS'y'
I734
s(dp41
S'y'
I770
sS'x'
I1049
sg20
I0
s(dp42
S'y'
I803
sS'x'
I1026
sg20
I0
s(dp43
g18
S'curve'
p44
sS'x'
I975
sg20
I1
sS'y'
I803
s(dp45
g18
S'line'
p46
sS'x'
I356
sg20
I0
sS'y'
I803
s(dp47
g18
S'line'
p48
sS'x'
I356
sg20
I0
sS'y'
I1285
s(dp49
g18
S'line'
p50
sS'x'
I1007
sg20
I1
sS'y'
I1285
s(dp51
S'y'
I1285
sS'x'
I1056
sg20
I0
s(dp52
S'y'
I1319
sS'x'
I1080
sg20
I0
s(dp53
g18
S'curve'
p54
sS'x'
I1080
sg20
I1
sS'y'
I1356
s(dp55
S'y'
I1392
sS'x'
I1080
sg20
I0
s(dp56
S'y'
I1426
sS'x'
I1056
sg20
I0
s(dp57
g18
S'curve'
p58
sS'x'
I1007
sg20
I1
sS'y'
I1426
s(dp59
g18
S'line'
p60
sS'x'
I261
sg20
I1
sS'y'
I1426
s(dp61
S'y'
I1426
sS'x'
I213
sg20
I0
s(dp62
S'y'
I1383
sS'x'
I178
sg20
I0
s(dp63
g18
S'curve'
p64
sS'x'
I178
sg20
I1
sS'y'
I1340
s(dp65
g18
S'line'
p66
sS'x'
I178
sg20
I1
sS'y'
I86
s(dp67
S'y'
I41
sS'x'
I178
sg20
I0
s(dp68
S'y'
I0
sS'x'
I222
sg20
I0
stp69
stp70
sg9
(tsg3
(tsssg13
S'Z'
s."
AnchorPoint: "top" 646 1438 basechar 0
LayerCount: 2
Fore
SplineSet
216 0 m 2
 1049 0 l 2
 1119 0 1164 57 1164 120 c 0
 1164 183 1119 240 1049 240 c 2
 460 240 l 1
 1121 1209 l 1
 1146 1248 1166 1292 1166 1330 c 0
 1166 1409 1105 1447 1023 1447 c 2
 206 1447 l 2
 136 1447 91 1390 91 1327 c 0
 91 1264 136 1207 206 1207 c 2
 780 1207 l 1
 123 240 l 2
 96 201 77 154 77 117 c 0
 77 53 123 0 216 0 c 2
EndSplineSet
EndChar

StartChar: a
Encoding: 65 97 133
Width: 1094
VWidth: 0
GlyphClass: 2
Flags: HW
PickledData: "(dp1
S'b'
(dp2
sS'anchors'
p3
(tsS'lib'
p4
(dp5
sS'unicodes'
p6
(tsS'width'
p7
I1101
sS'contours'
p8
(tsS'components'
p9
(tsS'com.typemytype.robofont.layerData'
p10
(dp11
S'b'
(dp12
S'name'
p13
S'a'
sg4
(dp14
sg6
(tsg7
I1040
sg8
(tsg9
(tsg3
(tsssg13
S'a'
s."
AnchorPoint: "top" 565 1001 basechar 0
AnchorPoint: "ogonek" 829 30 basechar 0
LayerCount: 2
Fore
SplineSet
69 274 m 0
 69 93.8835900308 217.426367943 -12.0122956327 411.462382214 -12.0122956327 c 0
 550.897130652 -12.0122956327 665.385271788 47.9836726511 712 167 c 1
 712 139 l 2
 712 45.7500018065 776.34454601 -1.00100805966 840.516124059 -1.00100805966 c 0
 904.343621061 -1.00100805966 968 45.2499981935 968 138 c 2
 968 619 l 2
 968 914 792 1019 547 1019 c 0
 397 1019 258 981 172 940 c 0
 137.610179615 923.656322985 123.27722974 893.516301515 123.27722974 862.448888192 c 0
 123.27722974 811.887173429 161.240968828 758.869072326 212.494211791 758.869072326 c 0
 222.23893406 758.869072326 232.464058542 760.785623417 243 765 c 0
 308 791 414 835 533 835 c 0
 641 835 703 784 703 663 c 2
 703 591 l 1
 253 591 69 545 69 274 c 0
457.410523483 152.893481523 m 0
 368.96246664 152.893481523 313.993482037 205.892959719 313.993482037 295.908207212 c 0
 313.993482037 441.121369263 428.194614281 455 702 455 c 1
 702 422 l 2
 702 260.915960607 575.617010898 152.893481523 457.410523483 152.893481523 c 0
EndSplineSet
EndChar

StartChar: acute
Encoding: 115 180 137
Width: 569
VWidth: 0
GlyphClass: 4
Flags: HW
AnchorPoint: "top" 116 1040 mark 0
LayerCount: 2
Fore
SplineSet
119 1200 m 0
 138 1200 155 1207 170 1219 c 2
 470 1470 l 2
 496 1493 511 1518 511 1546 c 0
 511 1613 444 1666 385 1666 c 0
 347 1666 319 1639 293 1601 c 1
 77 1311 l 1
 65 1293 56 1278 56 1261 c 0
 56 1222 87 1200 119 1200 c 0
EndSplineSet
EndChar

StartChar: ae
Encoding: 165 230 139
Width: 1755
VWidth: 0
GlyphClass: 2
Flags: HW
PickledData: "(dp1
S'com.typemytype.robofont.layerData'
p2
(dp3
S'b'
(dp4
S'name'
p5
S'ae'
p6
sS'lib'
p7
(dp8
sS'unicodes'
p9
(tsS'width'
p10
I1734
sS'contours'
p11
(tsS'components'
p12
(tsS'anchors'
p13
(tsss."
AnchorPoint: "top" 879 1002 basechar 0
LayerCount: 2
Fore
SplineSet
430 -22 m 0
 610 -22 758 35 833 167 c 1
 909 50 1030 -22 1194 -22 c 0
 1328 -22 1619 23 1619 167 c 0
 1619 208 1593 250 1552 250 c 0
 1543 250 1534 249 1524 245 c 0
 1442 215 1357 171 1245 171 c 0
 1047 171 989 292 986 453 c 1
 1570 453 l 2
 1629 453 1664 479 1664 531 c 0
 1661 823 1510 1031 1207 1031 c 0
 1065 1031 951 973 871 878 c 1
 814 983 711 1028 565 1030 c 0
 417 1030 240 1002 164 913 c 0
 147 894 137 871 137 844 c 0
 137 801 171 768 213 768 c 0
 226 768 239 769 252 774 c 0
 327 802 406 833 525 833 c 0
 634 833 719 800 719 671 c 2
 719 613 l 1
 694 613 652 615 627 615 c 0
 277 615 57 522 57 274 c 0
 57 84 203 -22 430 -22 c 0
487 138 m 0
 386 139 311 190 311 295 c 0
 311 466 585 472 718 472 c 1
 718 402 l 1
 713 232 620 139 487 138 c 0
986 595 m 1
 995 752 1072 865 1209 865 c 0
 1345 865 1416 763 1425 595 c 1
 986 595 l 1
EndSplineSet
EndChar

StartChar: ampersand
Encoding: 6 38 144
Width: 1565
VWidth: 0
GlyphClass: 2
Flags: HW
LayerCount: 2
Fore
SplineSet
632 -26 m 0
 851 -26 976 55 1079 159 c 1
 1225 8 l 2
 1245 -12 1263 -19 1286 -19 c 0
 1350 -19 1429 54 1429 119 c 0
 1429 135 1424 155 1408 172 c 2
 1269 316 l 1
 1370.67349278 471.965163683 1420.11162626 733.997544352 1420.11162626 858.372559888 c 0
 1420.11162626 914.919223499 1336.46602995 929.496049069 1310 952 c 1
 1264 952 1211 940 1199 888 c 1
 1189 751 1169 612 1101 487 c 1
 782 819 l 1
 933 923 1031 1050 1031 1216 c 0
 1031 1404 853 1499 655 1499 c 0
 654.038540324 1499.00485586 653.076585482 1499.00728304 652.114162953 1499.00728304 c 0
 454.878298533 1499.00728304 238 1397.06767547 238 1206 c 0
 238 1062 314 963 421 858 c 1
 222 749 74 631 74 399 c 0
 74 121 311 -26 632 -26 c 0
649 186 m 0
 501 186 350 262 350 425 c 0
 350 542 452 615 575 679 c 1
 928 300 l 1
 888 244 774 186 649 186 c 0
629 977 m 1
 560 1039 482 1133 482 1215 c 0
 482 1303 565 1344 646 1344 c 0
 724 1344 805 1299 805 1215 c 0
 805 1117 705 1046 629 977 c 1
EndSplineSet
EndChar

StartChar: uni02BC
Encoding: 65536 700 146
Width: 600
VWidth: 0
GlyphClass: 4
Flags: HW
AnchorPoint: "top.2" 246 -269 mark 0
LayerCount: 2
Fore
SplineSet
151 -190 m 2
 254 -190 l 2
 255.104067954 -190.038071309 256.187843965 -190.057300098 257.251935029 -190.057300098 c 0
 284.13779099 -190.057300098 298.456855705 -177.781718119 310 -147 c 2
 486 349 l 2
 487.488214952 353.167001866 488.799247204 359.548787474 488.799247204 366.536872577 c 0
 488.799247204 383.02686466 481.498994403 402.892928971 452 405 c 1
 284 405 l 1
 252 404 219 396 211 349 c 2
 127 -147 l 2
 126.483602221 -150.098386677 125.967204441 -154.396773354 125.967204441 -159.086136843 c 0
 125.967204441 -172.558600051 130.229568913 -189.25819889 151 -190 c 2
EndSplineSet
EndChar

StartChar: approxequal
Encoding: 477 8776 147
Width: 1220
VWidth: 0
GlyphClass: 2
Flags: HW
LayerCount: 2
Fore
SplineSet
821 231 m 0
 938 231 1038 312 1038 468 c 0
 1038 516 993 550 952 550 c 0
 844 550 876 432 811 432 c 0
 736 432 491 550 350 550 c 0
 263 550 127 485 127 312 c 0
 127 267 163 234 208 234 c 0
 227 234 246 235 261 247 c 0
 327 297 314 350 374 350 c 1
 457 344 692 231 821 231 c 0
821 688 m 0
 938 688 1038 770 1038 926 c 0
 1038 974 993 1008 952 1008 c 0
 844 1008 876 889 811 889 c 0
 736 889 491 1008 350 1008 c 0
 263 1008 127 943 127 770 c 0
 127 725 163 692 208 692 c 0
 227 692 246 693 261 705 c 0
 327 755 314 808 374 808 c 1
 457 802 692 688 821 688 c 0
EndSplineSet
EndChar

StartChar: asciicircum
Encoding: 62 94 149
Width: 1300
VWidth: 0
GlyphClass: 2
Flags: HW
LayerCount: 2
Fore
SplineSet
260 527 m 0
 306 527 338 565 365 621 c 2
 662 1220 l 1
 960 621 l 1
 987 569 1018 530 1064 530 c 0
 1116 530 1159 565 1159 619 c 0
 1159 641 1145 673 1134 699 c 1
 804 1349 l 1
 767 1425 725 1468 663 1468 c 0
 593 1468 552 1413 521 1349 c 1
 191 699 l 2
 178 673 164 642 164 621 c 0
 164 563 208 527 260 527 c 0
EndSplineSet
EndChar

StartChar: asciitilde
Encoding: 94 126 150
Width: 1300
VWidth: 0
GlyphClass: 2
Flags: HW
LayerCount: 2
Fore
SplineSet
786 1143 m 0
 912 1143 971 1238 997 1322 c 0
 999.285943586 1329.55355272 1000.3371192 1336.80088298 1000.3371192 1343.66639393 c 0
 1000.3371192 1383.03860773 965.766336116 1409.85364971 931.251026043 1409.85364971 c 0
 911.228932985 1409.85364971 891.225507037 1400.83017358 878 1380 c 0
 851 1336 827 1309 784 1309 c 0
 717 1309 619 1407 499 1407 c 0
 397 1407 338 1338 295 1233 c 0
 291.781408484 1225.2983703 290.320203536 1217.75530179 290.320203536 1210.52723913 c 0
 290.320203536 1173.84018197 327.963969909 1145.26834945 364.522973214 1145.26834945 c 0
 383.421880576 1145.26834945 402.030907045 1152.90359123 415 1171 c 0
 445 1214 470 1242 513 1242 c 0
 584 1239 678 1143 786 1143 c 0
EndSplineSet
EndChar

StartChar: asterisk
Encoding: 10 42 151
Width: 993
VWidth: 0
GlyphClass: 2
Flags: HW
LayerCount: 2
Fore
SplineSet
410 832 m 2
 495 984 l 1
 581 832 l 2
 598.092463735 800.496243312 624.058450348 786.73953238 648.432742092 786.73953238 c 0
 682.108201768 786.73953238 712.745415887 812.998501156 712.745415887 854.993090981 c 0
 712.745415887 873.296567311 706.925325247 894.58930828 693 918 c 2
 612 1046 l 1
 805 1041 l 1
 852 1041 875.5 1075.75 875.5 1110.5 c 0
 875.5 1145.25 852 1180 805 1180 c 1
 613 1174 l 1
 703 1319 l 2
 713.160875 1335.69286607 717.527478631 1351.95774619 717.527478631 1366.79109148 c 0
 717.527478631 1406.45878319 686.299820436 1435.88888889 651.148148148 1435.88888889 c 0
 627 1435.88888889 601 1422 582 1388 c 2
 495 1232 l 1
 405 1396 l 2
 389.968435556 1423.50456473 366.65177274 1435.3594992 343.915206016 1435.3594992 c 0
 308.960708681 1435.3594992 275.377270804 1407.34031358 275.377270804 1365.09026667 c 0
 275.377270804 1348.89277576 280.313169654 1330.60371542 292 1311 c 2
 377 1174 l 1
 188 1180 l 1
 141.125665754 1180 117.87449867 1145.43557647 117.87449867 1110.77873667 c 0
 117.87449867 1075.93607332 141.375671116 1041 188 1041 c 1
 380 1046 l 1
 289 902 l 2
 278.690439247 884.817398746 274.269357327 868.223645375 274.269357327 853.171364494 c 0
 274.269357327 812.927166592 305.872515636 783.70185502 341.034152381 783.70185502 c 0
 365.432684198 783.70185502 391.544595486 797.773613447 410 832 c 2
EndSplineSet
EndChar

StartChar: at
Encoding: 32 64 152
Width: 1638
VWidth: 0
GlyphClass: 2
Flags: HW
LayerCount: 2
Fore
SplineSet
810 -29 m 0
 908 -29 1008 -14 1113 14 c 0
 1153 25 1173 46 1173 82 c 0
 1173 118 1147 152 1101 152 c 0
 1094 152 1087 151 1082 149 c 0
 991 123 906 113 803 113 c 0
 483 124 213 323 213 716 c 0
 213 1124 562 1370 895 1370 c 0
 1166 1370 1404 1204 1404 857 c 0
 1404 633 1271 435 1143 435 c 0
 1110 435 1098 455 1098 487 c 0
 1098 520 1112 576 1129 639 c 1
 1240 1021 l 2
 1244 1036 1250 1053 1250 1068 c 0
 1250 1113 1214 1137 1176 1137 c 0
 1139 1137 1107 1117 1094 1076 c 2
 1086 1049 l 1
 1036 1137 947 1177 849 1177 c 0
 568 1177 376 894 376 634 c 0
 376 446 493 295 685 295 c 0
 799 295 887 338 953 420 c 1
 966 341 1041 306 1110 306 c 0
 1336 306 1566 545 1566 881 c 0
 1566 1315 1235 1510 894 1510 c 0
 470 1510 45 1220 45 725 c 0
 45 246 380 -29 810 -29 c 0
729 440 m 0
 620 440 572 521 572 631 c 0
 572 836 694 1029 862 1029 c 0
 989 1029 1047 923 1047 923 c 1
 957 589 l 1
 931 506 837 440 729 440 c 0
EndSplineSet
EndChar

StartChar: b
Encoding: 66 98 154
Width: 1248
VWidth: 0
GlyphClass: 2
Flags: HW
PickledData: "(dp1
S'b'
(dp2
sS'anchors'
p3
(tsS'lib'
p4
(dp5
sS'unicodes'
p6
(tsS'width'
p7
I1203
sS'contours'
p8
(tsS'components'
p9
(tsS'com.typemytype.robofont.layerData'
p10
(dp11
S'b'
(dp12
S'name'
p13
S'b'
sg4
(dp14
sg6
(tsg7
I1181
sg8
((dp15
S'points'
p16
((dp17
S'segmentType'
p18
S'curve'
p19
sS'x'
I238
sS'smooth'
p20
I1
sS'y'
I1425
s(dp21
S'y'
I1425
sS'x'
I198
sg20
I0
s(dp22
S'y'
I1400
sS'x'
I158
sg20
I0
s(dp23
g18
S'curve'
p24
sS'x'
I158
sg20
I1
sS'y'
I1351
s(dp25
g18
S'line'
p26
sS'x'
I158
sg20
I1
sS'y'
I76
s(dp27
S'y'
I27
sS'x'
I158
sg20
I0
s(dp28
S'y'
I3
sS'x'
I197
sg20
I0
s(dp29
g18
S'curve'
p30
sS'x'
I237
sg20
I1
sS'y'
I3
s(dp31
S'y'
I3
sS'x'
I297
sg20
I0
s(dp32
S'y'
I38
sS'x'
I318
sg20
I0
s(dp33
g18
S'curve'
p34
sS'x'
I318
sg20
I1
sS'y'
I76
s(dp35
g18
S'line'
p36
sS'x'
I318
sg20
I0
sS'y'
I183
s(dp37
S'y'
I46
sS'x'
I384
sg20
I0
s(dp38
S'y'
S'-20'
p39
sS'x'
I516
sg20
I0
s(dp40
g18
S'curve'
p41
sS'x'
I666
sg20
I1
sS'y'
S'-20'
p42
s(dp43
S'y'
S'-20'
p44
sS'x'
I957
sg20
I0
s(dp45
S'y'
I225
sS'x'
I1095
sg20
I0
s(dp46
g18
S'curve'
p47
sS'x'
I1095
sg20
I1
sS'y'
I502
s(dp48
S'y'
I777
sS'x'
I1095
sg20
I0
s(dp49
S'y'
I1013
sS'x'
I939
sg20
I0
s(dp50
g18
S'curve'
p51
sS'x'
I650
sg20
I1
sS'y'
I1013
s(dp52
S'y'
I1013
sS'x'
I503
sg20
I0
s(dp53
S'y'
I942
sS'x'
I376
sg20
I0
s(dp54
g18
S'curve'
p55
sS'x'
I318
sg20
I0
sS'y'
I814
s(dp56
g18
S'line'
p57
sS'x'
I318
sg20
I1
sS'y'
I1351
s(dp58
S'y'
I1400
sS'x'
I318
sg20
I0
s(dp59
S'y'
I1425
sS'x'
I278
sg20
I0
stp60
s(dp61
g16
((dp62
g18
S'curve'
p63
sS'x'
I632
sg20
I1
sS'y'
I903
s(dp64
S'y'
I903
sS'x'
I859
sg20
I0
s(dp65
S'y'
I685
sS'x'
I935
sg20
I0
s(dp66
g18
S'curve'
p67
sS'x'
I935
sg20
I1
sS'y'
I496
s(dp68
S'y'
I316
sS'x'
I935
sg20
I0
s(dp69
S'y'
I93
sS'x'
I869
sg20
I0
s(dp70
g18
S'curve'
p71
sS'x'
I645
sg20
I0
sS'y'
I90
s(dp72
S'y'
I90
sS'x'
I395
sg20
I0
s(dp73
S'y'
I279
sS'x'
I319
sg20
I0
s(dp74
g18
S'curve'
p75
sS'x'
I319
sg20
I1
sS'y'
I501
s(dp76
S'y'
I701
sS'x'
I319
sg20
I0
s(dp77
S'y'
I903
sS'x'
I407
sg20
I0
stp78
stp79
sg9
(tsg3
(tsssg13
S'b'
s."
LayerCount: 2
Fore
SplineSet
734 -16 m 0
 996 -16 1168 193 1168 506 c 0
 1168 833 979 1015 721 1015 c 0
 573 1015 463 958 404 851 c 1
 404 1285 l 2
 404 1391 352 1448 261 1448 c 0
 175 1448 126 1391 126 1285 c 2
 126 170 l 2
 126 64 181 -1 267 -1 c 0
 352 -1 403 50 403 135 c 2
 403 162 l 1
 469 36 588 -16 734 -16 c 0
658 162 m 0
 470 162 405 291 405 501 c 0
 405 695 485 833 655 833 c 0
 830 833 897 675 897 500 c 0
 897 351 841 162 658 162 c 0
EndSplineSet
EndChar

StartChar: backslash
Encoding: 60 92 155
Width: 648
VWidth: 0
GlyphClass: 2
Flags: HW
LayerCount: 2
Fore
SplineSet
557 -78 m 0
 603 -78 653 -45 653 11 c 0
 653 26 648 44 642 62 c 2
 190 1405 l 2
 171 1459 139 1503 90 1503 c 0
 40 1503 -5 1473 -5 1415 c 0
 -5 1404 -3 1392 1 1378 c 2
 461 20 l 2
 479 -35 510 -78 557 -78 c 0
EndSplineSet
EndChar

StartChar: bar
Encoding: 92 124 156
Width: 455
VWidth: 0
GlyphClass: 2
Flags: HW
LayerCount: 2
Fore
SplineSet
227 -294 m 0
 289 -294 321 -242 321 -178 c 2
 321 1357 l 2
 321 1434 292 1491 228 1491 c 0
 179 1491 134 1458 134 1397 c 2
 134 -158 l 2
 134 -235 162 -294 227 -294 c 0
EndSplineSet
EndChar

StartChar: braceleft
Encoding: 91 123 157
Width: 746
VWidth: 0
GlyphClass: 2
Flags: HW
LayerCount: 2
Fore
SplineSet
481 -240 m 2
 623 -240 l 2
 689 -240 716 -200 722 -146 c 1
 722 -74 686 -35 627 -35 c 2
 592 -35 l 2
 500 -35 498 38 498 159 c 2
 498 372 l 2
 498 546 368 604 325 617 c 1
 374 631 498 682 498 885 c 2
 498 1071 l 2
 498 1202 504 1273 587 1273 c 2
 615 1273 l 2
 681 1273 720 1311 720 1375 c 0
 720 1459 668 1479 615 1479 c 2
 481 1479 l 2
 318 1479 237 1352 237 1231 c 2
 237 922 l 2
 237 790 208 733 109 725 c 0
 38 719 5 676 5 618 c 0
 5 545 52 515 109 511 c 0
 215 502 237 435 237 315 c 2
 237 -1 l 2
 237 -154 355 -240 481 -240 c 2
EndSplineSet
EndChar

StartChar: braceright
Encoding: 93 125 158
Width: 746
VWidth: 0
GlyphClass: 2
Flags: HW
LayerCount: 2
Fore
SplineSet
121 -240 m 2
 267 -240 l 2
 415 -240 507 -128 507 7 c 2
 507 315 l 2
 507 448 536 506 645 512 c 0
 706 512 740 563 740 618 c 0
 740 691 690 721 635 725 c 0
 530 734 507 798 507 922 c 2
 507 1240 l 2
 507 1392 389 1479 267 1479 c 2
 121 1479 l 2
 54 1479 23 1435 23 1378 c 0
 23 1304 70 1273 129 1273 c 2
 157 1273 l 2
 241 1273 246 1192 246 1081 c 2
 246 865 l 2
 246 703 395 644 420 617 c 1
 362 598 246 536 246 372 c 2
 246 140 l 2
 246 25 235 -35 161 -35 c 2
 121 -35 l 2
 52 -35 22 -83 22 -138 c 0
 22 -205 64 -240 121 -240 c 2
EndSplineSet
EndChar

StartChar: bracketleft
Encoding: 59 91 159
Width: 743
VWidth: 0
GlyphClass: 2
Flags: HW
LayerCount: 2
Fore
SplineSet
311 -235 m 2
 536 -235 l 1
 609 -232 646 -190 646 -132 c 0
 646 -72 606 -32 536 -32 c 2
 428 -32 l 1
 428 1243 l 1
 536 1243 l 2
 606 1243 646 1285 646 1345 c 0
 646 1399 610 1446 548 1446 c 2
 311 1446 l 2
 229 1446 170 1393 170 1314 c 2
 170 -76 l 2
 170 -188 224 -235 311 -235 c 2
EndSplineSet
EndChar

StartChar: bracketright
Encoding: 61 93 160
Width: 743
VWidth: 0
GlyphClass: 2
Flags: HW
LayerCount: 2
Fore
SplineSet
195 -235 m 1
 431 -235 l 2
 511 -235 572 -183 572 -104 c 2
 572 1286 l 2
 572 1398 516 1446 431 1446 c 2
 206 1446 l 2
 133 1446 96 1403 96 1345 c 0
 96 1284 136 1243 207 1243 c 2
 314 1243 l 1
 314 -32 l 1
 207 -32 l 2
 133 -32 96 -74 96 -132 c 0
 96 -184 128 -230 195 -235 c 1
EndSplineSet
EndChar

StartChar: breve
Encoding: 401 728 161
Width: 569
VWidth: 0
GlyphClass: 4
Flags: HW
AnchorPoint: "top" 286 1040 mark 0
LayerCount: 2
Fore
SplineSet
285 1195 m 0
 391 1195 476 1229 528 1292 c 1
 565 1319 603 1373 603 1423 c 0
 603 1472 565 1500 523 1500 c 0
 486 1500 457 1472 434 1437 c 0
 399 1388 358 1372 285 1372 c 0
 209 1372 169 1389 133 1441 c 0
 110 1477 81 1500 46 1500 c 0
 6 1500 -34 1473 -34 1426 c 0
 -34 1404 -27 1384 -16 1362 c 0
 37 1253 146 1195 285 1195 c 0
EndSplineSet
EndChar

StartChar: uni0311
Encoding: 409 785 162
Width: 569
VWidth: 0
GlyphClass: 4
Flags: HW
AnchorPoint: "top" 286 1040 mark 0
LayerCount: 2
Fore
SplineSet
19 1243 m 0
 42 1243 61 1254 77 1276 c 0
 128 1350 179 1377 285 1377 c 0
 391 1377 439 1350 493 1276 c 0
 509 1254 528 1243 551 1243 c 0
 584 1243 611 1264 611 1298 c 0
 611 1306 609 1317 604 1328 c 0
 553 1445 438 1514 285 1514 c 0
 132 1514 17 1445 -34 1328 c 0
 -39 1317 -41 1306 -41 1298 c 0
 -41 1264 -14 1243 19 1243 c 0
EndSplineSet
EndChar

StartChar: brokenbar
Encoding: 101 166 163
Width: 455
VWidth: 0
GlyphClass: 2
Flags: HW
LayerCount: 2
Fore
SplineSet
228 -118 m 0
 295 -118 329 -64 329 3 c 2
 329 553 l 2
 329 629 290 676 229 676 c 0
 173 676 128 636 128 573 c 2
 128 3 l 2
 128 -74 166 -118 228 -118 c 0
229 849 m 0
 296 849 330 903 330 970 c 2
 330 1491 l 2
 330 1565 291 1612 230 1612 c 0
 175 1612 129 1574 129 1509 c 2
 129 970 l 2
 129 894 167 849 229 849 c 0
EndSplineSet
EndChar

StartChar: bullet
Encoding: 454 8226 164
Width: 1024
VWidth: 0
GlyphClass: 2
Flags: HW
LayerCount: 2
Fore
SplineSet
511 361 m 0
 715 361 882 523 882 721 c 0
 882 925 712 1083 511 1083 c 0
 302 1083 142 915 142 721 c 0
 142 521 310 361 511 361 c 0
EndSplineSet
EndChar

StartChar: c
Encoding: 67 99 165
Width: 1006
VWidth: 0
GlyphClass: 2
Flags: HW
PickledData: "(dp1
S'b'
(dp2
sS'anchors'
p3
(tsS'lib'
p4
(dp5
sS'unicodes'
p6
(tsS'width'
p7
I992
sS'contours'
p8
(tsS'components'
p9
(tsS'com.typemytype.robofont.layerData'
p10
(dp11
S'b'
(dp12
S'name'
p13
S'c'
sg4
(dp14
sg6
(tsg7
F956.14099999999996
sg8
(tsg9
(tsg3
(tsssg13
S'c'
s."
AnchorPoint: "top" 592 1021 basechar 0
AnchorPoint: "bot" 558 0 basechar 0
LayerCount: 2
Fore
SplineSet
363 506 m 0
 363 700.587693811 464.807931824 815.112684345 628.619766804 815.112684345 c 0
 693.333526506 815.112684345 760.664616341 791.167691829 803 770 c 0
 820.341084411 760.772633983 837.074718523 756.70859551 852.540523554 756.70859551 c 0
 903.367899769 756.70859551 940.501884321 800.602895907 940.501884321 849.371485367 c 0
 940.501884321 879.038545341 926.760193205 910.509370128 894 935 c 0
 838 978 731 1020 596 1020 c 0
 294 1020 80 796 80 505 c 0
 80 185 306 -12 590 -12 c 0
 736 -12 854 29 910 76 c 0
 941.075932725 102.103783489 954.093021229 134.581276703 954.093021229 165.029553446 c 0
 954.093021229 216.101220738 917.470478583 261.463848967 868.017546793 261.463848967 c 0
 852.078955824 261.463848967 834.807593676 256.751754673 817 246 c 0
 767 217 695 195 620 195 c 0
 451 195 363 329 363 506 c 0
EndSplineSet
EndChar

StartChar: caron
Encoding: 399 711 167
Width: 569
VWidth: 0
GlyphClass: 4
Flags: HW
AnchorPoint: "top" 282 1040 mark 0
LayerCount: 2
Fore
SplineSet
284 1120 m 0
 327 1120 366 1147 402 1195 c 1
 573 1413 l 2
 591 1437 607 1465 607 1489 c 0
 607 1534 574 1564 529 1564 c 0
 493 1564 457 1537 426 1494 c 1
 283 1306 l 1
 136 1500 l 2
 103 1545 67 1566 33 1566 c 0
 -11 1566 -47 1537 -47 1494 c 0
 -47 1473 -40 1455 -22 1433 c 2
 171 1183 l 2
 203 1143 241 1120 284 1120 c 0
EndSplineSet
EndChar

StartChar: caron.alt
Encoding: 65537 -1 168
Width: 646
VWidth: 0
GlyphClass: 4
Flags: HW
AnchorPoint: "caron.alt" -68 302 mark 0
LayerCount: 2
Fore
SplineSet
243 295 m 2
 350 295 l 2
 351.104067954 294.961928691 352.18929339 294.942699902 353.256117758 294.942699902 c 0
 380.211034758 294.942699902 395.418784397 307.218281881 406 338 c 2
 575 793 l 2
 576.488214952 797.167001866 577.799247204 803.548787474 577.799247204 810.536872577 c 0
 577.799247204 827.02686466 570.498994403 846.892928971 541 849 c 1
 372 849 l 1
 340 848 307 840 299 793 c 2
 219 338 l 2
 218.483602221 334.901613323 217.967204441 330.603226646 217.967204441 325.913863157 c 0
 217.967204441 312.441399949 222.229568913 295.74180111 243 295 c 2
EndSplineSet
EndChar

StartChar: cedilla
Encoding: 119 184 173
Width: 569
VWidth: 0
GlyphClass: 4
Flags: HW
AnchorPoint: "bot" 281 0 mark 0
LayerCount: 2
Fore
SplineSet
275 -438 m 0
 394 -438 508 -386 512 -271 c 0
 512 -157 434 -112 339 -110 c 0
 324 -110 305 -111 283 -113 c 1
 328 1 l 1
 230 1 l 1
 177 -128 l 2
 172 -139 169 -150 169 -159 c 0
 169 -185 188 -199 222 -199 c 0
 232 -198 240 -195 250 -194 c 0
 297 -194 349 -212 349 -263 c 0
 349 -312 320 -342 245 -342 c 0
 192 -342 135 -322 88 -308 c 0
 85 -308 82 -307 79 -307 c 0
 52 -307 37 -330 37 -356 c 0
 37 -415 165 -438 275 -438 c 0
EndSplineSet
EndChar

StartChar: cent
Encoding: 97 162 174
Width: 1055
VWidth: 0
GlyphClass: 2
Flags: HW
PickledData: "(dp1
S'com.typemytype.robofont.layerData'
p2
(dp3
S'b'
(dp4
S'name'
p5
S'cent'
p6
sS'lib'
p7
(dp8
sS'unicodes'
p9
(tsS'width'
p10
I1046
sS'contours'
p11
(tsS'components'
p12
(tsS'anchors'
p13
(tsss."
LayerCount: 2
Fore
SplineSet
591 -286 m 0
 627 -286 660 -263 660 -217 c 2
 660 93 l 1
 521 94 l 1
 521 -208 l 2
 521 -259 551 -286 591 -286 c 0
521 925 m 1
 660 925 l 1
 660 1205 l 2
 660 1251 627 1274 591 1274 c 0
 551 1274 521 1248 521 1196 c 2
 521 925 l 1
EndSplineSet
Refer: 165 99 N 1 0 0 1 0 0 2
EndChar

StartChar: circumflex
Encoding: 398 710 175
Width: 569
VWidth: 0
GlyphClass: 4
Flags: HW
AnchorPoint: "top" 294 1040 mark 0
LayerCount: 2
Fore
SplineSet
31 1132 m 0
 66 1132 103 1159 139 1202 c 1
 283 1392 l 1
 430 1197 l 1
 462 1151 497 1134 532 1134 c 0
 573 1134 608 1163 608 1204 c 0
 608 1228 593 1256 573 1283 c 2
 394 1515 l 2
 361 1557 321 1577 283 1577 c 0
 242 1577 204 1555 171 1515 c 1
 -14 1276 l 2
 -34 1249 -47 1222 -47 1202 c 0
 -47 1160 -11 1132 31 1132 c 0
EndSplineSet
EndChar

StartChar: colon
Encoding: 26 58 176
Width: 633
VWidth: 0
GlyphClass: 2
Flags: HW
LayerCount: 2
Fore
SplineSet
316 -5 m 0
 406 -5 470 65 470 146 c 0
 470 234 400 296 316 296 c 0
 225 296 162 225 162 146 c 0
 162 61 230 -5 316 -5 c 0
316 742 m 0
 408 742 470 811 470 892 c 0
 470 978 400 1042 316 1042 c 0
 225 1042 162 971 162 892 c 0
 162 802 231 742 316 742 c 0
EndSplineSet
EndChar

StartChar: comma
Encoding: 12 44 177
Width: 633
VWidth: 0
GlyphClass: 2
Flags: HW
PickledData: "(dp1
S'b'
(dp2
sS'anchors'
p3
(tsS'lib'
p4
(dp5
sS'unicodes'
p6
(tsS'width'
p7
I615
sS'contours'
p8
(tsS'components'
p9
(tsS'com.typemytype.robofont.layerData'
p10
(dp11
S'b'
(dp12
S'name'
p13
S'comma'
p14
sg4
(dp15
sg6
(tsg7
I584
sg8
(tsg9
(tsg3
(tsssg13
S'comma'
p16
s."
LayerCount: 2
Fore
SplineSet
142 -310 m 2
 245 -310 l 2
 246.104067954 -310.038071309 247.187843965 -310.057300098 248.251935029 -310.057300098 c 0
 275.13779099 -310.057300098 289.456855705 -297.781718119 301 -267 c 2
 477 229 l 2
 478.488214952 233.167001866 479.799247204 239.548787474 479.799247204 246.536872577 c 0
 479.799247204 263.02686466 472.498994403 282.892928971 443 285 c 1
 275 285 l 1
 243 284 210 276 202 229 c 2
 118 -267 l 2
 117.483602221 -270.098386677 116.967204441 -274.396773354 116.967204441 -279.086136843 c 0
 116.967204441 -292.558600051 121.229568913 -309.25819889 142 -310 c 2
EndSplineSet
EndChar

StartChar: uni0326
Encoding: 411 806 178
Width: 633
VWidth: 0
GlyphClass: 4
Flags: HW
PickledData: "(dp1
S'b'
(dp2
sS'anchors'
p3
(tsS'lib'
p4
(dp5
sS'unicodes'
p6
(tsS'width'
p7
I615
sS'contours'
p8
(tsS'components'
p9
(tsS'com.typemytype.robofont.layerData'
p10
(dp11
S'b'
(dp12
S'name'
p13
S'uni0326'
p14
sg4
(dp15
sg6
(tsg7
I584
sg8
(tsg9
(tsg3
(tsssg13
S'uni0326'
p16
s."
AnchorPoint: "bot" 347 0 mark 0
LayerCount: 2
Fore
SplineSet
142 -657 m 2
 249 -657 l 2
 250.104067954 -657.038071309 251.18929339 -657.057300098 252.256117758 -657.057300098 c 0
 279.211034758 -657.057300098 294.418784397 -644.781718119 305 -614 c 2
 474 -160 l 2
 475.488214952 -155.832998134 476.799247204 -149.451212526 476.799247204 -142.463127423 c 0
 476.799247204 -125.97313534 469.498994403 -106.107071029 440 -104 c 1
 270 -104 l 1
 238 -105 205 -113 197 -160 c 2
 118 -614 l 2
 117.483602221 -617.098386677 116.967204441 -621.396773354 116.967204441 -626.086136843 c 0
 116.967204441 -639.558600051 121.229568913 -656.25819889 142 -657 c 2
EndSplineSet
EndChar

StartChar: uni0312
Encoding: 410 786 179
Width: 600
VWidth: 0
GlyphClass: 4
Flags: HW
AnchorPoint: "top" 291 991 mark 0
LayerCount: 2
Fore
SplineSet
199 1199 m 1
 367 1199 l 1
 399 1200 432 1208 440 1255 c 2
 524 1751 l 2
 524.516397779 1754.09838668 525.032795559 1758.39677335 525.032795559 1763.08613684 c 0
 525.032795559 1776.55860005 520.770431087 1793.25819889 500 1794 c 2
 397 1794 l 2
 395.895932046 1794.03807131 394.812156035 1794.0573001 393.748064971 1794.0573001 c 0
 366.86220901 1794.0573001 352.543144295 1781.78171812 341 1751 c 2
 165 1255 l 2
 163.511785048 1250.83299813 162.200752796 1244.45121253 162.200752796 1237.46312742 c 0
 162.200752796 1220.97313534 169.501005597 1201.10707103 199 1199 c 1
EndSplineSet
EndChar

StartChar: copyright
Encoding: 104 169 180
Width: 1713
VWidth: 0
GlyphClass: 2
Flags: HW
LayerCount: 2
Fore
SplineSet
872 377 m 0
 950 377 1139 407 1139 494 c 0
 1139 522 1117 550 1090 550 c 0
 1085 550 1079 548 1072 546 c 0
 1009 514 948 504 888 504 c 0
 752 504 641 598 641 776 c 0
 641 966 752 1040 887 1040 c 0
 929 1040 974 1032 1018 1016 c 0
 1039 1010 1072 993 1087 993 c 0
 1120 993 1141 1026 1141 1057 c 0
 1141 1133 955 1166 872 1166 c 0
 665 1166 485 1034 485 774 c 0
 485 506 672 377 872 377 c 0
864 214 m 0
 534 214 293 458 293 771 c 0
 293 1089 539 1328 864 1328 c 0
 1192 1328 1433 1083 1433 771 c 0
 1433 447 1181 214 864 214 c 0
864 80 m 0
 1261 80 1585 391 1585 771 c 0
 1585 1164 1252 1466 864 1466 c 0
 457 1466 141 1144 141 771 c 0
 141 381 472 80 864 80 c 0
EndSplineSet
EndChar

StartChar: currency
Encoding: 99 164 181
Width: 1234
VWidth: 0
GlyphClass: 2
Flags: HW
LayerCount: 2
Fore
SplineSet
236 158 m 0
 259 158 275 168 296 190 c 2
 370 264 l 1
 438 219 521 195 623 195 c 0
 725 195 809 219 876 264 c 1
 956 186 l 1
 969 171 986 160 1003 158 c 0
 1037 158 1070 180 1072 219 c 0
 1072 244 1062 260 1042 282 c 1
 971 349 l 1
 1030 425 1059 515 1059 611 c 0
 1059 701 1032 794 974 868 c 1
 1046 937 l 1
 1062 954 1072 970 1072 994 c 0
 1071 1027 1041 1055 1009 1055 c 0
 992 1055 971 1045 955 1028 c 2
 882 956 l 1
 814 1004 729 1030 623 1030 c 0
 517 1030 432 1001 364 956 c 1
 291 1028 l 2
 275 1044 259 1056 240 1056 c 0
 207 1056 175 1027 175 994 c 0
 175 969 185 955 202 937 c 2
 272 868 l 1
 216 793 188 703 188 611 c 0
 188 516 216 424 276 350 c 1
 194 269 l 2
 182 257 176 244 175 229 c 0
 175 194 199 160 236 158 c 0
623 314 m 0
 430 314 333 462 333 611 c 0
 333 758 429 909 623 909 c 0
 815 909 913 759 913 611 c 0
 913 457 812 314 623 314 c 0
EndSplineSet
EndChar

StartChar: d
Encoding: 68 100 182
Width: 1248
VWidth: 0
GlyphClass: 2
Flags: HW
PickledData: "(dp1
S'b'
(dp2
sS'anchors'
p3
(tsS'lib'
p4
(dp5
sS'unicodes'
p6
(tsS'width'
p7
I1207
sS'contours'
p8
(tsS'components'
p9
(tsS'com.typemytype.robofont.layerData'
p10
(dp11
S'b'
(dp12
S'name'
p13
S'd'
sg4
(dp14
sg6
(tsg7
I1181
sg8
(tsg9
(tsg3
(tsssg13
S'd'
s."
AnchorPoint: "caron.alt" 952 1014 basechar 0
AnchorPoint: "mid" 949 1176 basechar 0
LayerCount: 2
Fore
SplineSet
514 -16 m 0
 660 -16 779 36 845 162 c 1
 845 135 l 2
 845 50 896 -1 981 -1 c 0
 1067 -1 1122 64 1122 170 c 2
 1122 1285 l 2
 1122 1391 1073 1448 987 1448 c 0
 896 1448 844 1391 844 1285 c 2
 844 851 l 1
 785 958 675 1015 527 1015 c 0
 269 1015 80 833 80 506 c 0
 80 193 252 -16 514 -16 c 0
590 162 m 0
 407 162 351 351 351 500 c 0
 351 675 418 833 593 833 c 0
 763 833 843 695 843 501 c 0
 843 291 778 162 590 162 c 0
EndSplineSet
EndChar

StartChar: dagger
Encoding: 452 8224 183
Width: 1266
VWidth: 0
GlyphClass: 2
Flags: HW
LayerCount: 2
Fore
SplineSet
633 2 m 0
 715 2 757 73 757 168 c 2
 757 930 l 1
 980 930 l 2
 1055 930 1098 970 1098 1037 c 0
 1098 1106 1047 1141 980 1141 c 2
 757 1141 l 1
 757 1332 l 2
 757 1425 704 1476 633 1476 c 0
 549 1476 509 1404 509 1313 c 2
 509 1141 l 1
 283 1141 l 2
 204 1141 166 1097 166 1034 c 0
 166 964 216 930 283 930 c 2
 509 930 l 1
 509 147 l 2
 509 52 561 2 633 2 c 0
EndSplineSet
EndChar

StartChar: daggerdbl
Encoding: 453 8225 184
Width: 1266
VWidth: 0
GlyphClass: 2
Flags: HW
LayerCount: 2
Fore
SplineSet
633 1 m 0
 711 1 752 70 752 160 c 2
 752 308 l 1
 981 308 l 2
 1056 308 1098 349 1098 410 c 0
 1098 476 1048 509 981 509 c 2
 752 509 l 1
 752 966 l 1
 981 966 l 2
 1056 966 1098 1007 1098 1068 c 0
 1098 1134 1048 1167 981 1167 c 2
 752 1167 l 1
 752 1325 l 2
 752 1423 705 1476 633 1476 c 0
 549 1476 513 1403 513 1316 c 2
 513 1167 l 1
 282 1167 l 2
 207 1167 166 1126 166 1066 c 0
 166 998 214 966 282 966 c 2
 513 966 l 1
 513 509 l 1
 282 509 l 2
 207 509 166 468 166 407 c 0
 166 337 219 308 289 308 c 2
 513 308 l 1
 513 152 l 2
 513 54 559 1 633 1 c 0
EndSplineSet
EndChar

StartChar: uni030F
Encoding: 408 783 185
Width: 569
VWidth: 0
GlyphClass: 4
Flags: HW
AnchorPoint: "top" 486 1086 mark 0
LayerCount: 2
Fore
SplineSet
268 1212 m 0
 300 1212 329 1239 329 1274 c 0
 327 1291 319 1307 307 1324 c 2
 92 1612 l 2
 64 1651 35 1677 -2 1677 c 0
 -59 1677 -129 1625 -129 1559 c 0
 -129 1535 -119 1511 -98 1493 c 2
 201 1242 l 1
 220 1224 249 1212 268 1212 c 0
683 1212 m 0
 716 1212 739 1238 742 1267 c 0
 741 1288 735 1304 722 1323 c 2
 510 1608 l 2
 479 1650 448 1677 411 1677 c 0
 349 1677 285 1619 285 1558 c 0
 285 1532 295 1510 316 1493 c 2
 605 1251 l 2
 629 1230 660 1212 683 1212 c 0
EndSplineSet
EndChar

StartChar: degree
Encoding: 111 176 188
Width: 819
VWidth: 0
GlyphClass: 2
Flags: HW
LayerCount: 2
Fore
SplineSet
410 987 m 0
 311 987 238 1059 238 1152 c 0
 238 1244 310 1318 409 1318 c 0
 509 1318 582 1241 582 1152 c 0
 582 1053 503 987 410 987 c 0
410 858 m 0
 575 858 711 991 711 1152 c 0
 711 1317 571 1445 410 1445 c 0
 239 1445 109 1310 109 1152 c 0
 109 986 245 858 410 858 c 0
EndSplineSet
EndChar

StartChar: dieresis
Encoding: 103 168 189
Width: 569
VWidth: 0
GlyphClass: 4
Flags: HW
AnchorPoint: "top" 287 1040 mark 0
LayerCount: 2
Fore
SplineSet
65 1178 m 0
 141 1178 202 1237 202 1312 c 0
 202 1386 141 1446 65 1446 c 0
 -14 1446 -73 1384 -73 1312 c 0
 -73 1234 -9 1178 65 1178 c 0
505 1178 m 0
 581 1178 642 1237 642 1312 c 0
 642 1388 579 1446 505 1446 c 0
 424 1446 367 1382 367 1312 c 0
 367 1234 431 1178 505 1178 c 0
EndSplineSet
EndChar

StartChar: divide
Encoding: 182 247 190
Width: 1300
VWidth: 0
GlyphClass: 2
Flags: HW
LayerCount: 2
Fore
SplineSet
202 421 m 2
 1087 421 l 2
 1158 421 1196 453 1196 516 c 0
 1196 577 1159 611 1098 611 c 2
 223 611 l 2
 148 611 113 575 113 516 c 0
 113 467 143 421 202 421 c 2
651 -41 m 0
 727 -41 783 18 783 88 c 0
 783 157 727 215 651 215 c 0
 569 215 518 153 518 88 c 0
 518 16 573 -41 651 -41 c 0
651 817 m 0
 727 817 783 875 783 945 c 0
 783 1017 726 1072 651 1072 c 0
 569 1072 518 1012 518 945 c 0
 518 873 575 817 651 817 c 0
EndSplineSet
EndChar

StartChar: dollar
Encoding: 4 36 191
Width: 1120
VWidth: 0
GlyphClass: 2
Flags: HW
PickledData: "(dp1
S'com.typemytype.robofont.layerData'
p2
(dp3
S'b'
(dp4
S'name'
p5
S'dollar'
p6
sS'lib'
p7
(dp8
sS'unicodes'
p9
(tsS'width'
p10
I1274
sS'contours'
p11
(tsS'components'
p12
(tsS'anchors'
p13
(tsss."
LayerCount: 2
Fore
SplineSet
487 0 m 2
 487 -45.7256447592 519.877038277 -67.5187395963 553.301571325 -67.5187395963 c 0
 587.858180804 -67.5187395963 623 -44.2243968382 623 0 c 2
 623 196.649291377 l 1
 820.754619715 215.452284671 964.137557901 320.99781661 964.137557901 512.654601684 c 0
 964.137557901 688.843438341 852.342440657 764.152161394 644 817 c 2
 496 854 l 1
 399 877 366 900 366 959 c 0
 366 1027.39472132 455.154272771 1050.02884246 535.350482979 1050.02884246 c 0
 640.738499238 1050.02884246 738.545244393 1012.50747289 783 997 c 0
 798.031703298 991.409697121 811.967675472 988.905960788 824.641119718 988.905960788 c 0
 875.020869169 988.905960788 905.449663875 1028.47097091 905.449663875 1070.98876877 c 0
 905.449663875 1103.87198326 887.248810323 1138.52139513 846 1158 c 0
 789.46990828 1184.49848049 715.775673997 1216.45827908 607 1227.69257683 c 1
 607 1438 l 2
 607 1482.22439684 571.858180804 1505.5187396 537.301571325 1505.5187396 c 0
 503.877038277 1505.5187396 471 1483.72564476 471 1438 c 2
 471 1230.37594905 l 1
 258.841895168 1216.90637994 115.995965622 1116.92135293 115.995965622 944.587921588 c 0
 115.995965622 748.035280406 235.016294399 702.273251556 452 642 c 1
 601 603 l 2
 689.911489486 579.761769794 731.024670047 541.063508177 731.024670047 494.495600743 c 0
 731.024670047 400.126088965 624.927809313 374.749757158 531.240241343 374.749757158 c 0
 397.751466664 374.749757158 313.209664408 428.338108154 259 458 c 0
 239.890245114 468.484998256 221.781460986 473.021370291 205.307227405 473.021370291 c 0
 153.663606072 473.021370291 118.082786251 428.442238916 118.082786251 382.78978797 c 0
 118.082786251 356.890863577 129.533991767 330.6465058 156 312 c 0
 230.805661579 259.088678395 335.571455841 209.497571289 487 196.649291377 c 1
 487 0 l 2
EndSplineSet
EndChar

StartChar: dotaccent
Encoding: 402 729 192
Width: 633
VWidth: 0
GlyphClass: 4
Flags: HW
AnchorPoint: "top" 317 1040 mark 0
LayerCount: 2
Fore
SplineSet
321 1207 m 0
 412 1207 475 1276 475 1358 c 0
 475 1445 406 1507 321 1507 c 0
 230 1507 169 1437 169 1358 c 0
 169 1273 233 1207 321 1207 c 0
EndSplineSet
EndChar

StartChar: dotlessi
Encoding: 240 305 193
Width: 533
VWidth: 0
GlyphClass: 2
Flags: HW
AnchorPoint: "top" 268 991 basechar 0
LayerCount: 2
Fore
SplineSet
265 0 m 0
 355 0 406 72 406 175 c 2
 406 833 l 2
 406 949 351 1009 267 1009 c 0
 193 1009 127 958 127 868 c 2
 127 175 l 2
 127 58 181 0 265 0 c 0
EndSplineSet
EndChar

StartChar: uni0237
Encoding: 396 567 194
Width: 546
VWidth: 0
GlyphClass: 2
Flags: HW
AnchorPoint: "top" 280 991 basechar 0
LayerCount: 2
Fore
SplineSet
-11 -387 m 0
 370 -387 419 -261 419 -4 c 2
 419 838 l 2
 419 950 380 1003 280 1003 c 0
 185 1003 138 946 138 833 c 2
 138 6 l 2
 138 -160 103 -183 -16 -185 c 0
 -77.5902327506 -185 -106.959628653 -232.508095207 -106.959628653 -281.444999931 c 0
 -106.959628653 -333.416739685 -73.8345795624 -387 -11 -387 c 0
EndSplineSet
EndChar

StartChar: e
Encoding: 69 101 195
Width: 1121
VWidth: 0
GlyphClass: 2
Flags: HW
PickledData: "(dp1
S'b'
(dp2
sS'anchors'
p3
(tsS'lib'
p4
(dp5
sS'unicodes'
p6
(tsS'width'
p7
I1132
sS'contours'
p8
(tsS'components'
p9
(tsS'com.typemytype.robofont.layerData'
p10
(dp11
S'b'
(dp12
S'name'
p13
S'e'
sg4
(dp14
sg6
(tsg7
I1132
sg8
(tsg9
(tsg3
(tsssg13
S'e'
s."
AnchorPoint: "top" 592 1001 basechar 0
AnchorPoint: "ogonek" 791 39 basechar 0
LayerCount: 2
Fore
SplineSet
607 -12 m 0
 796 -12 912 55 994 128 c 0
 1015.3318984 146.761790155 1024.11342969 169.817126949 1024.11342969 192.701128329 c 0
 1024.11342969 243.637957216 980.605328381 293.725904709 935.152139727 293.725904709 c 0
 921.572242033 293.725904709 907.818722883 289.254978306 895 279 c 0
 828 228 735 180 635 180 c 0
 462 180 367 268 358 449 c 1
 968 449 l 2
 1024 449 1052 483 1052 535 c 0
 1049 793 915 1019 587 1019 c 0
 274 1019 80 789 80 510 c 0
 80 172 301 -11 607 -12 c 0
360 592 m 1
 369 724 443 848 593 848 c 0
 751 848 807 731 817 592 c 1
 360 592 l 1
EndSplineSet
EndChar

StartChar: eight
Encoding: 24 56 203
Width: 1258
VWidth: 0
GlyphClass: 2
Flags: HW
PickledData: "(dp1
S'com.typemytype.robofont.layerData'
p2
(dp3
S'b'
(dp4
S'name'
p5
S'eight'
p6
sS'lib'
p7
(dp8
sS'unicodes'
p9
(tsS'width'
p10
I1160
sS'contours'
p11
(tsS'components'
p12
(tsS'anchors'
p13
(tsss."
LayerCount: 2
Fore
SplineSet
628 -24 m 0
 967 -24 1164 143 1164 391 c 0
 1164 578 1069 700 891 747 c 1
 1040 782 1137 897 1137 1067 c 0
 1137 1327 938 1473 628 1473 c 0
 313 1473 122 1320 122 1067 c 0
 122 894 219 778 367 747 c 1
 191 707 94 564 94 391 c 0
 94 145 281 -24 628 -24 c 0
629 196 m 0
 494 196 400 254 400 411 c 0
 400 569 496 637 629 637 c 0
 765 637 858 564 858 411 c 0
 858 250 757 196 629 196 c 0
629 860 m 0
 492 860 415 924 415 1064 c 0
 415 1209 508 1260 629 1260 c 0
 750 1260 843 1209 843 1064 c 0
 843 923 768 860 629 860 c 0
EndSplineSet
EndChar

StartChar: ellipsis
Encoding: 455 8230 204
Width: 1901
VWidth: 0
GlyphClass: 2
Flags: HW
LayerCount: 2
Fore
SplineSet
316 -5 m 0
 406 -5 470 65 470 146 c 0
 470 234 400 296 316 296 c 0
 225 296 162 225 162 146 c 0
 162 61 230 -5 316 -5 c 0
950 -5 m 0
 1041 -5 1105 65 1105 146 c 0
 1105 236 1031 296 950 296 c 0
 858 296 795 225 795 146 c 0
 795 61 863 -5 950 -5 c 0
1584 -5 m 0
 1673 -5 1738 65 1738 146 c 0
 1738 234 1667 296 1584 296 c 0
 1492 296 1430 225 1430 146 c 0
 1430 61 1494 -5 1584 -5 c 0
EndSplineSet
EndChar

StartChar: emdash
Encoding: 445 8212 206
Width: 2048
VWidth: 0
GlyphClass: 2
Flags: HW
LayerCount: 2
Fore
SplineSet
98 425 m 2
 1909 425 l 2
 1989 425 2046 456 2046 535 c 0
 2046 606 2002 644 1929 644 c 2
 137 644 l 2
 58 644 0 611 0 535 c 0
 0 480 33 425 98 425 c 2
EndSplineSet
EndChar

StartChar: emptyset
Encoding: 467 8709 207
Width: 1745
VWidth: 0
GlyphClass: 2
Flags: HW
LayerCount: 2
Fore
SplineSet
673.576 301.945 m 1
 1203.8 998.858 l 1
 1278.26 920.256 1322 814.247 1322 698 c 0
 1322 440 1117 259 874 259 c 0
 800.536 259 732.891 274.41 673.576 301.945 c 1
566.187 372.759 m 1
 477.1 452.987 424 568.856 424 698 c 0
 424 947 619 1136 874 1136 c 0
 958.866 1136 1036.06 1115.01 1101.55 1078.36 c 1
 566.187 372.759 l 1
361.593867281 82.0376551962 m 0
 361.593867281 50.8485969555 387.955188378 14.7157927831 424.836227848 14.7157927831 c 0
 456.670738312 14.7157927831 483.195355765 51.5778696099 507 83 c 2
 587.849 189.267 l 1
 674.146 145.459 772.043 121 874 121 c 0
 1206 121 1478 381 1478 698 c 0
 1478 866.072 1405.58 1012.37 1293.1 1116.24 c 1
 1369 1216 l 1
 1386.33583526 1243.08724259 1411.42130842 1270.01610928 1411.42130842 1300.0058726 c 0
 1411.42130842 1333.09221599 1384.98087979 1363.59695065 1349.31969476 1363.59695065 c 0
 1330.04665576 1363.59695065 1310.51269565 1354.59632036 1294 1332 c 2
 1189 1193.61 l 1
 1095.58 1248.79 986.805 1280 874 1280 c 0
 526 1280 267 1006 267 698 c 0
 267 518.196 351.015 363.032 479.901 259.036 c 1
 404 159 l 2
 385.283116772 135.879144248 361.593867281 104.449223031 361.593867281 82.0376551962 c 0
EndSplineSet
EndChar

StartChar: endash
Encoding: 444 8211 208
Width: 1024
VWidth: 0
GlyphClass: 2
Flags: HW
LayerCount: 2
Fore
SplineSet
101 425 m 2
 901 425 l 2
 983 425 1021 468 1021 534 c 0
 1021 612 969 644 901 644 c 2
 122 644 l 2
 43 644 1 602 1 535 c 0
 1 477 38 425 101 425 c 2
EndSplineSet
EndChar

StartChar: eng
Encoding: 266 331 209
Width: 1217
VWidth: 0
GlyphClass: 2
Flags: HW
PickledData: "(dp1
S'com.typemytype.robofont.layerData'
p2
(dp3
S'b'
(dp4
S'name'
p5
S'eng'
p6
sS'lib'
p7
(dp8
sS'unicodes'
p9
(tsS'width'
p10
I1158
sS'contours'
p11
(tsS'components'
p12
(tsS'anchors'
p13
(tsss."
LayerCount: 2
Fore
SplineSet
381 -342 m 0
 489.35334323 -371.06419089 588.541825418 -387.518572972 676.195731143 -387.518572972 c 0
 932.351336253 -387.518572972 1090 -246.995784296 1090 130 c 2
 1090 351 l 1
 813 353 l 1
 813 82 l 2
 813 -102.232399499 765.276368444 -190.487273313 621.17639855 -190.487273313 c 0
 567.38884984 -190.487273313 500.173461476 -178.190974089 417 -154 c 0
 406.417983442 -150.851631437 396.33310778 -149.401190238 386.833665372 -149.401190238 c 0
 332.875097009 -149.401190238 297.80522554 -196.198914691 297.80522554 -244.438040929 c 0
 297.80522554 -284.814172048 322.374068977 -326.200103696 381 -342 c 0
EndSplineSet
Refer: 279 110 N 1 0 0 1 0 0 2
EndChar

StartChar: equal
Encoding: 29 61 211
Width: 1300
VWidth: 0
GlyphClass: 2
Flags: HW
LayerCount: 2
Fore
SplineSet
230 194 m 2
 1040 194 l 2
 1103 194 1164 217 1164 287 c 0
 1164 360 1103 383 1054 383 c 2
 259 383 l 2
 195 383 135 357 135 287 c 0
 135 232 180 194 230 194 c 2
230 627 m 2
 1039 627 l 2
 1103 627 1164 652 1164 721 c 0
 1164 797 1097 817 1039 817 c 2
 260 817 l 2
 195 817 135 791 135 721 c 0
 135 666 179 627 230 627 c 2
EndSplineSet
EndChar

StartChar: estimated
Encoding: 465 8494 212
Width: 1161
VWidth: 0
GlyphClass: 2
Flags: HW
LayerCount: 2
Fore
SplineSet
600 -12 m 0
 782 -12 888 35 982 115 c 0
 1008 137 1019 159 1019 177 c 0
 1019 199 1003 214 980 214 c 0
 955.462851782 214 938.221737777 201.451861904 921 183 c 0
 826 85 712 39 604 39 c 0
 428 39 339 159 327 491 c 1
 976 491 l 2
 1024 491 1041 541 1041 577 c 0
 1041 786 927 1013 577 1013 c 0
 231 1013 75 759 75 512 c 0
 75 183 268 -12 600 -12 c 0
329 562 m 1
 340 796 421 968 591 968 c 0
 764 968 815 817 820 562 c 1
 329 562 l 1
EndSplineSet
EndChar

StartChar: eth
Encoding: 175 240 213
Width: 1266
VWidth: 0
GlyphClass: 2
Flags: HW
PickledData: "(dp1
S'com.typemytype.robofont.layerData'
p2
(dp3
S'b'
(dp4
S'name'
p5
S'eth'
p6
sS'lib'
p7
(dp8
sS'unicodes'
p9
(tsS'width'
p10
I1230
sS'contours'
p11
(tsS'components'
p12
(tsS'anchors'
p13
(tsss."
LayerCount: 2
Fore
SplineSet
610 -35 m 0
 1029 -35 1188 265 1188 648 c 0
 1188 781 1168 924 1130 1064 c 1
 1243 1064 l 2
 1302 1064 1332 1089 1332 1137 c 0
 1332 1189 1294 1211 1244 1211 c 2
 1077 1211 l 1
 977 1445 883 1570 780 1570 c 0
 713.162462303 1570 654.914425862 1519.17878423 654.914425862 1458.11100948 c 0
 654.914425862 1446.99847402 656.843209086 1435.54664143 661 1424 c 0
 678 1369 745 1288 778 1211 c 1
 597 1211 l 2
 547 1211 523 1174 523 1137 c 0
 523 1099 547 1064 597 1064 c 2
 835 1064 l 1
 866.876893932 974.567603134 883.856726932 856.125140241 883.856726932 772.54428804 c 0
 883.856726932 761.733550972 883.57265362 751.5060501 883 742 c 1
 810 867 676 914 532 914 c 0
 259 914 78 735 78 460 c 0
 78 164 285 -35 610 -35 c 0
615 178 m 0
 456 178 368 278 368 449 c 0
 368 610 440 728 599 728 c 0
 767 728 859 618 859 445 c 0
 859 286 759 178 615 178 c 0
EndSplineSet
EndChar

StartChar: exclam
Encoding: 1 33 214
Width: 780
VWidth: 0
GlyphClass: 2
Flags: HW
LayerCount: 2
Fore
SplineSet
318 551 m 2
 324.013215667 494.375552472 363.171963766 465.874587008 402.383532947 465.874587008 c 0
 441.422746086 465.874587008 480.514316972 494.125548833 487 551 c 2
 570 1352 l 2
 570.731665187 1358.40207039 571.085994294 1364.60896694 571.085994294 1370.62068966 c 0
 571.085994294 1463.20689655 487.042997147 1509.5 403 1509.5 c 0
 318.957002853 1509.5 234.914005706 1463.20689655 234.914005706 1370.62068966 c 0
 234.914005706 1364.60896694 235.268334813 1358.40207039 236 1352 c 2
 318 551 l 2
EndSplineSet
Refer: 313 46 N 1 0 0 1 90 -1 2
EndChar

StartChar: f
Encoding: 70 102 216
Width: 739
VWidth: 0
GlyphClass: 2
Flags: HW
PickledData: "(dp1
S'b'
(dp2
sS'anchors'
p3
(tsS'lib'
p4
(dp5
sS'unicodes'
p6
(tsS'width'
p7
I723
sS'contours'
p8
(tsS'components'
p9
(tsS'com.typemytype.robofont.layerData'
p10
(dp11
S'b'
(dp12
S'name'
p13
S'f'
sg4
(dp14
sg6
(tsg7
I696
sg8
(tsg9
(tsg3
(tsssg13
S'f'
s."
LayerCount: 2
Fore
SplineSet
349 0 m 0
 436 0 488 57 488 164 c 2
 488 830 l 1
 607 830 l 2
 676 830 706 863 706 916 c 0
 706 971 671 1002 613 1002 c 2
 488 1002 l 1
 488 1055 l 2
 488 1225 518 1254 613 1254 c 2
 686 1254 l 2
 745.926175016 1254 773.80761667 1303.13525782 773.80761667 1353.52791883 c 0
 773.80761667 1406.5674776 742.920281083 1461 686 1461 c 2
 568 1461 l 2
 335 1461 209 1354 209 1087 c 2
 209 1002 l 1
 117 1002 l 2
 116.174218276 1002.01196785 115.354738648 1002.01792006 114.541528548 1002.01792006 c 0
 47.4051881829 1002.01792006 23 961.449478851 23 916 c 0
 23 858 59 831 123 830 c 1
 209 830 l 1
 209 164 l 2
 209 57 263 0 349 0 c 0
EndSplineSet
EndChar

StartChar: uniFB01
Encoding: 483 64257 217
Width: 1263
VWidth: 0
GlyphClass: 2
Flags: HW
LayerCount: 2
Fore
SplineSet
745 1351 m 0
 745 1457.26200329 617.37318355 1464 512 1464 c 0
 291 1464 193 1346 193 1069 c 2
 193 1005 l 1
 107 1005 l 2
 37 1005 5 966 5 917 c 0
 5 861 46 829 116 829 c 2
 193 829 l 1
 193 175 l 2
 193 59 247 1 332 1 c 0
 421 1 472 73 472 175 c 2
 472 829 l 1
 857 829 l 1
 857 186 l 2
 857 61 909 2 997 2 c 0
 1096 2 1136 82 1136 187 c 2
 1136 830 l 2
 1136 976 1061 1005 973 1005 c 2
 472 1005 l 1
 472 1033 l 2
 472 1226 483 1262 595 1262 c 0
 607.444444444 1262 619.49382716 1261.60493827 631.323731139 1261.60493827 c 0
 699.933351018 1261.60493827 745 1285.41419345 745 1351 c 0
995 1205 m 0
 1080 1205 1153 1252 1153 1331 c 0
 1153 1408 1081 1456 996 1456 c 0
 906 1456 838 1403 838 1331 c 0
 838 1255 909 1205 995 1205 c 0
EndSplineSet
EndChar

StartChar: five
Encoding: 21 53 218
Width: 1258
VWidth: 0
GlyphClass: 2
Flags: HW
PickledData: "(dp1
S'com.typemytype.robofont.layerData'
p2
(dp3
S'b'
(dp4
S'name'
p5
S'five'
p6
sS'lib'
p7
(dp8
sS'unicodes'
p9
(tsS'width'
p10
I1160
sS'contours'
p11
(tsS'components'
p12
(tsS'anchors'
p13
(tsss."
LayerCount: 2
Fore
SplineSet
624 -24 m 0
 925 -24 1159 157 1159 455 c 0
 1159 747 971 915 716 915 c 0
 542 915 441 843 441 843 c 1
 446 1224 l 1
 961 1224 l 2
 1037 1224 1079 1267 1079 1335 c 0
 1079 1405 1035 1447 971 1447 c 2
 369 1447 l 2
 246 1447 191 1417 191 1300 c 2
 191 732 l 2
 191 641.370231965 274.881398671 595.440419801 339.746219432 595.440419801 c 0
 362.198273738 595.440419801 382.371948409 600.943278897 396 612 c 0
 457 658 537 694 622 694 c 0
 752 694 859 610 859 450 c 0
 859 287 769 207 616 207 c 0
 499 207 404 253 328 312 c 0
 310.169208379 326.264633297 291.416399082 332.421869783 273.175846998 332.421869783 c 0
 214.31610321 332.421869783 160.790308427 268.308794199 160.790308427 205.608314761 c 0
 160.790308427 178.76634863 170.599880207 152.183266339 194 131 c 1
 283 56 419 -24 624 -24 c 0
EndSplineSet
EndChar

StartChar: uniFB02
Encoding: 484 64258 220
Width: 1263
VWidth: 0
GlyphClass: 2
Flags: HW
LayerCount: 2
Fore
SplineSet
332 1 m 0
 421 1 472 73 472 175 c 2
 472 829 l 1
 564 829 l 2
 641 829 684 861 684 917 c 0
 684 974 641 1005 573 1005 c 2
 472 1005 l 1
 472 1046 l 2
 472 1232 496 1292 599 1292 c 2
 810 1292 l 1
 810 186 l 2
 810 61 864 2 951 2 c 0
 1052 2 1089 84 1089 186 c 2
 1089 1282 l 2
 1089 1391 1030 1444 951 1444 c 0
 887 1444 831 1408 816 1341 c 1
 790 1386 684 1458 501 1458 c 0
 333 1457 193 1352 193 1080 c 2
 193 1005 l 1
 107 1005 l 2
 37 1005 5 966 5 917 c 0
 5 861 46 829 116 829 c 2
 193 829 l 1
 193 163 l 2
 193 55 251 1 332 1 c 0
EndSplineSet
EndChar

StartChar: florin
Encoding: 318 402 221
Width: 1266
VWidth: 0
GlyphClass: 2
Flags: HW
LayerCount: 2
Fore
SplineSet
96 -541 m 0
 301 -541 474 -398 575 46 c 0
 627 272 670 498 713 706 c 1
 906 706 l 2
 983 706 1028 749 1028 815 c 0
 1028 872 989 925 922 925 c 2
 750 925 l 1
 816 1270 892 1421 1027 1428 c 0
 1114 1434 1169 1469 1169 1528 c 0
 1169 1573 1132 1606 1051 1606 c 0
 798 1606 605 1390 531 925 c 1
 361 925 l 2
 293 925 255 871 255 819 c 0
 255 742 313 706 390 706 c 2
 495 706 l 1
 446 457 403 234 356 47 c 0
 283 -263 200 -348 100 -352 c 0
 27 -355 -30 -398 -30 -460 c 0
 -30 -506 9 -541 96 -541 c 0
EndSplineSet
EndChar

StartChar: foundryicon
Encoding: 488 -1 222
Width: 1347
VWidth: 0
GlyphClass: 2
Flags: HW
LayerCount: 2
Fore
SplineSet
485 405 m 1
 485 672 l 1
 591 672 l 1
 761 523 l 1
 761 672 l 1
 867 672 l 1
 867 405 l 1
 761 405 l 1
 591 552 l 1
 591 405 l 1
 485 405 l 1
280 2 m 1
 669 278 l 1
 1066 2 l 1
 922 461 l 1
 1313 755 l 1
 828 755 l 1
 669 1215 l 1
 519 755 l 1
 34 755 l 1
 423 461 l 1
 280 2 l 1
EndSplineSet
EndChar

StartChar: four
Encoding: 20 52 223
Width: 1258
VWidth: 0
GlyphClass: 2
Flags: HW
PickledData: "(dp1
S'com.typemytype.robofont.layerData'
p2
(dp3
S'b'
(dp4
S'name'
p5
S'four'
p6
sS'lib'
p7
(dp8
sS'unicodes'
p9
(tsS'width'
p10
I1160
sS'contours'
p11
(tsS'components'
p12
(tsS'anchors'
p13
(tsss."
LayerCount: 2
Fore
SplineSet
855 -6 m 0
 950 -6 1004 56 1004 156 c 2
 1004 300 l 1
 1110 300 l 2
 1193 300 1229 344 1229 411 c 0
 1229 485 1182 522 1110 522 c 2
 1005 522 l 1
 1005 1212 l 2
 1005 1392 915 1445 778 1445 c 0
 665 1445 587 1397 533 1303 c 2
 75 506 l 1
 60.7860994887 478.347502642 54.1192903345 451.229312636 54.1192903345 426.2161296 c 0
 54.1192903345 354.442011649 109.01214657 300 198 300 c 2
 708 300 l 1
 708 153 l 2
 708 50 765 -6 855 -6 c 0
345 522 m 1
 708 1187 l 1
 708 522 l 1
 345 522 l 1
EndSplineSet
EndChar

StartChar: uni2074
Encoding: 460 8308 224
Width: 768
VWidth: 0
GlyphClass: 2
Flags: HW
LayerCount: 2
Fore
SplineSet
513 612 m 0
 559 612 586 652 586 709 c 2
 586 789 l 1
 647 789 l 2
 686 789 706 814 706 842 c 0
 706 875 680 895 641 895 c 2
 586 895 l 1
 586 1284 l 2
 586 1390 555 1447 482 1447 c 0
 418 1447 376 1422 335 1345 c 1
 57 896 l 2
 48 883 43 868 43 852 c 0
 43 805 84 789 137 789 c 2
 441 789 l 1
 441 717 l 2
 441 653 465 612 513 612 c 0
190 891 m 1
 441 1311 l 1
 441 891 l 1
 190 891 l 1
EndSplineSet
EndChar

StartChar: fraction
Encoding: 459 8260 225
Width: 648
VWidth: 0
GlyphClass: 2
Flags: HW
LayerCount: 2
Fore
SplineSet
91 -59 m 0
 126 -59 162 -42 178 5 c 2
 637 1364 l 2
 644 1387 653 1413 653 1433 c 0
 653 1492 607 1523 558 1523 c 0
 509 1523 476 1481 458 1424 c 1
 11 99 l 2
 3 75 -5 49 -5 29 c 0
 -5 -28 45 -59 91 -59 c 0
EndSplineSet
EndChar

StartChar: g
Encoding: 71 103 226
Width: 1237
VWidth: 0
GlyphClass: 2
Flags: HW
PickledData: "(dp1
S'b'
(dp2
sS'anchors'
p3
(tsS'lib'
p4
(dp5
sS'unicodes'
p6
(tsS'width'
p7
I1207
sS'contours'
p8
(tsS'components'
p9
(tsS'com.typemytype.robofont.layerData'
p10
(dp11
S'b'
(dp12
S'name'
p13
S'g'
sg4
(dp14
sg6
(tsg7
I1167
sg8
(tsg9
(tsg3
(tsssg13
S'g'
s."
AnchorPoint: "top" 592 996 basechar 0
LayerCount: 2
Fore
SplineSet
848 25 m 2
 848 -181.616635972 740.104895612 -251.68092925 561.890914116 -251.68092925 c 0
 459.376441587 -251.68092925 378.22475927 -220.228926176 309 -199 c 0
 296.96550793 -195.024319584 285.404388705 -193.207681171 274.495287678 -193.207681171 c 0
 220.222737083 -193.207681171 182.087909364 -238.170241143 182.087909364 -285.934243473 c 0
 182.087909364 -317.920454628 199.189872533 -351.163001969 240 -373 c 0
 308 -410 450 -441 590 -441 c 0
 921 -441 1113 -258 1113 67 c 2
 1113 836 l 2
 1113 945 1067 1004 982 1004 c 0
 909 1004 857 963 853 881 c 1
 853 844 l 1
 798.163153695 944.053193259 715.560105056 1016.34018418 542.861750055 1016.34018418 c 0
 248.44560679 1016.34018418 76 799.292823997 76 496 c 0
 76 180.756118376 272.545908789 -1.47166263383 556.777839419 -1.47166263383 c 0
 687.169495106 -1.47166263383 795.876264661 50.3800779746 848 166 c 1
 848 25 l 2
609 180 m 0
 470 181 366 283 366 504 c 0
 366 685 427 839 609 839 c 0
 790 839 848 702 848 502 c 0
 848 272 745 183 609 180 c 0
EndSplineSet
EndChar

StartChar: germandbls
Encoding: 158 223 232
Width: 1377
VWidth: 0
GlyphClass: 2
Flags: HW
LayerCount: 2
Fore
SplineSet
917 -23 m 0
 1124 -23 1322 99 1322 325 c 0
 1322 629 913 640 913 800 c 0
 913 887 1143 964 1143 1149 c 0
 1143 1364 918 1480 684 1480 c 0
 268 1480 135 1260 135 929 c 2
 135 161 l 2
 135 56 186 2 269 2 c 0
 360 2 413 74 413 183 c 2
 413 971 l 1
 416 1153 481 1307 660 1307 c 0
 764 1307 866 1257 866 1151 c 0
 866 1005 628 966 628 784 c 0
 628 545 1058 517 1058 310 c 0
 1058 205 995 157 906 157 c 0
 830 157 781 193 744 247 c 0
 720 284 696 298 666 298 c 0
 615 298 565 253 565 200 c 0
 565 187 567 173 574 160 c 0
 630 35 764 -23 917 -23 c 0
EndSplineSet
EndChar

StartChar: grave
Encoding: 64 96 233
Width: 569
VWidth: 0
GlyphClass: 4
Flags: HW
AnchorPoint: "top" 446 1040 mark 0
LayerCount: 2
Fore
SplineSet
447 1197 m 0
 480 1197 506 1228 506 1261 c 0
 506 1276 496 1293 485 1309 c 2
 275 1593 l 1
 246 1635 213 1663 176 1663 c 0
 114 1663 48 1605 48 1543 c 0
 48 1519 58 1497 80 1479 c 2
 380 1228 l 1
 399 1209 428 1197 447 1197 c 0
EndSplineSet
EndChar

StartChar: greater
Encoding: 30 62 234
Width: 1300
VWidth: 0
GlyphClass: 2
Flags: HW
PickledData: "(dp1
S'com.typemytype.robofont.layerData'
p2
(dp3
S'b'
(dp4
S'name'
p5
S'less'
p6
sS'lib'
p7
(dp8
sS'unicodes'
p9
(tsS'width'
p10
I1340
sS'contours'
p11
(tsS'components'
p12
(tsS'anchors'
p13
(tsss."
LayerCount: 2
Fore
SplineSet
219 26 m 2
 1037 375 l 2
 1087.80884061 397.134544425 1118.87844133 449.890217407 1118.87844133 504.622848335 c 0
 1118.87844133 558.690096661 1088.55967279 614.686527499 1017 645 c 2
 222 972 l 2
 216.217723122 974.422305179 210.270592774 975.550205337 204.271679593 975.550205337 c 0
 157.742859571 975.550205337 108.098848186 907.697122813 108.098848186 849.682779533 c 0
 108.098848186 819.453312049 121.577830372 791.89518774 156 778 c 2
 834 504 l 1
 153 218 l 2
 126.691436858 206.724901511 115.979577038 180.63783949 115.979577038 151.075337535 c 0
 115.979577038 93.4208534304 156.722172133 22.5475217704 201.972520872 22.5475217704 c 0
 207.601838299 22.5475217704 213.300919149 23.644379915 219 26 c 2
EndSplineSet
EndChar

StartChar: greaterequal
Encoding: 480 8805 235
Width: 1220
VWidth: 0
GlyphClass: 2
Flags: HW
LayerCount: 2
Fore
SplineSet
185 298 m 0
 196 298 208 299 220 304 c 2
 1060 650 l 2
 1123 677 1154 715 1154 764 c 0
 1154 816 1120 853 1061 878 c 2
 244 1223 l 2
 224 1232 201 1242 183 1242 c 0
 133 1242 99 1196 99 1153 c 0
 99 1110 132 1085 178 1065 c 2
 891 765 l 1
 181 478 l 1
 131 456 100 428 100 388 c 0
 100 341 135 298 185 298 c 0
191 -5 m 2
 1018 -5 l 2
 1076 -5 1112 20 1112 74 c 0
 1112 127 1077 154 1027 154 c 2
 210 154 l 2
 149 154 117 126 117 75 c 0
 117 37 140 -5 191 -5 c 2
EndSplineSet
EndChar

StartChar: guillemotleft
Encoding: 106 171 236
Width: 1219
VWidth: 0
GlyphClass: 2
Flags: HW
LayerCount: 2
Fore
SplineSet
480 27 m 0
 543 27 584 67 584 127 c 0
 582 142 577 156 571 171 c 2
 407 532 l 1
 565 879 l 2
 574 900 583 923 583 940 c 0
 583 995 539 1036 485 1036 c 0
 443 1036 405 1015 373 963 c 1
 126 532 l 1
 360 124 l 2
 396 61 433 27 480 27 c 0
954 27 m 0
 1016 27 1059 67 1059 127 c 0
 1056 142 1051 156 1045 171 c 2
 882 532 l 1
 1039 879 l 2
 1048 899 1058 923 1058 940 c 0
 1058 995 1012 1036 958 1036 c 0
 919 1036 878 1014 847 963 c 1
 599 532 l 1
 833 124 l 2
 868.499226004 61.8763544924 906.915570173 26.9791451834 952.084419061 26.9791451834 c 0
 952.721598726 26.9791451834 953.360122117 26.9860896112 954 27 c 0
EndSplineSet
EndChar

StartChar: guillemotright
Encoding: 122 187 237
Width: 1219
VWidth: 0
GlyphClass: 2
Flags: HW
LayerCount: 2
Fore
SplineSet
260 27 m 0
 306 27 342 60 380 124 c 2
 615 532 l 1
 380 939 l 2
 343 1003 304 1035 258 1035 c 0
 202 1035 157 997 157 941 c 0
 157 920 166 900 175 880 c 2
 333 532 l 1
 175 183 l 2
 166 162 157 141 157 121 c 0
 157 61 207 27 260 27 c 0
734 27 m 0
 781 27 816 60 854 124 c 2
 1089 532 l 1
 854 939 l 2
 816 1003 779 1035 731 1035 c 0
 678 1035 630 997 630 943 c 0
 630 922 640 900 649 879 c 2
 807 532 l 1
 649 184 l 2
 640 163 631 141 631 122 c 0
 631 63 679 27 734 27 c 0
EndSplineSet
EndChar

StartChar: guilsinglleft
Encoding: 457 8249 238
Width: 633
VWidth: 0
GlyphClass: 2
Flags: HW
LayerCount: 2
Fore
SplineSet
429 29 m 0
 482 29 532 65 532 120 c 0
 532 136 527 152 520 168 c 2
 355 532 l 1
 516 885 l 1
 523 903 531 924 531 943 c 0
 531 996 483 1035 432 1035 c 0
 392 1035 354 1015 322 962 c 1
 75 532 l 1
 313 119 l 2
 348 59 385 29 429 29 c 0
EndSplineSet
EndChar

StartChar: guilsinglright
Encoding: 458 8250 239
Width: 633
VWidth: 0
GlyphClass: 2
Flags: HW
LayerCount: 2
Fore
SplineSet
206 29 m 0
 250 29 289 59 324 121 c 2
 561 532 l 1
 324 942 l 2
 288 1006 249 1034 204 1034 c 0
 147 1034 105 995 105 941 c 0
 105 923 112 904 120 885 c 2
 281 532 l 1
 120 178 l 2
 112 160 105 140 105 121 c 0
 105 64 152 29 206 29 c 0
EndSplineSet
EndChar

StartChar: h
Encoding: 72 104 240
Width: 1213
VWidth: 0
GlyphClass: 2
Flags: HW
PickledData: "(dp1
S'segmentType'
p2
S'curve'
p3
sS'b'
(dp4
sS'anchors'
p5
(tsS'lib'
p6
(dp7
sS'unicodes'
p8
(tsS'width'
p9
I1195
sS'points'
p10
(dp11
sS'contours'
p12
(dp13
sS'components'
p14
(tsS'y'
I113
sS'x'
I137
sS'com.typemytype.robofont.layerData'
p15
(dp16
S'b'
(dp17
S'name'
p18
S'h'
sg6
(dp19
sg8
(tsg9
I1148
sg12
(tsg14
(tsg5
(tsssg18
S'h'
s."
LayerCount: 2
Fore
SplineSet
1092 642 m 2
 1092 906.958160846 922.084810814 1021.28546446 729.442094129 1021.28546446 c 0
 575.298708804 1021.28546446 466.558111928 961.108240885 405 863 c 1
 405 1284 l 2
 405 1389 353 1446 263 1446 c 0
 176 1446 127 1389 127 1284 c 2
 127 163 l 2
 127 57 179 0 265 0 c 0
 356 0 406 57 406 163 c 2
 406 576 l 2
 406 736 516 837 636 837 c 0
 735 837 813 770 813 634 c 2
 813 163 l 2
 813 57 865 0 951 0 c 0
 1042 0 1091 57 1091 163 c 2
 1092 642 l 2
EndSplineSet
EndChar

StartChar: hungarumlaut
Encoding: 406 733 243
Width: 569
VWidth: 0
GlyphClass: 4
Flags: HW
AnchorPoint: "top" 174 1040 mark 0
LayerCount: 2
Fore
SplineSet
-28 1163 m 0
 -12 1163 4 1168 21 1183 c 2
 326 1436 l 1
 352 1459 365 1480 365 1510 c 0
 365 1570 301 1628 239 1628 c 0
 207 1628 176 1607 151 1569 c 1
 -73 1271 l 2
 -84 1255 -92 1240 -92 1224 c 0
 -92 1188 -61 1163 -28 1163 c 0
383 1163 m 0
 403 1163 416 1168 434 1183 c 2
 738 1436 l 2
 765 1459 778 1483 778 1509 c 0
 778 1570 712 1628 651 1628 c 0
 619 1628 587 1607 564 1570 c 1
 338 1271 l 1
 328 1255 321 1242 321 1227 c 0
 321 1191 346 1163 383 1163 c 0
EndSplineSet
EndChar

StartChar: hyphen
Encoding: 13 45 244
Width: 724
VWidth: 0
GlyphClass: 2
Flags: HW
LayerCount: 2
Fore
SplineSet
141 431 m 2
 571 431 l 2
 640 431 687 473 687 534 c 0
 687 596 641 638 571 638 c 2
 153 638 l 2
 83 638 36 596 36 534 c 0
 36 473 79 431 141 431 c 2
EndSplineSet
EndChar

StartChar: i
Encoding: 73 105 245
Width: 537
VWidth: 0
GlyphClass: 2
Flags: HW
LayerCount: 2
Fore
SplineSet
277 0 m 0
 368 0 416 58 416 165 c 2
 416 839 l 2
 416 946 363 1004 273 1004 c 0
 186 1004 137 946 137 839 c 2
 137 165 l 2
 137 57 187 0 277 0 c 0
276 1205 m 0
 370 1205 434 1263 434 1350 c 0
 434 1437 371 1496 277 1496 c 0
 182 1496 119 1437 119 1350 c 0
 119 1263 182 1205 276 1205 c 0
EndSplineSet
EndChar

StartChar: infinity
Encoding: 475 8734 254
Width: 1661
VWidth: 0
GlyphClass: 2
Flags: HW
LayerCount: 2
Fore
SplineSet
436 240 m 0
 608 240 719 351 831 482 c 1
 975 299 1093 240 1217 240 c 0
 1391 240 1558 374 1558 604 c 2
 1558 607 l 2
 1558 817 1414 953 1225 953 c 0
 1038 953 933 816 842 715 c 1
 728 853 612 953 454 953 c 0
 252 953 101 802 101 592 c 0
 101 386 258 240 436 240 c 0
453 381 m 2
 327 381 248 482 248 593 c 0
 248 721 325 815 445 815 c 0
 588 815 670 698 754 587 c 1
 674 496 579 381 456 381 c 2
 453 381 l 2
1222 381 m 0
 1117 381 1040 443 913 600 c 1
 981 674 1080 815 1213 815 c 2
 1216 815 l 2
 1336 815 1412 715 1412 593 c 0
 1412 488 1339 381 1222 381 c 0
EndSplineSet
EndChar

StartChar: integral
Encoding: 476 8747 255
Width: 824
VWidth: 0
GlyphClass: 2
Flags: HW
LayerCount: 2
Fore
SplineSet
182 -357 m 1
 375 -357 543 -255 543 204 c 0
 543 563 511 874 511 1213 c 0
 511 1489 550 1609 672 1618 c 0
 749 1625 798 1650 798 1709 c 0
 798 1755 756 1798 665 1798 c 0
 425 1798 291 1628 291 1239 c 0
 291 888 325 571 325 206 c 0
 325 -94 257 -168 161 -168 c 0
 85 -168 44 -208 44 -258 c 0
 44 -306 86 -352 182 -357 c 1
EndSplineSet
EndChar

StartChar: j
Encoding: 74 106 258
Width: 562
VWidth: 0
GlyphClass: 2
Flags: HW
LayerCount: 2
Fore
SplineSet
15 -386 m 1
 379 -386 432 -262 432 -3 c 2
 432 846 l 2
 432 953 384 1004 294 1004 c 0
 207 1004 153 949 153 842 c 2
 153 -1 l 2
 153 -162 125 -184 8 -186 c 0
 -50.5130058269 -186 -79.3057698925 -233.552386818 -79.3057698925 -282.283275671 c 0
 -79.3057698925 -333.490965938 -47.5117774093 -386 15 -386 c 1
282 1205 m 0
 375 1205 439 1263 439 1350 c 0
 439 1437 376 1496 283 1496 c 0
 188 1496 124 1437 124 1350 c 0
 124 1263 188 1205 282 1205 c 0
EndSplineSet
EndChar

StartChar: k
Encoding: 75 107 260
Width: 1086
VWidth: 0
GlyphClass: 2
Flags: HW
PickledData: "(dp1
S'com.typemytype.robofont.layerData'
p2
(dp3
S'b'
(dp4
S'name'
p5
S'k'
sS'lib'
p6
(dp7
sS'unicodes'
p8
(tsS'width'
p9
I984
sS'contours'
p10
((dp11
S'points'
p12
((dp13
S'segmentType'
p14
S'line'
p15
sS'x'
I318
sS'smooth'
p16
I0
sS'y'
I536
s(dp17
g14
S'line'
p18
sS'x'
I793
sg16
I1
sS'y'
I27
s(dp19
S'y'
I9
sS'x'
I809
sg16
I0
s(dp20
S'y'
I1
sS'x'
I828
sg16
I0
s(dp21
g14
S'curve'
p22
sS'x'
I845
sg16
I1
sS'y'
I1
s(dp23
S'y'
I1
sS'x'
I883
sg16
I0
s(dp24
S'y'
I33
sS'x'
I922
sg16
I0
s(dp25
g14
S'curve'
p26
sS'x'
I922
sg16
I1
sS'y'
I71
s(dp27
S'y'
I84
sS'x'
I922
sg16
I0
s(dp28
S'y'
I99
sS'x'
I918
sg16
I0
s(dp29
g14
S'curve'
p30
sS'x'
I906
sg16
I1
sS'y'
I112
s(dp31
g14
S'line'
p32
sS'x'
I492
sg16
I0
sS'y'
I554
s(dp33
g14
S'line'
p34
sS'x'
I873
sg16
I1
sS'y'
I889
s(dp35
S'y'
I902
sS'x'
I888
sg16
I0
s(dp36
S'y'
I918
sS'x'
I894
sg16
I0
s(dp37
g14
S'curve'
p38
sS'x'
I894
sg16
I1
sS'y'
I933
s(dp39
S'y'
I968
sS'x'
I894
sg16
I0
s(dp40
S'y'
I1002
sS'x'
I858
sg16
I0
s(dp41
g14
S'curve'
p42
sS'x'
I821
sg16
I1
sS'y'
I1002
s(dp43
S'y'
I1002
sS'x'
I802
sg16
I0
s(dp44
S'y'
I994
sS'x'
I785
sg16
I0
s(dp45
g14
S'curve'
p46
sS'x'
I770
sg16
I0
sS'y'
I979
s(dp47
g14
S'line'
p48
sS'x'
I318
sg16
I0
sS'y'
I574
stp49
stp50
sS'components'
p51
(tsS'anchors'
p52
(tsss."
AnchorPoint: "bot" 569 0 basechar 0
LayerCount: 2
Fore
SplineSet
263 0 m 0
 354 0 407 58 407 165 c 2
 407 503 l 1
 815 49 l 1
 844.969075354 13.9468850765 880.880918139 -0.48554286126 915.34027141 -0.48554286126 c 0
 983.264216707 -0.48554286126 1045.54471348 55.5896737621 1045.54471348 120.346929321 c 0
 1045.54471348 145.513942935 1036.13798592 171.992275168 1014 197 c 2
 695 540 l 1
 973 818 l 2
 995.434737395 841.767494072 1004.94239217 868.840768814 1004.94239217 895.252411151 c 0
 1004.94239217 959.135872678 949.318743945 1019.14851548 886.458875975 1019.14851548 c 0
 858.308556736 1019.14851548 828.707023472 1007.11306162 802 978 c 1
 407 570 l 1
 407 1281 l 2
 407 1388 355 1446 265 1446 c 0
 178 1446 129 1388 129 1281 c 2
 129 165 l 2
 129 58 177 0 263 0 c 0
EndSplineSet
EndChar

StartChar: kgreenlandic
Encoding: 247 312 262
Width: 1080
VWidth: 0
GlyphClass: 2
Flags: HW
PickledData: "(dp1
S'com.typemytype.robofont.layerData'
p2
(dp3
S'b'
(dp4
S'name'
p5
S'kgreenlandic'
p6
sS'lib'
p7
(dp8
sS'unicodes'
p9
(tsS'width'
p10
I1047
sS'contours'
p11
(tsS'components'
p12
(tsS'anchors'
p13
(tsss."
LayerCount: 2
Fore
SplineSet
269 0 m 0
 359 0 412 58 412 165 c 2
 412 499 l 1
 817 49 l 1
 846.828966202 13.5277158683 882.724034738 -1.0742876103 917.19432329 -1.0742876103 c 0
 984.871753564 -1.0742876103 1047.05699213 55.2130011235 1047.05699213 120.347541967 c 0
 1047.05699213 145.489621011 1037.79153251 171.949920569 1016 197 c 2
 698 542 l 1
 968 812 l 2
 990.29289336 835.396501942 999.724214628 862.446859592 999.724214628 889.086387021 c 0
 999.724214628 954.645708142 942.604187962 1017.71686959 879.491059414 1017.71686959 c 0
 852.060269274 1017.71686959 823.497368478 1005.80258291 798 977 c 1
 412 566 l 1
 412 858 l 2
 412 965 360 1023 270 1023 c 0
 183 1023 134 965 134 858 c 2
 134 165 l 2
 134 58 183 0 269 0 c 0
EndSplineSet
EndChar

StartChar: l
Encoding: 76 108 263
Width: 544
VWidth: 0
GlyphClass: 2
Flags: HW
PickledData: "(dp1
S'com.typemytype.robofont.layerData'
p2
(dp3
S'b'
(dp4
S'name'
p5
S'l'
sS'lib'
p6
(dp7
sS'unicodes'
p8
(tsS'width'
p9
I511
sS'contours'
p10
(tsS'components'
p11
(tsS'anchors'
p12
(tsss."
AnchorPoint: "top" 255 1445 basechar 0
AnchorPoint: "caron.alt" 279 1015 basechar 0
AnchorPoint: "bot" 272 0 basechar 0
LayerCount: 2
Fore
SplineSet
273 0 m 0
 363 0 417 58 417 165 c 2
 417 1281 l 2
 417 1387 364 1445 274 1445 c 0
 187 1445 138 1387 138 1281 c 2
 138 165 l 2
 138 57 187 0 273 0 c 0
EndSplineSet
EndChar

StartChar: less
Encoding: 28 60 268
Width: 1300
VWidth: 0
GlyphClass: 2
Flags: HW
PickledData: "(dp1
S'com.typemytype.robofont.layerData'
p2
(dp3
S'b'
(dp4
S'name'
p5
S'less'
p6
sS'lib'
p7
(dp8
sS'unicodes'
p9
(tsS'width'
p10
I1340
sS'contours'
p11
(tsS'components'
p12
(tsS'anchors'
p13
(tsss."
LayerCount: 2
Fore
SplineSet
1008 26 m 2
 1013.69908085 23.644379915 1019.3981617 22.5475217704 1025.02747913 22.5475217704 c 0
 1070.27782787 22.5475217704 1111.02042296 93.4208534304 1111.02042296 151.075337535 c 0
 1111.02042296 180.63783949 1100.30856314 206.724901511 1074 218 c 2
 393 504 l 1
 1071 778 l 2
 1105.42216963 791.89518774 1118.90115181 819.453312049 1118.90115181 849.682779533 c 0
 1118.90115181 907.697122813 1069.25714043 975.550205337 1022.72832041 975.550205337 c 0
 1016.72940723 975.550205337 1010.78227688 974.422305179 1005 972 c 2
 210 645 l 2
 138.44032721 614.686527499 108.121558671 558.690096661 108.121558671 504.622848335 c 0
 108.121558671 449.890217407 139.191159388 397.134544425 190 375 c 2
 1008 26 l 2
EndSplineSet
EndChar

StartChar: lessequal
Encoding: 479 8804 269
Width: 1220
VWidth: 0
GlyphClass: 2
Flags: HW
LayerCount: 2
Fore
SplineSet
1035 291 m 0
 1083 291 1118 334 1118 380 c 0
 1118 420 1086 448 1041 468 c 1
 326 768 l 1
 1039 1057 l 2
 1087 1077 1118 1104 1118 1145 c 0
 1118 1193 1080 1236 1032 1236 c 0
 1015 1236 991 1226 972 1218 c 2
 158 883 l 2
 94 856 64 819 64 769 c 0
 64 725 90 685 143 662 c 2
 974 309 l 2
 993 301 1017 291 1035 291 c 0
169 -5 m 2
 995 -5 l 2
 1054 -5 1090 22 1090 74 c 0
 1090 127 1055 154 1005 154 c 2
 188 154 l 2
 127 154 95 126 95 75 c 0
 95 37 118 -5 169 -5 c 2
EndSplineSet
EndChar

StartChar: logicalnot
Encoding: 107 172 270
Width: 1300
VWidth: 0
GlyphClass: 2
Flags: HW
LayerCount: 2
Fore
SplineSet
1071 238 m 0
 1117 238 1165 266 1165 331 c 2
 1165 724 l 2
 1165 802 1110 832 1049 832 c 2
 247 832 l 2
 174 832 137 794 137 737 c 0
 137 665 190 641 258 641 c 2
 977 641 l 1
 977 355 l 2
 977 277 1012 238 1071 238 c 0
EndSplineSet
EndChar

StartChar: lozenge
Encoding: 481 9674 271
Width: 1314
VWidth: 0
GlyphClass: 2
Flags: HW
LayerCount: 2
Fore
SplineSet
652 -105 m 0
 691 -105 731 -83 757 -36 c 2
 1190 726 l 1
 795 1436 l 1
 759 1503 715 1568 658 1568 c 0
 608 1568 573 1530 539 1467 c 2
 126 726 l 1
 520 25 l 1
 554 -38 595 -105 652 -105 c 0
655 163 m 1
 338 733 l 1
 652 1296 l 1
 659 1296 l 1
 974 721 l 1
 661 163 l 1
 655 163 l 1
EndSplineSet
EndChar

StartChar: lslash
Encoding: 257 322 272
Width: 535
VWidth: 0
GlyphClass: 2
Flags: HW
LayerCount: 2
Fore
SplineSet
-3 552 m 0
 16 552 34 562 51 571 c 1
 578 813 l 1
 632 836 666 887 666 925 c 0
 666 970 633 1019 583 1019 c 0
 563 1019 545 1010 528 1000 c 1
 -42 735 l 2
 -80 718 -96 686 -96 653 c 0
 -96 598 -55 552 -3 552 c 0
EndSplineSet
Refer: 263 108 N 1 0 0 1 0 0 2
EndChar

StartChar: m
Encoding: 77 109 273
Width: 1893
VWidth: 0
GlyphClass: 2
Flags: HW
PickledData: "(dp1
S'b'
(dp2
sS'anchors'
p3
(tsS'lib'
p4
(dp5
sS'unicodes'
p6
(tsS'width'
p7
I1877
sS'contours'
p8
(tsS'components'
p9
(tsS'com.typemytype.robofont.layerData'
p10
(dp11
S'b'
(dp12
S'name'
p13
S'm'
sg4
(dp14
sg6
(tsg7
I1838
sg8
(tsg9
(tsg3
(tsssg13
S'm'
s."
AnchorPoint: "top" 974 1009 basechar 0
LayerCount: 2
Fore
SplineSet
263 0 m 0
 354 0 407 57 407 163 c 2
 407 592 l 2
 407 747 500 837 633 837 c 0
 741 837 809 766 809 623 c 2
 809 163 l 2
 809 57 860 0 946 0 c 0
 1037 0 1087 57 1087 163 c 2
 1087 568 l 2
 1087 741 1187 837 1315 837 c 0
 1420 837 1491 768 1491 634 c 2
 1491 163 l 2
 1491 57 1543 0 1629 0 c 0
 1719 0 1769 57 1769 163 c 2
 1769 642 l 2
 1769 899 1618 1019 1418 1019 c 0
 1267 1019 1131 968 1056 801 c 1
 1010 952 893 1019 735 1019 c 0
 591 1019 467 965 407 830 c 1
 407 870 l 2
 407 958 348 1004 266 1004 c 0
 179 1004 128 952 128 847 c 2
 128 163 l 2
 128 57 177 0 263 0 c 0
EndSplineSet
EndChar

StartChar: macron
Encoding: 110 175 274
Width: 569
VWidth: 0
GlyphClass: 4
Flags: HW
AnchorPoint: "top" 290 1015 mark 0
AnchorPoint: "mid" 293 1330 mark 0
LayerCount: 2
Fore
SplineSet
0 1229 m 2
 567 1229 l 2
 627 1229 655 1266 655 1316 c 0
 655 1372 618 1403 567 1403 c 2
 7 1403 l 2
 -53 1403 -83 1363 -83 1316 c 0
 -83 1266 -53 1229 0 1229 c 2
EndSplineSet
EndChar

StartChar: minus
Encoding: 471 8722 276
Width: 803
VWidth: 0
GlyphClass: 2
Flags: HW
LayerCount: 2
Fore
SplineSet
150 425 m 2
 633 425 l 2
 709 425 753 469 753 534 c 0
 753 609 698 644 633 644 c 2
 164 644 l 2
 86 644 43 600 43 535 c 0
 43 475 83 425 150 425 c 2
EndSplineSet
EndChar

StartChar: mu
Encoding: 116 181 277
Width: 1217
VWidth: 0
GlyphClass: 2
Flags: HW
LayerCount: 2
Fore
SplineSet
261 -302 m 0
 353 -302 405 -224 405 -121 c 2
 405 34 l 1
 438 21 474 14 514 14 c 0
 634 14 762 75 813 193 c 1
 813 184 813 147 814 138 c 0
 819 47 875 2 952 2 c 0
 1056 2 1091 84 1091 195 c 2
 1091 844 l 2
 1091 947 1038 1003 954 1003 c 0
 861 1003 813 924 813 822 c 2
 813 382 l 1
 803 229 703 159 584 159 c 0
 474 159 405 235 405 373 c 2
 405 822 l 2
 405 945 349 1003 263 1003 c 0
 191 1003 127 953 127 867 c 2
 127 -139 l 2
 127 -246 177 -302 261 -302 c 0
EndSplineSet
EndChar

StartChar: multiply
Encoding: 150 215 278
Width: 1300
VWidth: 0
GlyphClass: 2
Flags: HW
LayerCount: 2
Fore
SplineSet
354 115 m 0
 380 115 407 131 434 159 c 1
 650 371 l 1
 864 160 l 2
 885.383123177 137.644916679 906.766246353 120.958072492 934.576889144 120.958072492 c 0
 935.379192009 120.958072492 936.186844187 120.971960144 937 121 c 0
 986 121 1033 169 1033 220 c 0
 1033 249 1014 277 992 301 c 1
 783 506 l 1
 998 717 l 1
 1021 742 1040 769 1040 800 c 0
 1040 852 997 895 948 895 c 0
 918 895 891 875 867 849 c 1
 652 639 l 1
 438 850 l 2
 413 875 390 889 359 889 c 0
 308 886 267 837 267 790 c 0
 267 760 284 735 308 710 c 1
 518 504 l 1
 303 292 l 2
 278 266 261 238 261 208 c 0
 261 159 305 115 354 115 c 0
EndSplineSet
EndChar

StartChar: n
Encoding: 78 110 279
Width: 1208
VWidth: 0
GlyphClass: 2
Flags: HW
PickledData: "(dp1
S'segmentType'
p2
S'curve'
p3
sS'b'
(dp4
sS'anchors'
p5
(tsS'lib'
p6
(dp7
sS'unicodes'
p8
(tsS'width'
p9
I1195
sS'points'
p10
(dp11
sS'contours'
p12
(dp13
sS'components'
p14
(tsS'y'
I113
sS'x'
I137
sS'com.typemytype.robofont.layerData'
p15
(dp16
S'b'
(dp17
S'name'
p18
S'n'
sg6
(dp19
sg8
(tsg9
I1152
sg12
(tsg14
(tsg5
(tsssg18
S'n'
s."
AnchorPoint: "top" 631 991 basechar 0
AnchorPoint: "bot" 616 0 basechar 0
LayerCount: 2
Fore
SplineSet
262 0 m 0
 353 0 405 57 405 163 c 2
 405 572 l 2
 405 732 512 837 634 837 c 0
 732 837 813 771 813 634 c 2
 813 163 l 2
 813 57 862 0 948 0 c 0
 1039 0 1091 57 1091 163 c 2
 1091 636 l 2
 1091 894 934 1020 743 1020 c 0
 580 1020 463 958 404 839 c 1
 404 863 l 2
 404 956 353 1004 268 1004 c 0
 180 1004 127 957 127 862 c 2
 127 163 l 2
 127 57 176 0 262 0 c 0
EndSplineSet
EndChar

StartChar: nine
Encoding: 25 57 284
Width: 1258
VWidth: 0
GlyphClass: 2
Flags: HW
PickledData: "(dp1
S'com.typemytype.robofont.layerData'
p2
(dp3
S'b'
(dp4
S'name'
p5
S'nine'
p6
sS'lib'
p7
(dp8
sS'unicodes'
p9
(tsS'width'
p10
I1160
sS'contours'
p11
(tsS'components'
p12
(tsS'anchors'
p13
(tsss."
LayerCount: 2
Fore
SplineSet
535 -29 m 0
 1036 -29 1180 352 1180 799 c 0
 1180 1185 1020 1479 604 1479 c 0
 276 1479 74 1274 74 988 c 0
 74 705 294 533 549 533 c 0
 740 533 838 613 872 675 c 1
 872 402 799 210 535 210 c 0
 460 210 379 230 294 259 c 0
 284.662295217 262.112568261 275.646631914 263.554546346 267.021154079 263.554546346 c 0
 207.522486003 263.554546346 166.589856624 194.941481227 166.589856624 132.751655215 c 0
 166.589856624 93.8893734438 182.573933228 57.5353484715 220 42 c 1
 318 -5 432 -29 535 -29 c 0
597.466608206 727.992643639 m 0
 442.60201532 727.992643639 367 838.908053949 367 997 c 0
 367 1168 461 1257 614 1257 c 0
 758 1257 852 1159 852 1002 c 0
 852 828.853536376 763.871016316 727.992643639 597.466608206 727.992643639 c 0
EndSplineSet
EndChar

StartChar: notequal
Encoding: 478 8800 285
Width: 1188
VWidth: 0
GlyphClass: 2
Flags: HW
LayerCount: 2
Fore
SplineSet
382 -36 m 0
 422 -36 457 -10 478 42 c 1
 573 261 l 1
 1016 261 l 2
 1088 261 1123 298 1123 356 c 0
 1123 422 1075 451 1015 451 c 2
 646 451 l 1
 750 696 l 1
 1016 696 l 2
 1086 696 1123 731 1123 788 c 0
 1123 855 1075 884 1015 884 c 2
 822 884 l 1
 890 1037 l 2
 898 1057 902 1077 903 1096 c 0
 903 1146 860 1180 814 1183 c 0
 766 1183 735 1161 714 1105 c 1
 621 884 l 1
 207 884 l 2
 134 884 99 847 99 789 c 0
 99 739 130 696 192 696 c 2
 548 696 l 1
 444 451 l 1
 206 451 l 2
 134 451 100 412 100 356 c 0
 100 290 146 261 207 261 c 2
 372 261 l 1
 304 110 l 2
 295 90 290 69 290 53 c 0
 290 0 332 -36 382 -36 c 0
EndSplineSet
EndChar

StartChar: numbersign
Encoding: 3 35 287
Width: 1266
VWidth: 0
GlyphClass: 2
Flags: HW
PickledData: "(dp1
S'com.typemytype.robofont.layerData'
p2
(dp3
S'b'
(dp4
S'name'
p5
S'numbersign'
p6
sS'lib'
p7
(dp8
sS'unicodes'
p9
(tsS'width'
p10
I1169
sS'contours'
p11
(tsS'components'
p12
(tsS'anchors'
p13
(tsss."
LayerCount: 2
Fore
SplineSet
619.562563704 1368.77072722 m 0
 619.562563704 1425.09501424 578.632134035 1457.02585695 535.774940011 1457.02585695 c 0
 493.459729138 1457.02585695 449.862109943 1429.00029709 442 1372 c 2
 391 1026 l 1
 274 1026 l 2
 210 1026 178 992 178 941 c 0
 178 881 220 854 274 854 c 2
 367 854 l 1
 332 607 l 1
 210 607 l 2
 152 607 122 573 121 527 c 0
 121 464 159 435 216 435 c 2
 308 435 l 1
 281 277 256 78 256 76 c 0
 255.502631069 70.8131525753 255.262734965 65.8181476494 255.262734965 61.013191679 c 0
 255.262734965 -1.80708924663 296.268424405 -32.1421054089 339 -34 c 0
 395 -34 424 6 433 66 c 2
 487 435 l 1
 708 435 l 1
 681 277 654 61 654 58 c 0
 653.833480823 55.5438421437 653.751880595 53.1327433213 653.751880595 50.7672085553 c 0
 653.751880595 -3.69037610334 696.99823012 -34 743 -34 c 0
 794 -34 824 5 831 58 c 2
 887 435 l 1
 990 435 l 2
 1054 435 1088 467 1088 521 c 0
 1088 580 1045 607 990 607 c 2
 910 607 l 1
 946 854 l 1
 1048 854 l 2
 1112 854 1145 886 1145 940 c 0
 1145 998 1103 1026 1048 1026 c 2
 969 1026 l 1
 995 1171 1019 1366 1019 1368 c 0
 1019.27309834 1371.3317998 1019.4059812 1374.57410035 1019.4059812 1377.72673871 c 0
 1019.4059812 1432.29393691 979.596734571 1460 938 1460 c 0
 895 1460 849 1431 841 1372 c 2
 790 1026 l 1
 570 1026 l 1
 596 1171 619 1355 619 1357 c 0
 619.379077533 1361.04349368 619.562563704 1364.96723755 619.562563704 1368.77072722 c 0
511 607 m 1
 546 854 l 1
 767 854 l 1
 731 607 l 1
 511 607 l 1
EndSplineSet
EndChar

StartChar: o
Encoding: 79 111 288
Width: 1230
VWidth: 0
GlyphClass: 2
Flags: HW
PickledData: "(dp1
S'b'
(dp2
sS'anchors'
p3
(tsS'com.typemytype.robofont.layerData'
p4
(dp5
S'b'
(dp6
S'name'
p7
S'o'
sS'lib'
p8
(dp9
sS'unicodes'
p10
(tsS'width'
p11
I1144
sS'contours'
p12
(tsS'components'
p13
(tsg3
(tsssg10
(tsS'com.typemytype.robofont.guides'
p14
(tsg11
I1199
sg12
(tsg13
(tsg8
(dp15
sg7
S'o'
s."
AnchorPoint: "top" 614 991 basechar 0
LayerCount: 2
Fore
SplineSet
615 171 m 0
 452 171 362 297 362 502 c 0
 362 714 451 837 615 837 c 0
 778 837 868 714 868 502 c 0
 868 295 778 171 615 171 c 0
615 -12 m 0
 982 -12 1150 236 1150 502 c 0
 1150 788 970 1020 615 1020 c 0
 248 1020 80 774 80 502 c 0
 80 227 251 -12 615 -12 c 0
EndSplineSet
EndChar

StartChar: oe
Encoding: 274 339 293
Width: 1871
VWidth: 0
GlyphClass: 2
Flags: HW
LayerCount: 2
Fore
SplineSet
1304 -30 m 0
 1489 -30 1723 35 1723 167 c 0
 1723 210 1697 250 1656 250 c 0
 1647 250 1637 248 1628 245 c 0
 1546 213 1463 171 1355 171 c 0
 1149 171 1084 291 1081 453 c 1
 1682 453 l 2
 1742 453 1780 477 1780 531 c 0
 1776 826 1623 1036 1312 1036 c 0
 1151 1036 1029 963 949 852 c 1
 874 959 756 1030 592 1030 c 0
 240 1030 71 789 71 502 c 0
 71 215 244 -22 592 -22 c 0
 754 -22 869 49 946 160 c 1
 1023 41 1142 -30 1304 -30 c 0
592 153 m 0
 422 153 354 313 354 502 c 0
 354 695 423 853 592 853 c 0
 763 853 826 687 826 495 c 1
 822 304 755 153 592 153 c 0
1077 595 m 1
 1087 751 1163 865 1301 865 c 0
 1445 865 1518 763 1528 595 c 1
 1077 595 l 1
EndSplineSet
EndChar

StartChar: ogonek
Encoding: 404 731 294
Width: 569
VWidth: 0
GlyphClass: 4
Flags: HW
AnchorPoint: "ogonek" 243 0 mark 0
LayerCount: 2
Fore
SplineSet
459 -455 m 1
 459 -330 l 1
 377.176301669 -330 259.058917323 -299.043620751 259.058917323 -176.302258778 c 0
 259.058917323 -131.035661915 275.124172794 -73.2853040539 315 0 c 1
 182 0 l 1
 96.9819786068 -99.6014046249 60.7762065148 -194.292701332 60.7762065148 -273.468915218 c 0
 60.7762065148 -403.033349088 157.728917178 -491.051111011 296.392648447 -491.051111011 c 0
 346.08567625 -491.051111011 401.135634039 -479.747024436 459 -455 c 1
EndSplineSet
EndChar

StartChar: one
Encoding: 17 49 298
Width: 1258
VWidth: 0
GlyphClass: 2
Flags: HW
PickledData: "(dp1
S'com.typemytype.robofont.layerData'
p2
(dp3
S'b'
(dp4
S'name'
p5
S'one'
p6
sS'lib'
p7
(dp8
sS'unicodes'
p9
(tsS'width'
p10
I1160
sS'contours'
p11
(tsS'components'
p12
(tsS'anchors'
p13
(tsss."
LayerCount: 2
Fore
SplineSet
702 1 m 0
 808 1 859 83 859 195 c 2
 858 1248 l 2
 858 1378 802 1447 709 1447 c 0
 673 1446 640 1432 609 1413 c 2
 264 1213 l 1
 219 1184 200 1154 200 1114 c 0
 200 1057 246 1002 306 1002 c 0
 324 1002 343 1008 362 1018 c 1
 546 1132 l 1
 547 209 l 2
 547 70 606 1 702 1 c 0
EndSplineSet
EndChar

StartChar: onehalf
Encoding: 124 189 299
Width: 1711
VWidth: 0
GlyphClass: 2
Flags: HW
LayerCount: 2
Fore
SplineSet
1091 -1 m 2
 1520 -1 l 2
 1563 -1 1589 23 1589 61 c 0
 1589 106 1553 131 1502 131 c 2
 1210 131 l 1
 1386 264 1584 458 1584 622 c 0
 1584 761 1465 837 1308 837 c 0
 1215 837 1033 790 1033 715 c 0
 1033 682 1057 653 1092 653 c 0
 1099 653 1108 654 1116 657 c 0
 1160 675 1223 701 1284 701 c 0
 1351 701 1413 669 1413 604 c 0
 1413 599.651567944 1413.02486372 595.489613811 1413.02486372 591.462157692 c 0
 1413.02486372 523.247119669 1405.89198606 493.616724739 1150 250 c 0
 1070 177 1000 137 1000 72 c 0
 1000 21 1037 -1 1091 -1 c 2
408 613 m 0
 465 613 487 658 487 716 c 2
 487 1321 l 2
 487 1389 461 1427 415 1427 c 0
 394 1427 377 1418 361 1407 c 1
 168 1293 l 1
 142 1276 131 1259 131 1237 c 0
 131 1205 156 1174 190 1174 c 0
 202 1174 212 1177 223 1183 c 2
 331 1249 l 1
 331 725 l 2
 331 652 357 613 408 613 c 0
571 -69 m 0
 603 -69 635 -52 649 -9 c 2
 1103 1315 l 2
 1110 1337 1117 1362 1117 1381 c 0
 1117 1435 1074 1463 1031 1463 c 0
 988 1463 958 1422 941 1371 c 2
 498 78 l 2
 491 56 484 33 484 14 c 0
 484 -36 527 -69 571 -69 c 0
EndSplineSet
EndChar

StartChar: onequarter
Encoding: 123 188 300
Width: 1688
VWidth: 0
GlyphClass: 2
Flags: HW
PickledData: "(dp1
S'com.typemytype.robofont.layerData'
p2
(dp3
S'b'
(dp4
S'name'
p5
S'onequarter'
p6
sS'lib'
p7
(dp8
sS'unicodes'
p9
(tsS'width'
p10
I1543
sS'contours'
p11
(tsS'components'
p12
(tsS'anchors'
p13
(tsss."
LayerCount: 2
Fore
SplineSet
1400 0 m 0
 1446 0 1472 42 1472 98 c 2
 1472 178 l 1
 1533 178 l 2
 1572 178 1592 204 1592 231 c 0
 1592 265 1568 284 1522 284 c 2
 1472 284 l 1
 1472 681 l 2
 1472 784 1439 836 1366 836 c 0
 1302 836 1262 810 1222 734 c 1
 943 285 l 2
 934 270 929 254 929 240 c 0
 929 194 970 178 1023 178 c 2
 1327 178 l 1
 1327 106 l 2
 1327 40 1353 0 1400 0 c 0
408 613 m 0
 465 613 487 658 487 716 c 2
 487 1321 l 2
 487 1389 461 1427 415 1427 c 0
 394 1427 377 1418 361 1407 c 1
 168 1293 l 1
 142 1276 131 1259 131 1237 c 0
 131 1205 156 1174 190 1174 c 0
 202 1174 212 1177 223 1183 c 2
 331 1249 l 1
 331 725 l 2
 331 652 357 613 408 613 c 0
580 -69 m 0
 611 -69 645 -52 659 -9 c 2
 1108 1300 l 1
 1115 1325 1126 1355 1126 1379 c 0
 1126 1433 1084 1463 1039 1463 c 0
 997 1463 965 1422 950 1371 c 1
 508 78 l 2
 501 57 494 35 494 15 c 0
 494 -35 535 -69 580 -69 c 0
1076 280 m 1
 1327 699 l 1
 1327 280 l 1
 1076 280 l 1
EndSplineSet
EndChar

StartChar: uni00B9
Encoding: 120 185 301
Width: 707
VWidth: 0
GlyphClass: 2
Flags: HW
LayerCount: 2
Fore
SplineSet
423 613 m 0
 479 613 502 657 502 716 c 2
 502 1321 l 2
 502 1389 476 1427 431 1427 c 0
 410 1427 393 1418 376 1407 c 2
 183 1293 l 2
 157 1277 146 1259 146 1237 c 0
 146 1205 172 1174 206 1174 c 0
 217 1174 228 1177 238 1183 c 2
 346 1249 l 1
 346 725 l 2
 346 653 373 613 423 613 c 0
EndSplineSet
EndChar

StartChar: ordfeminine
Encoding: 105 170 302
Width: 1102
VWidth: 0
GlyphClass: 2
Flags: HW
LayerCount: 2
Fore
SplineSet
378 731 m 0
 477 731 587 775 627 879 c 1
 628 845 l 2
 629 778 670 749 717 749 c 0
 784 749 808 802 808 868 c 2
 808 1215 l 2
 808 1435 679 1513 496 1513 c 0
 346 1513 233 1479 195 1397 c 0
 190 1389 187 1381 187 1372 c 0
 187 1341 211 1317 243 1317 c 0
 250 1317 255 1318 261 1320 c 0
 325 1343 386 1371 485 1371 c 0
 568 1371 623 1339 623 1248 c 2
 623 1202 l 1
 601 1203 570 1204 550 1204 c 0
 283 1201 129 1129 129 952 c 0
 129 810 238 731 378 731 c 0
445 846 m 0
 369 849 312 887 312 966 c 0
 312 1097 483 1099 623 1099 c 1
 623 1046 l 1
 619 918 546 847 445 846 c 0
EndSplineSet
EndChar

StartChar: ordmasculine
Encoding: 121 186 303
Width: 1050
VWidth: 0
GlyphClass: 2
Flags: HW
LayerCount: 2
Fore
SplineSet
514 897 m 0
 379 897 323 1015 323 1136 c 0
 323 1263 381 1381 514 1381 c 0
 646 1381 703 1264 703 1141 c 0
 703 1014 646 897 514 897 c 0
513 766 m 0
 799 766 925 942 925 1140 c 0
 925 1344 794 1513 513 1513 c 0
 224 1513 102 1333 102 1140 c 0
 102 937 228 766 513 766 c 0
EndSplineSet
EndChar

StartChar: oslash
Encoding: 183 248 304
Width: 1234
VWidth: 0
GlyphClass: 2
Flags: HW
AnchorPoint: "top" 582 991 basechar 0
LayerCount: 2
Fore
SplineSet
706.323544892 821.626552114 m 1
 418.752845715 271.872615162 l 1
 381.488614229 328.317782412 362 406.605554961 362 502 c 0
 362 714 451 837 615 837 c 0
 648.591004082 837 679.081780246 831.776328304 706.323544892 821.626552114 c 1
819.063158557 724.042208717 m 1
 851.232012941 668.432641549 868 593.507158821 868 502 c 0
 868 295 778 171 615 171 c 0
 585.599910942 171 558.574719783 175.099138839 534.02418092 183.02162495 c 1
 819.063158557 724.042208717 l 1
306 -174 m 0
 330 -174 352 -162 367 -134 c 2
 442.180464341 8.69690076373 l 1
 494.004329242 -4.74300849026 551.572040434 -12 615 -12 c 0
 982 -12 1150 236 1150 502 c 0
 1150 684.502136186 1076.70466345 845.015671408 931.413189609 937.289112316 c 1
 985 1039 l 2
 997 1063 1013 1095 1013 1119 c 0
 1013 1160 978 1186 940 1186 c 0
 912 1186 890 1173 876 1146 c 2
 797.686486584 996.28668623 l 1
 743.079177412 1011.69359905 682.172390788 1020 615 1020 c 0
 248 1020 80 774 80 502 c 0
 80 320.602059291 154.403853286 154.868087695 309.525808171 63.0613764548 c 1
 253 -45 l 2
 241 -66 234 -86 234 -106 c 0
 234 -145 268 -174 306 -174 c 0
EndSplineSet
EndChar

StartChar: p
Encoding: 80 112 307
Width: 1248
VWidth: 0
GlyphClass: 2
Flags: HW
PickledData: "(dp1
S'b'
(dp2
sS'anchors'
p3
(tsS'lib'
p4
(dp5
sS'unicodes'
p6
(tsS'width'
p7
I1207
sS'contours'
p8
(tsS'components'
p9
(tsS'com.typemytype.robofont.layerData'
p10
(dp11
S'b'
(dp12
S'name'
p13
S'p'
sg4
(dp14
sg6
(tsg7
I1181
sg8
(tsg9
(tsg3
(tsssg13
S'p'
s."
LayerCount: 2
Fore
SplineSet
261 -375 m 0
 352 -375 404 -319 404 -213 c 2
 404 152 l 1
 463 46 573 -12 721 -12 c 0
 979 -12 1168 170 1168 498 c 0
 1168 810 996 1020 734 1020 c 0
 588 1020 469 967 403 841 c 1
 403 869 l 2
 403 954 352 1004 267 1004 c 0
 181 1004 126 939 126 834 c 2
 126 -213 l 2
 126 -319 175 -375 261 -375 c 0
655 171 m 0
 485 171 405 308 405 502 c 0
 405 712 470 837 658 837 c 0
 841 837 897 652 897 503 c 0
 897 328 830 171 655 171 c 0
EndSplineSet
EndChar

StartChar: paragraph
Encoding: 117 182 308
Width: 1306
VWidth: 0
GlyphClass: 2
Flags: HW
LayerCount: 2
Fore
SplineSet
611 -168 m 0
 680 -168 708 -103 708 -30 c 2
 708 1290 l 1
 904 1290 l 1
 904 -30 l 2
 904 -110 934 -168 1001 -168 c 0
 1061 -168 1098 -125 1098 -51 c 2
 1099 1277 l 2
 1099 1366 1088 1446 944 1446 c 2
 522 1445 l 2
 252 1444 105 1283 105 1080 c 0
 105 885 275 720 514 720 c 1
 514 -30 l 2
 514 -110 544 -168 611 -168 c 0
EndSplineSet
EndChar

StartChar: parenleft
Encoding: 8 40 309
Width: 666
VWidth: 0
GlyphClass: 2
Flags: HW
LayerCount: 2
Fore
SplineSet
454 -251 m 0
 514 -251 560 -206 560 -139 c 0
 560 -115 551 -88 543 -60 c 0
 465 168 422 388 422 610 c 0
 422 839 467 1069 547 1300 c 0
 555 1327 563 1354 563 1378 c 0
 563 1447 515 1491 456 1491 c 0
 397 1491 348 1429 319 1347 c 0
 223 1099 150 855 150 607 c 0
 150 346 230 91 342 -172 c 0
 366 -232 414 -251 454 -251 c 0
EndSplineSet
EndChar

StartChar: parenright
Encoding: 9 41 310
Width: 666
VWidth: 0
GlyphClass: 2
Flags: HW
LayerCount: 2
Fore
SplineSet
214 -252 m 0
 254 -252 305 -233 329 -172 c 0
 441 88 522 344 522 607 c 0
 522 851 449 1098 352 1347 c 0
 321 1429 275 1490 217 1490 c 0
 158 1490 109 1442 109 1379 c 0
 109 1352 117 1327 126 1300 c 0
 205 1068 250 837 250 612 c 0
 250 387 207 161 130 -61 c 0
 120 -89 112 -116 112 -141 c 0
 112 -206 155 -252 214 -252 c 0
EndSplineSet
EndChar

StartChar: partialdiff
Encoding: 466 8706 311
Width: 1269
VWidth: 0
GlyphClass: 2
Flags: HW
LayerCount: 2
Fore
SplineSet
561 -26 m 0
 939 -26 1169 326 1169 831 c 0
 1169 1362 905 1635 550 1635 c 0
 423 1635 320 1607 233 1577 c 0
 132 1542 94 1508 94 1453 c 0
 94 1401 135 1345 189 1345 c 0
 201 1345 212 1348 223 1353 c 0
 309 1388 414 1422 535 1422 c 0
 782 1422 912 1207 912 875 c 0
 912 857 911 835 910 824 c 1
 888 852 752 1011 561 1011 c 0
 279 1011 78 792 78 469 c 0
 78 248 227 -26 561 -26 c 0
584 182 m 2
 438 182 340 305 340 466 c 0
 340 652 458 808 617 808 c 0
 763 808 861 688 883 611 c 1
 861 405 755 182 586 182 c 2
 584 182 l 2
EndSplineSet
EndChar

StartChar: percent
Encoding: 5 37 312
Width: 2097
VWidth: 0
GlyphClass: 2
Flags: HW
LayerCount: 2
Fore
SplineSet
647 -64 m 0
 682 -64 706 -23 727 16 c 2
 1450 1320 l 1
 1463 1348 1480 1379 1480 1403 c 0
 1480 1441 1448 1473 1412 1473 c 0
 1387 1473 1363 1460 1346 1429 c 2
 602 82 l 2
 589 58 572 25 572 7 c 0
 572 -31 606 -64 647 -64 c 0
526 757 m 0
 414 757 372 853 372 1024 c 0
 372 1194 417 1290 526 1290 c 0
 637 1290 680 1194 680 1024 c 0
 680 853 637 757 526 757 c 0
526 601 m 0
 747 601 893 774 893 1024 c 0
 893 1212 809 1446 526 1446 c 0
 300 1446 160 1268 160 1024 c 0
 160 754 298 601 526 601 c 0
1570 123 m 0
 1456 123 1417 220 1417 389 c 0
 1417 559 1459 656 1570 656 c 0
 1684 656 1724 554 1724 389 c 0
 1724 211 1676 123 1570 123 c 0
1570 -34 m 0
 1798 -34 1937 145 1937 389 c 0
 1937 575 1855 812 1570 812 c 0
 1344 812 1204 634 1204 389 c 0
 1204 121 1341 -34 1570 -34 c 0
EndSplineSet
EndChar

StartChar: period
Encoding: 14 46 313
Width: 633
VWidth: 0
GlyphClass: 2
Flags: HW
LayerCount: 2
Fore
SplineSet
316 -5 m 0
 406 -5 470 65 470 146 c 0
 470 234 400 296 316 296 c 0
 225 296 162 225 162 146 c 0
 162 61 230 -5 316 -5 c 0
EndSplineSet
EndChar

StartChar: periodcentered
Encoding: 118 183 314
Width: 633
VWidth: 0
GlyphClass: 2
Flags: HW
LayerCount: 2
Fore
SplineSet
316 363 m 0
 409 363 474 435 474 518 c 0
 474 603 406 672 316 672 c 0
 224 672 159 600 159 518 c 0
 159 434 223 363 316 363 c 0
EndSplineSet
EndChar

StartChar: perthousand
Encoding: 456 8240 315
Width: 2334
VWidth: 0
GlyphClass: 2
Flags: HW
LayerCount: 2
Fore
SplineSet
392 -64 m 0
 426 -64 452 -23 473 16 c 2
 1195 1320 l 2
 1210 1347 1226 1379 1226 1403 c 0
 1226 1442 1194 1473 1157 1473 c 0
 1132 1473 1109 1460 1092 1429 c 2
 348 82 l 1
 336 58 318 27 318 7 c 0
 318 -29 353 -64 392 -64 c 0
366 771 m 0
 251 771 213 876 213 1037 c 0
 213 1190 249 1301 366 1301 c 0
 481 1301 518 1194 518 1037 c 0
 518 859 469 771 366 771 c 0
360 626 m 0
 593 626 701 809 701 1044 c 0
 701 1280 573 1446 372 1446 c 0
 140 1446 31 1263 31 1029 c 0
 31 787 161 626 360 626 c 0
1195 112 m 0
 1078 112 1044 218 1044 376 c 0
 1044 533 1081 641 1195 641 c 0
 1308 641 1347 537 1347 376 c 0
 1347 202 1302 112 1195 112 c 0
1189 -34 m 0
 1421 -34 1531 149 1531 384 c 0
 1531 626 1400 787 1202 787 c 0
 971 787 860 604 860 369 c 0
 860 127 989 -34 1189 -34 c 0
1947 112 m 0
 1831 112 1795 219 1795 376 c 0
 1795 548 1840 641 1947 641 c 0
 2061 641 2099 533 2099 376 c 0
 2099 200 2052 112 1947 112 c 0
1941 -34 m 0
 2171 -34 2282 149 2282 384 c 0
 2282 618 2157 787 1954 787 c 0
 1721 787 1612 604 1612 369 c 0
 1612 123 1745 -34 1941 -34 c 0
EndSplineSet
EndChar

StartChar: pi
Encoding: 417 960 316
Width: 1336
VWidth: 0
GlyphClass: 2
Flags: HW
PickledData: "(dp1
S'com.typemytype.robofont.layerData'
p2
(dp3
S'b'
(dp4
S'name'
p5
S'pi'
p6
sS'lib'
p7
(dp8
sS'unicodes'
p9
(tsS'width'
p10
I1285
sS'contours'
p11
(tsS'components'
p12
(tsS'anchors'
p13
(tsss."
LayerCount: 2
Fore
SplineSet
1037 -28 m 0
 1130.60735816 -14.6834720606 1159.3266933 15.2002106946 1159.3266933 72.2252826002 c 0
 1159.3266933 160.797655735 1090.04168707 314.848261829 1087 574 c 2
 1084 878 l 1
 1171 878 l 2
 1236 878 1275 922 1275 988 c 0
 1275 1056 1233 1091 1172 1091 c 2
 204 1091 l 2
 131 1091 94 1041 94 987 c 0
 94 919 140 878 212 878 c 2
 299 878 l 1
 299 553 202 275 138 107 c 0
 133.539415756 95.1348459121 131.482366378 83.7710914815 131.482366378 73.0301486303 c 0
 131.482366378 13.0542464815 195.62008142 -27.5027189993 263.571780156 -27.5027189993 c 0
 319.860138827 -27.5027189993 378.765567659 0.326562062295 406 68 c 0
 460 197 540 555 544 878 c 1
 837 878 l 1
 837 568 l 2
 837 129.696064515 860.381517286 -30.6276099019 1003.04272865 -30.6276099019 c 0
 1013.68479639 -30.6276099019 1024.99061749 -29.7354599 1037 -28 c 0
EndSplineSet
EndChar

StartChar: plus
Encoding: 11 43 317
Width: 1300
VWidth: 0
GlyphClass: 2
Flags: HW
LayerCount: 2
Fore
SplineSet
649 2 m 0
 722 2 744 68 744 121 c 2
 744 410 l 1
 1047 410 l 2
 1109 410 1165 439 1165 505 c 0
 1165 577 1099 599 1047 599 c 2
 744 599 l 1
 744 889 l 2
 744 951 715 1009 649 1009 c 0
 575 1009 554 941 554 889 c 2
 554 599 l 1
 253 599 l 2
 187 599 135 568 135 505 c 0
 135 431 199 410 253 410 c 2
 554 410 l 1
 554 121 l 2
 554 52 585 2 649 2 c 0
EndSplineSet
EndChar

StartChar: plusminus
Encoding: 112 177 318
Width: 1300
VWidth: 0
GlyphClass: 2
Flags: HW
LayerCount: 2
Fore
SplineSet
649 256 m 0
 696 256 744 289 744 349 c 2
 744 536 l 1
 1057 536 l 2
 1123 536 1163 573 1163 631 c 0
 1163 693 1119 724 1057 724 c 2
 744 724 l 1
 744 890 l 2
 744 965 708 1006 650 1006 c 0
 585 1006 555 953 555 890 c 2
 555 724 l 1
 250 724 l 2
 175 724 138 688 138 631 c 0
 138 568 181 536 244 536 c 2
 555 536 l 1
 555 372 l 2
 555 295 591 256 649 256 c 0
240 0 m 2
 1050 0 l 2
 1122 0 1163 34 1163 94 c 0
 1163 144 1131 188 1070 188 c 2
 251 188 l 2
 176 188 138 151 138 94 c 0
 138 33 178 0 240 0 c 2
EndSplineSet
EndChar

StartChar: product
Encoding: 469 8719 319
Width: 1589
VWidth: 0
GlyphClass: 2
Flags: HW
LayerCount: 2
Fore
SplineSet
428 0 m 0
 492 0 555 43 555 131 c 2
 555 1227 l 1
 1047 1227 l 1
 1047 127 l 2
 1047 42 1111 0 1176 0 c 0
 1241 0 1306 43 1306 127 c 2
 1307 1227 l 1
 1423 1227 l 2
 1486 1227 1517 1285 1517 1341 c 0
 1517 1399 1486 1456 1424 1456 c 2
 168 1456 l 2
 101 1456 69 1399 69 1342 c 0
 69 1285 101 1227 162 1227 c 2
 296 1227 l 1
 296 131 l 2
 296 45 362 0 428 0 c 0
EndSplineSet
EndChar

StartChar: q
Encoding: 81 113 320
Width: 1248
VWidth: 0
GlyphClass: 2
Flags: HW
PickledData: "(dp1
S'b'
(dp2
sS'anchors'
p3
(tsS'lib'
p4
(dp5
sS'unicodes'
p6
(tsS'width'
p7
I1207
sS'contours'
p8
(tsS'components'
p9
(tsS'com.typemytype.robofont.layerData'
p10
(dp11
S'b'
(dp12
S'name'
p13
S'p'
sg4
(dp14
sg6
(tsg7
I1181
sg8
(tsg9
(tsg3
(tsssg13
S'p'
s."
LayerCount: 2
Fore
SplineSet
987 -375 m 0
 1073 -375 1122 -319 1122 -213 c 2
 1122 834 l 2
 1122 939 1067 1004 981 1004 c 0
 896 1004 845 954 845 869 c 2
 845 841 l 1
 779 967 660 1020 514 1020 c 0
 252 1020 80 810 80 498 c 0
 80 170 269 -12 527 -12 c 0
 675 -12 785 46 844 152 c 1
 844 -213 l 2
 844 -319 896 -375 987 -375 c 0
593 170 m 0
 418 170 351 328 351 503 c 0
 351 652 407 842 590 842 c 0
 778 842 843 712 843 502 c 0
 843 308 763 170 593 170 c 0
EndSplineSet
EndChar

StartChar: question
Encoding: 31 63 321
Width: 1056
VWidth: 0
GlyphClass: 2
Flags: HW
LayerCount: 2
Fore
SplineSet
298 482 m 1
 301.41844103 406.305948617 363.504061916 370.438803884 425.792142587 370.438803884 c 0
 491.052427046 370.438803884 556.534953844 409.810564197 555 484 c 2
 554 538 l 2
 551 690 950 753 950 1085 c 0
 950 1362 739 1476 490 1476 c 0
 391 1476 280 1464 179 1435 c 0
 115 1416 87 1368 87 1322 c 0
 87 1253 130 1205 191 1205 c 0
 242 1205 332 1228 421 1228 c 0
 525 1228 624 1189 624 1060 c 0
 624 858.109305761 295.891806977 764.935057568 295.891806977 557.538158242 c 0
 295.891806977 555.371324965 295.927621861 553.192023634 296 551 c 2
 298 482 l 1
428 -49 m 0
 517 -49 582 20 582 103 c 0
 582 190 511 253 428 253 c 0
 334 253 274 181 274 103 c 0
 274 20 338 -49 428 -49 c 0
EndSplineSet
EndChar

StartChar: quotedbl
Encoding: 2 34 323
Width: 838
VWidth: 0
GlyphClass: 2
Flags: HW
LayerCount: 2
Fore
SplineSet
242 940 m 0
 283 940 316 969 323 1041 c 2
 355 1380 l 2
 355.129134775 1382.16300747 355.192608626 1384.28745218 355.192608626 1386.37356966 c 0
 355.192608626 1448.90575451 298.159829463 1477 243 1477 c 0
 185 1477 127 1442 130 1384 c 0
 130 1383 149 1169 163 1030 c 0
 169 965 206 940 242 940 c 0
588 940 m 0
 630 940 662 967 669 1041 c 2
 700 1380 l 2
 700.129203302 1382.13185448 700.192675974 1384.22719194 700.192675974 1386.28614719 c 0
 700.192675974 1447.97030753 643.223454602 1477 590 1477 c 0
 531 1477 474 1442 477 1384 c 0
 477 1383 495 1169 510 1030 c 0
 516 964 552 940 588 940 c 0
EndSplineSet
EndChar

StartChar: quotedblbase
Encoding: 451 8222 324
Width: 1170
VWidth: 0
GlyphClass: 2
Flags: HW
PickledData: "(dp1
S'b'
(dp2
sS'anchors'
p3
(tsS'lib'
p4
(dp5
sS'unicodes'
p6
(tsS'width'
p7
I1161
sS'contours'
p8
(tsS'components'
p9
(tsS'com.typemytype.robofont.layerData'
p10
(dp11
S'b'
(dp12
S'name'
p13
S'quotedblbase'
p14
sg4
(dp15
sg6
(tsg7
I1146
sg8
(tsg9
(tsg3
(tsssg13
S'quotedblbase'
p16
s."
LayerCount: 2
Fore
SplineSet
214 -289 m 2
 316 -289 l 2
 345 -289 361 -278 372 -246 c 2
 553 244 l 2
 554.488214952 248.167001866 555.799247204 254.725970174 555.799247204 261.91020911 c 0
 555.799247204 278.863071223 548.498994403 299.29764299 519 300 c 2
 347 300 l 1
 315 299 282 291 274 244 c 2
 190 -246 l 2
 189.483602221 -249.098386677 188.967204441 -253.396773354 188.967204441 -258.086136843 c 0
 188.967204441 -271.558600051 193.229568913 -288.25819889 214 -289 c 2
670 -289 m 2
 773 -289 l 2
 802 -289 817 -278 829 -246 c 2
 1010 244 l 2
 1011.48821495 248.167001866 1012.7992472 254.725970174 1012.7992472 261.91020911 c 0
 1012.7992472 278.863071223 1005.4989944 299.29764299 976 300 c 2
 803 300 l 1
 771 299 738 291 730 244 c 2
 646 -246 l 2
 645.483602221 -249.098386677 644.967204441 -253.396773354 644.967204441 -258.086136843 c 0
 644.967204441 -271.558600051 649.229568913 -288.25819889 670 -289 c 2
EndSplineSet
EndChar

StartChar: quotedblleft
Encoding: 449 8220 325
Width: 1170
VWidth: 0
GlyphClass: 2
Flags: HW
PickledData: "(dp1
S'b'
(dp2
sS'anchors'
p3
(tsS'lib'
p4
(dp5
sS'unicodes'
p6
(tsS'width'
p7
I1161
sS'contours'
p8
(tsS'components'
p9
(tsS'com.typemytype.robofont.layerData'
p10
(dp11
S'b'
(dp12
S'name'
p13
S'quotedblleft'
p14
sg4
(dp15
sg6
(tsg7
I1146
sg8
(tsg9
(tsg3
(tsssg13
S'quotedblleft'
p16
s."
LayerCount: 2
Fore
SplineSet
179 878 m 2
 352 878 l 1
 384 879 417 887 425 934 c 2
 509 1424 l 2
 511 1436 513 1467 485 1467 c 2
 382 1467 l 2
 353 1467 337 1456 326 1424 c 2
 145 934 l 2
 143.511785048 929.832998134 142.200752796 923.185438477 142.200752796 915.903122624 c 0
 142.200752796 898.718825496 149.501005597 878 179 878 c 2
641 878 m 2
 814 878 l 1
 846 879 879 887 887 934 c 2
 971 1424 l 2
 971.516397779 1427.09838668 972.032795559 1431.39677335 972.032795559 1436.08613684 c 0
 972.032795559 1449.55860005 967.770431087 1466.25819889 947 1467 c 2
 844 1467 l 2
 815 1467 799 1456 788 1424 c 2
 607 934 l 2
 605.511785048 929.832998134 604.200752796 923.185438477 604.200752796 915.903122624 c 0
 604.200752796 898.718825496 611.501005597 878 641 878 c 2
EndSplineSet
EndChar

StartChar: quotedblright
Encoding: 450 8221 326
Width: 1170
VWidth: 0
GlyphClass: 2
Flags: HW
PickledData: "(dp1
S'b'
(dp2
sS'anchors'
p3
(tsS'lib'
p4
(dp5
sS'unicodes'
p6
(tsS'width'
p7
I1161
sS'contours'
p8
(tsS'components'
p9
(tsS'com.typemytype.robofont.layerData'
p10
(dp11
S'b'
(dp12
S'name'
p13
S'quotedblright'
p14
sg4
(dp15
sg6
(tsg7
I1146
sg8
(tsg9
(tsg3
(tsssg13
S'quotedblright'
p16
s."
LayerCount: 2
Fore
SplineSet
210 878 m 2
 313 878 l 2
 342 878 357 889 369 921 c 2
 550 1411 l 2
 551.488214952 1415.16700187 552.799247204 1421.72597017 552.799247204 1428.91020911 c 0
 552.799247204 1445.86307122 545.498994403 1466.29764299 516 1467 c 2
 343 1467 l 1
 311 1466 278 1458 270 1411 c 2
 186 921 l 2
 185.483602221 917.901613323 184.967204441 913.603226646 184.967204441 908.913863157 c 0
 184.967204441 895.441399949 189.229568913 878.74180111 210 878 c 2
666 878 m 2
 769 878 l 2
 798 878 813 889 825 921 c 2
 1006 1411 l 2
 1007.48821495 1415.16700187 1008.7992472 1421.72597017 1008.7992472 1428.91020911 c 0
 1008.7992472 1445.86307122 1001.4989944 1466.29764299 972 1467 c 2
 799 1467 l 1
 767 1466 734 1458 726 1411 c 2
 642 921 l 2
 641.483602221 917.901613323 640.967204441 913.536559979 640.967204441 908.765502935 c 0
 640.967204441 895.058335502 645.229568913 878 666 878 c 2
EndSplineSet
EndChar

StartChar: quoteleft
Encoding: 446 8216 327
Width: 633
VWidth: 0
GlyphClass: 2
Flags: HW
PickledData: "(dp1
S'b'
(dp2
sS'anchors'
p3
(tsS'lib'
p4
(dp5
sS'unicodes'
p6
(tsS'width'
p7
I615
sS'contours'
p8
(tsS'components'
p9
(tsS'com.typemytype.robofont.layerData'
p10
(dp11
S'b'
(dp12
S'name'
p13
S'quoteleft'
p14
sg4
(dp15
sg6
(tsg7
I584
sg8
(tsg9
(tsg3
(tsssg13
S'quoteleft'
p16
s."
LayerCount: 2
Fore
SplineSet
144 878 m 2
 317 878 l 1
 349 879 382 887 390 934 c 2
 474 1424 l 2
 474.516397779 1427.09838668 475.032795559 1431.39677335 475.032795559 1436.08613684 c 0
 475.032795559 1449.55860005 470.770431087 1466.25819889 450 1467 c 2
 347 1467 l 2
 318 1467 303 1456 291 1424 c 2
 110 934 l 2
 108.511785048 929.832998134 107.200752796 923.185438477 107.200752796 915.903122624 c 0
 107.200752796 898.718825496 114.501005597 878 144 878 c 2
EndSplineSet
EndChar

StartChar: quoteright
Encoding: 447 8217 328
Width: 633
VWidth: 0
GlyphClass: 2
Flags: HW
PickledData: "(dp1
S'b'
(dp2
sS'anchors'
p3
(tsS'lib'
p4
(dp5
sS'unicodes'
p6
(tsS'width'
p7
I615
sS'contours'
p8
(tsS'components'
p9
(tsS'com.typemytype.robofont.layerData'
p10
(dp11
S'b'
(dp12
S'name'
p13
S'quoteright'
p14
sg4
(dp15
sg6
(tsg7
I584
sg8
(tsg9
(tsg3
(tsssg13
S'quoteright'
p16
s."
LayerCount: 2
Fore
SplineSet
162 878 m 2
 265 878 l 2
 294 878 309 889 321 921 c 2
 502 1411 l 2
 503.488214952 1415.16700187 504.799247204 1421.81456152 504.799247204 1429.09687738 c 0
 504.799247204 1446.2811745 497.498994403 1467 468 1467 c 2
 295 1467 l 1
 263 1466 230 1458 222 1411 c 2
 138 921 l 2
 137.483602221 917.901613323 136.967204441 913.603226646 136.967204441 908.913863157 c 0
 136.967204441 895.441399949 141.229568913 878.74180111 162 878 c 2
EndSplineSet
EndChar

StartChar: quotesinglbase
Encoding: 448 8218 329
Width: 633
VWidth: 0
GlyphClass: 2
Flags: HW
PickledData: "(dp1
S'com.typemytype.robofont.layerData'
p2
(dp3
S'b'
(dp4
S'name'
p5
S'quotesinglbase'
p6
sS'lib'
p7
(dp8
sS'unicodes'
p9
(tsS'width'
p10
I615
sS'contours'
p11
(tsS'components'
p12
(tsS'anchors'
p13
(tsss."
LayerCount: 2
Fore
SplineSet
162 -311 m 2
 264 -311 l 2
 293 -311 309 -300 320 -268 c 2
 501 222 l 2
 502.488214952 226.167001866 503.799247204 232.814561523 503.799247204 240.096877376 c 0
 503.799247204 257.281174504 496.498994403 278 467 278 c 2
 295 278 l 1
 263 277 230 269 222 222 c 2
 138 -268 l 2
 137.483602221 -271.098386677 136.967204441 -275.396773354 136.967204441 -280.086136843 c 0
 136.967204441 -293.558600051 141.229568913 -310.25819889 162 -311 c 2
EndSplineSet
EndChar

StartChar: quotesingle
Encoding: 7 39 330
Width: 633
VWidth: 0
GlyphClass: 2
Flags: HW
LayerCount: 2
Fore
SplineSet
310 922 m 0
 351 922 386 942 394 1005 c 1
 427 1385 l 1
 430 1450 373 1477 316 1477 c 0
 257 1477 200 1446 203 1388 c 0
 203 1386 219 1143 234 1004 c 0
 239 944 269 922 310 922 c 0
EndSplineSet
EndChar

StartChar: r
Encoding: 82 114 331
Width: 795
VWidth: 0
GlyphClass: 2
Flags: HW
PickledData: "(dp1
S'b'
(dp2
sS'anchors'
p3
(tsS'lib'
p4
(dp5
sS'unicodes'
p6
(tsS'width'
p7
I763
sS'contours'
p8
(tsS'components'
p9
(tsS'com.typemytype.robofont.layerData'
p10
(dp11
S'b'
(dp12
S'name'
p13
S'r'
sg4
(dp14
sg6
(tsg7
I715
sg8
(tsg9
(tsg3
(tsssg13
S'r'
s."
AnchorPoint: "top" 368 1001 basechar 0
AnchorPoint: "bot" 265 0 basechar 0
LayerCount: 2
Fore
SplineSet
265 0 m 0
 355 0 405 53 405 158 c 2
 405 555 l 2
 405 735 540 784 676 784 c 0
 740.685007291 784 776.512045282 842.482079378 776.512045282 900.338211087 c 0
 776.512045282 956.968962335 742.186553842 1013 667 1013 c 0
 535 1013 438 901 404 795 c 1
 405 875 l 2
 406.007202593 959.605017784 335.495182267 1003.63175306 265.242844825 1003.63175306 c 0
 195.99526844 1003.63175306 127 960.855367956 127 872 c 2
 127 163 l 2
 127 56 179 0 265 0 c 0
EndSplineSet
EndChar

StartChar: radical
Encoding: 474 8730 333
Width: 1410
VWidth: 0
GlyphClass: 2
Flags: HW
LayerCount: 2
Fore
SplineSet
279.949136035 648.325324567 m 0
 196.646568236 648.325324567 131.462170345 580.556504811 131.462170345 499.986044193 c 0
 131.462170345 466.617821663 138.502681402 441.120754448 155 415 c 2
 357 102 l 1
 444 -30 485 -91 605 -91 c 0
 744 -91 809 14 882 228 c 1
 1303 1372 l 1
 1311 1399 1315 1424 1315 1447 c 0
 1315 1537 1247 1590 1176 1590 c 0
 1121 1590 1049 1549 1017 1455 c 1
 592 280 l 1
 587 279 l 1
 429 543 l 1
 386.817526656 617.895411856 333.518678526 648.325324567 279.949136035 648.325324567 c 0
EndSplineSet
EndChar

StartChar: registered
Encoding: 109 174 336
Width: 1719
VWidth: 0
GlyphClass: 2
Flags: HW
LayerCount: 2
Fore
SplineSet
660 374 m 0
 707 374 733 412 733 462 c 2
 733 705 l 1
 852 705 l 1
 1030 406 l 2
 1043.58126862 381.995897315 1065.24286145 371.758272904 1086.95033442 371.758272904 c 0
 1122.75542418 371.758272904 1158.68533727 399.611158043 1158.68533727 439.481122525 c 0
 1158.68533727 451.970472587 1155.15964709 465.639021122 1147 480 c 1
 993 709 l 1
 1121 727 1210 780 1210 918 c 0
 1210 1086 1112 1139 894 1139 c 2
 677 1139 l 2
 618 1139 590 1103 590 1041 c 2
 590 442 l 2
 590 395 624 374 660 374 c 0
733 822 m 1
 733 1021 l 1
 901 1021 l 2
 998 1021 1064 1001 1064 928 c 0
 1064 835 996 821 902 821 c 0
 879.6 821 802.8 822.28 758.64 822.28 c 0
 747.6 822.28 738.6 822.2 733 822 c 1
862 192 m 0
 529 192 287 441 287 753 c 0
 287 1076 539 1314 862 1314 c 0
 1196 1314 1436 1064 1436 753 c 0
 1436 430 1185 192 862 192 c 0
862 58 m 0
 1267 58 1591 377 1591 753 c 0
 1591 1147 1255 1455 862 1455 c 0
 455 1455 132 1132 132 753 c 0
 132 370 463 58 862 58 c 0
EndSplineSet
EndChar

StartChar: ring
Encoding: 403 730 337
Width: 569
VWidth: 0
GlyphClass: 4
Flags: HW
AnchorPoint: "top" 285 1040 mark 0
LayerCount: 2
Fore
SplineSet
279 1296 m 0
 220 1296 177 1337 177 1395 c 0
 177 1453 220 1494 279 1494 c 0
 339 1494 381 1453 381 1395 c 0
 381 1337 339 1296 279 1296 c 0
279 1180 m 0
 406 1180 496 1269 496 1395 c 0
 496 1521 406 1609 279 1609 c 0
 152 1609 62 1521 62 1395 c 0
 62 1269 152 1180 279 1180 c 0
EndSplineSet
EndChar

StartChar: s
Encoding: 83 115 338
Width: 999
VWidth: 0
GlyphClass: 2
Flags: HW
PickledData: "(dp1
S'b'
(dp2
sS'anchors'
p3
(tsS'lib'
p4
(dp5
sS'unicodes'
p6
(tsS'width'
p7
F1006.76
sS'contours'
p8
(tsS'components'
p9
(tsS'com.typemytype.robofont.layerData'
p10
(dp11
S'b'
(dp12
S'name'
p13
S's'
sg4
(dp14
sg6
(tsg7
I1007
sg8
(tsg9
(tsg3
(tsssg13
S's'
s."
AnchorPoint: "top" 515 1005 basechar 0
AnchorPoint: "bot" 504 0 basechar 0
LayerCount: 2
Fore
SplineSet
130 104 m 0
 214.94139752 43.919499315 345.302375985 -14.4068186218 530.923654963 -14.4068186218 c 0
 762.003054532 -14.4068186218 938.137557901 92.2334884 938.137557901 304.654601684 c 0
 938.137557901 480.843438341 826.342440657 556.152161394 618 609 c 2
 470 646 l 1
 373 669 340 692 340 751 c 0
 340 819.394721324 429.154272771 842.028842464 509.350482979 842.028842464 c 0
 614.738499238 842.028842464 712.545244393 804.507472886 757 789 c 0
 772.031703298 783.409697121 785.967675472 780.905960788 798.641119718 780.905960788 c 0
 849.020869169 780.905960788 879.449663875 820.470970909 879.449663875 862.988768765 c 0
 879.449663875 895.871983261 861.248810323 930.521395125 820 950 c 0
 750.667433009 982.499640777 641.908282861 1023.94213445 495.444644653 1023.94213445 c 0
 255.796332005 1023.94213445 89.9959656221 922.252195534 89.9959656221 736.587921588 c 0
 89.9959656221 540.035280406 209.016294399 494.273251556 426 434 c 1
 575 395 l 2
 663.911489486 371.761769794 705.024670047 333.063508177 705.024670047 286.495600743 c 0
 705.024670047 192.126088965 598.927809313 166.749757158 505.240241343 166.749757158 c 0
 371.751466664 166.749757158 287.209664408 220.338108154 233 250 c 0
 213.890245114 260.484998256 195.781460986 265.021370291 179.307227405 265.021370291 c 0
 127.663606072 265.021370291 92.082786251 220.442238916 92.082786251 174.78978797 c 0
 92.082786251 148.890863577 103.533991767 122.6465058 130 104 c 0
EndSplineSet
EndChar

StartChar: section
Encoding: 102 167 344
Width: 1266
VWidth: 0
GlyphClass: 2
Flags: HW
LayerCount: 2
Fore
SplineSet
591 -34 m 0
 856 -34 1026 77 1026 273 c 0
 1026 395 946 472 832 517 c 1
 964 569 1055 664 1055 791 c 0
 1055 1092 544 1069 544 1225 c 0
 544 1310 640 1333 719 1333 c 0
 775 1333 865 1312 918 1306 c 0
 920.437817798 1305.7097836 922.889111685 1305.56780418 925.344104206 1305.56780418 c 0
 965.185006809 1305.56780418 1006 1342.96020733 1006 1391 c 0
 1006 1427 985 1464 936 1476 c 0
 843 1497 768 1513 670 1513 c 0
 400 1513 243 1420 243 1221 c 0
 243 1105 366 1016 428 982 c 1
 299 944 202 834 202 723 c 0
 202 402 735 454 735 288 c 0
 735 187 643 146 532 146 c 0
 448 146 362 172 297 181 c 0
 293.58655948 181.468511444 290.186557917 181.695121652 286.813487395 181.695121652 c 0
 239.789723518 181.695121652 198 137.653489686 198 91 c 1
 198 56 218 26 268 11 c 0
 346 -12 475 -34 591 -34 c 0
653 599 m 1
 549 644 454 676 454 757 c 0
 454 826 513 868 594 917 c 1
 702 873 812 842 812 760 c 0
 812 689 735 644 653 599 c 1
EndSplineSet
EndChar

StartChar: semicolon
Encoding: 27 59 345
Width: 633
VWidth: 0
GlyphClass: 2
Flags: HW
LayerCount: 2
Fore
SplineSet
350 754 m 0
 442 754 505 823 505 906 c 0
 505 991 435 1055 350 1055 c 0
 258 1055 196 983 196 906 c 0
 196 816 265 754 350 754 c 0
EndSplineSet
Refer: 177 44 N 1 0 0 1 18 95 2
EndChar

StartChar: seven
Encoding: 23 55 346
Width: 1258
VWidth: 0
GlyphClass: 2
Flags: HW
PickledData: "(dp1
S'com.typemytype.robofont.layerData'
p2
(dp3
S'b'
(dp4
S'name'
p5
S'seven'
p6
sS'lib'
p7
(dp8
sS'unicodes'
p9
(tsS'width'
p10
I1160
sS'contours'
p11
(tsS'components'
p12
(tsS'anchors'
p13
(tsss."
LayerCount: 2
Fore
SplineSet
500 0 m 0
 554 0 606 29 636 91 c 1
 1091 1115 l 1
 1120 1186 1144 1259 1144 1314 c 0
 1144 1412 1075 1446 958 1446 c 2
 233 1446 l 2
 139 1446 98 1393 98 1321 c 0
 98 1245 146 1199 232 1199 c 2
 804 1199 l 1
 379 264 l 2
 361.506736563 223.182385315 344.957961601 181.420282155 344.957961601 145.138984957 c 0
 344.957961601 59.8817888354 418.976013352 0 500 0 c 0
EndSplineSet
EndChar

StartChar: six
Encoding: 22 54 347
Width: 1258
VWidth: 0
GlyphClass: 2
Flags: HW
PickledData: "(dp1
S'com.typemytype.robofont.layerData'
p2
(dp3
S'b'
(dp4
S'name'
p5
S'nine'
p6
sS'lib'
p7
(dp8
sS'unicodes'
p9
(tsS'width'
p10
I1160
sS'contours'
p11
(tsS'components'
p12
(tsS'anchors'
p13
(tsss."
LayerCount: 2
Fore
SplineSet
654 -22 m 0
 982 -22 1184 184 1184 469 c 0
 1184 752 964 925 709 925 c 0
 518 925 420 844 386 783 c 1
 386 1055 459 1247 723 1247 c 0
 798 1247 879 1227 964 1198 c 0
 973.335926154 1194.88802462 982.349933501 1193.44600304 990.973916983 1193.44600304 c 0
 1050.47525338 1193.44600304 1091.41014338 1262.09107503 1091.41014338 1324.51908925 c 0
 1091.41014338 1363.52913709 1075.42606677 1400.11157543 1038 1416 c 1
 940 1462 826 1486 724 1486 c 0
 222 1486 78 1105 78 658 c 0
 78 272 238 -22 654 -22 c 0
660.533391794 729.007356361 m 0
 815.39798468 729.007356361 891 618.851884993 891 460 c 0
 891 290 797 201 644 201 c 0
 500 201 406 298 406 455 c 0
 406 628.146463624 494.128983684 729.007356361 660.533391794 729.007356361 c 0
EndSplineSet
EndChar

StartChar: slash
Encoding: 15 47 348
Width: 779
VWidth: 0
GlyphClass: 2
Flags: HW
LayerCount: 2
Fore
SplineSet
157 -122 m 0
 192 -122 228 -105 244 -58 c 2
 704 1302 l 2
 711 1324 718 1349 718 1369 c 0
 718 1430 671 1461 623 1461 c 0
 576 1461 542 1419 524 1362 c 1
 76 36 l 1
 69 12 61 -14 61 -34 c 0
 61 -91 111 -122 157 -122 c 0
EndSplineSet
EndChar

StartChar: slashbar
Encoding: 65541 -1 349
Width: 600
VWidth: 0
GlyphClass: 2
Flags: HW
LayerCount: 2
Fore
SplineSet
71 577 m 2
 751 808 l 2
 795.068523333 822.812949019 813.217650612 855.454054054 813.217650612 888.909981515 c 0
 813.217650612 937.454989559 775.005739973 987.715557874 722.32026996 987.715557874 c 0
 713.267371518 987.715557874 703.787137622 986.231602045 694 983 c 2
 17 760 l 2
 -29.5763254438 744.602867622 -49.1857466655 708.313792962 -49.1857466655 671.665286719 c 0
 -49.1857466655 622.057056061 -13.2555416779 571.790241435 40.3566004675 571.790241435 c 0
 50.0310324626 571.790241435 60.281241672 573.427080557 71 577 c 2
EndSplineSet
EndChar

StartChar: sterling
Encoding: 98 163 351
Width: 1390
VWidth: 0
GlyphClass: 2
Flags: HW
PickledData: "(dp1
S'com.typemytype.robofont.layerData'
p2
(dp3
S'b'
(dp4
S'name'
p5
S'sterling'
p6
sS'lib'
p7
(dp8
sS'unicodes'
p9
(tsS'width'
p10
I1361
sS'contours'
p11
(tsS'components'
p12
(tsS'anchors'
p13
(tsss."
LayerCount: 2
Fore
SplineSet
232 -1 m 2
 1111 -1 l 2
 1156 -1 1178.5 59 1178.5 119 c 0
 1178.5 179 1156 239 1111 239 c 2
 580 239 l 1
 580 689 l 1
 877 689 l 2
 925.831000946 689 946.002546923 734.634670604 946.002546923 783.050422515 c 0
 946.002546923 837.750275469 920.254864712 896 881 896 c 2
 580 896 l 1
 580 974 l 2
 580 1170 596 1247 766 1247 c 0
 849 1247 960 1230 1041 1211 c 0
 1043.44188455 1210.45330943 1045.83329318 1210.18954967 1048.17277354 1210.18954967 c 0
 1090.27592965 1210.18954967 1115.56030996 1295.61731162 1115.56030996 1354.72685589 c 0
 1115.56030996 1382.45096602 1109.99803667 1404.38537051 1098 1409 c 0
 1032 1434 879 1471 743 1471 c 0
 445 1471 291 1318 291 1047 c 2
 291 896 l 1
 195 896 l 2
 154.136741772 896 136.658266545 850.333489798 136.658266545 801.898915343 c 0
 136.658266545 747.21376415 158.939098385 689 195 689 c 2
 291 689 l 1
 291 235 l 1
 231 235 l 2
 190.624234298 235 170.374424843 176.361411427 170.374424843 117.542948191 c 0
 170.374424843 58.3625217648 190.874231945 -1 232 -1 c 2
EndSplineSet
EndChar

StartChar: summation
Encoding: 470 8721 352
Width: 1251
VWidth: 0
GlyphClass: 2
Flags: HW
LayerCount: 2
Fore
SplineSet
132 -201 m 2
 1194 -201 l 2
 1276 -201 1313 -153 1313 -86 c 0
 1313 -3 1254 29 1177 29 c 2
 391 29 l 1
 894 655 l 1
 435 1237 l 1
 1137 1237 l 2
 1221 1237 1271 1275 1271 1346 c 0
 1271 1415 1228 1455 1154 1455 c 2
 178 1455 l 2
 87 1455 51 1422 51 1368 c 0
 51 1331 73 1283 99 1250 c 2
 595 623 l 1
 75 -16 l 2
 51 -47 28 -88 28 -124 c 0
 28 -163 58 -201 132 -201 c 2
EndSplineSet
EndChar

StartChar: t
Encoding: 84 116 353
Width: 804
VWidth: 0
GlyphClass: 2
Flags: HW
PickledData: "(dp1
S'b'
(dp2
sS'anchors'
p3
(tsS'lib'
p4
(dp5
sS'unicodes'
p6
(tsS'width'
p7
I768
sS'contours'
p8
(tsS'components'
p9
(tsS'com.typemytype.robofont.layerData'
p10
(dp11
S'b'
(dp12
S'name'
p13
S't'
sg4
(dp14
sg6
(tsg7
I706
sg8
((dp15
S'points'
p16
((dp17
S'segmentType'
p18
S'curve'
p19
sS'x'
I317
sS'smooth'
p20
I1
sS'y'
I0
s(dp21
S'y'
I0
sS'x'
I358
sg20
I0
s(dp22
S'y'
I27
sS'x'
I398
sg20
I0
s(dp23
g18
S'curve'
p24
sS'x'
I398
sg20
I1
sS'y'
I79
s(dp25
g18
S'line'
p26
sS'x'
I398
sg20
I0
sS'y'
I876
s(dp27
g18
S'line'
p28
sS'x'
I578
sg20
I1
sS'y'
I876
s(dp29
S'y'
I876
sS'x'
I621
sg20
I0
s(dp30
S'y'
I897
sS'x'
I634
sg20
I0
s(dp31
g18
S'curve'
p32
sS'x'
I634
sg20
I1
sS'y'
I928
s(dp33
S'y'
I957
sS'x'
I634
sg20
I0
s(dp34
S'y'
I981
sS'x'
I621
sg20
I0
s(dp35
g18
S'curve'
p36
sS'x'
I578
sg20
I1
sS'y'
I981
s(dp37
g18
S'line'
p38
sS'x'
I398
sg20
I0
sS'y'
I981
s(dp39
g18
S'line'
p40
sS'x'
I398
sg20
I1
sS'y'
I1053
s(dp41
S'y'
I1285
sS'x'
I398
sg20
I0
s(dp42
S'y'
I1318
sS'x'
I432
sg20
I0
s(dp43
g18
S'curve'
p44
sS'x'
I544
sg20
I1
sS'y'
I1318
s(dp45
g18
S'line'
p46
sS'x'
I629
sg20
I1
sS'y'
I1318
s(dp47
S'y'
I1318
sS'x'
I706
sg20
I0
s(dp48
S'y'
I1438
sS'x'
I703
sg20
I0
s(dp49
g18
S'curve'
p50
sS'x'
I630
sg20
I1
sS'y'
I1438
s(dp51
g18
S'line'
p52
sS'x'
I510
sg20
I1
sS'y'
I1438
s(dp53
S'y'
I1438
sS'x'
I357
sg20
I0
s(dp54
S'y'
I1371
sS'x'
I238
sg20
I0
s(dp55
g18
S'curve'
p56
sS'x'
I238
sg20
I1
sS'y'
I1112
s(dp57
g18
S'line'
p58
sS'x'
I238
sg20
I0
sS'y'
I981
s(dp59
g18
S'line'
p60
sS'x'
I98
sg20
I1
sS'y'
I981
s(dp61
S'y'
I981
sS'x'
I55
sg20
I0
s(dp62
S'y'
I957
sS'x'
I39
sg20
I0
s(dp63
g18
S'curve'
p64
sS'x'
I39
sg20
I1
sS'y'
I928
s(dp65
S'y'
I899
sS'x'
I39
sg20
I0
s(dp66
S'y'
I876
sS'x'
I55
sg20
I0
s(dp67
g18
S'curve'
p68
sS'x'
I98
sg20
I1
sS'y'
I876
s(dp69
g18
S'line'
p70
sS'x'
I238
sg20
I0
sS'y'
I876
s(dp71
g18
S'line'
p72
sS'x'
I238
sg20
I1
sS'y'
I79
s(dp73
S'y'
I26
sS'x'
I238
sg20
I0
s(dp74
S'y'
I0
sS'x'
I278
sg20
I0
stp75
stp76
sg9
(tsg3
(tsssg13
S't'
s."
AnchorPoint: "caron.alt" 362 1262 basechar 0
AnchorPoint: "bot" 482 2 basechar 0
LayerCount: 2
Fore
SplineSet
501 -10 m 0
 507.942374168 -10 514.861009085 -10.0077494699 521.740584776 -10.0077494699 c 0
 651.037238737 -10.0077494699 766.537203029 -7.27044402648 766.537203029 101.095522548 c 0
 766.537203029 149.616945382 736.572600517 198.21017013 681.357819951 198.21017013 c 0
 679.274412482 198.21017013 677.155054742 198.14098489 675 198 c 2
 609 195 l 2
 604.836943966 194.750216638 600.798671387 194.625216732 596.882007662 194.625216732 c 0
 506.71721552 194.625216732 481 260.869909008 481 396 c 2
 481 817 l 1
 623 817 l 2
 690 817 720 851 720 908 c 0
 720 968 688 1002 626 1002 c 2
 481 1002 l 1
 481 1232 l 2
 481 1330 444 1377 375 1377 c 0
 281 1377 248 1305 240 1233 c 2
 213 1002 l 1
 116 1002 l 2
 49 1002 21 965 21 913 c 0
 21 851 55 817 119 817 c 2
 202 817 l 1
 202 331 l 2
 202 96 319 -9 501 -10 c 0
EndSplineSet
EndChar

StartChar: thorn
Encoding: 189 254 358
Width: 1234
VWidth: 0
GlyphClass: 2
Flags: HW
LayerCount: 2
Fore
SplineSet
254 -340 m 0
 320 -340 395 -295 395 -206 c 2
 395 192 l 1
 478 47 606 -20 749 -20 c 0
 1008 -20 1156 220 1156 510 c 0
 1156 824 996 1028 743 1028 c 0
 604 1028 466 961 399 830 c 1
 399 1220 l 2
 399 1351 352 1442 256 1442 c 0
 155 1442 120 1360 120 1266 c 2
 120 -176 l 2
 120 -283 168 -340 254 -340 c 0
649 158 m 0
 454 158 399 295 399 514 c 0
 399 704 459 847 640 847 c 0
 820 847 871 686 871 510 c 0
 871 339 830 158 649 158 c 0
EndSplineSet
EndChar

StartChar: three
Encoding: 19 51 359
Width: 1258
VWidth: 0
GlyphClass: 2
Flags: HW
PickledData: "(dp1
S'com.typemytype.robofont.layerData'
p2
(dp3
S'b'
(dp4
S'name'
p5
S'three'
p6
sS'lib'
p7
(dp8
sS'unicodes'
p9
(tsS'width'
p10
I1160
sS'contours'
p11
(tsS'components'
p12
(tsS'anchors'
p13
(tsss."
LayerCount: 2
Fore
SplineSet
604 -21 m 0
 900 -21 1139 106 1139 395 c 0
 1139 580 1039 722 860 761 c 1
 1018 801 1109 917 1109 1082 c 0
 1109 1324 901 1476 594 1476 c 0
 442 1476 305 1436 228 1393 c 0
 186.620932141 1369.97455095 169.851790386 1333.14081757 169.851790386 1295.98792175 c 0
 169.851790386 1233.44349345 217.374670228 1169.99457531 275.013903509 1169.99457531 c 0
 285.739325021 1169.99457531 296.81502734 1172.19150708 308 1177 c 0
 389.018176096 1212.14041373 493.856735621 1232.03578206 562.991544967 1232.03578206 c 0
 564.68268422 1232.03578206 566.352459646 1232.0238774 568 1232 c 0
 687 1232 801 1176 801 1048 c 0
 801 911 682 847 537 847 c 2
 460 847 l 2
 396 847 365 794 365 742 c 0
 365 689 396 639 460 639 c 2
 539 639 l 2
 708 639 824 554 824 413 c 0
 824 274 718 222 573 222 c 0
 462 222 370 267 312 291 c 0
 302.554717421 295.114776569 293.153162596 297.008183253 283.97771905 297.008183253 c 0
 229.286337517 297.008183253 182.628476022 229.737233538 182.628476022 164.649867398 c 0
 182.628476022 123.892161699 200.924254475 83.9906967277 247 62 c 0
 340 18 455 -21 604 -21 c 0
EndSplineSet
EndChar

StartChar: threequarters
Encoding: 125 190 360
Width: 1792
VWidth: 0
GlyphClass: 2
Flags: HW
PickledData: "(dp1
S'com.typemytype.robofont.layerData'
p2
(dp3
S'b'
(dp4
S'name'
p5
S'threequarters'
p6
sS'lib'
p7
(dp8
sS'unicodes'
p9
(tsS'width'
p10
I1603
sS'contours'
p11
(tsS'components'
p12
(tsS'anchors'
p13
(tsss."
LayerCount: 2
Fore
SplineSet
335 582 m 0
 511 582 627 674 627 813 c 0
 627 925 562 1004 456 1027 c 1
 502 1081 608 1117 608 1214 c 0
 608 1361 489 1451 333 1451 c 0
 253 1451 81 1422 81 1349 c 0
 81 1316 105 1290 142 1290 c 0
 160 1290 253 1320 324 1320 c 0
 400 1320 466 1282 466 1210 c 0
 466 1128 398 1083 312 1082 c 1
 264 1082 l 2
 229 1082 211 1058 211 1022 c 0
 211 990 227 963 266 963 c 2
 314 963 l 2
 415 963 478 901 478 824 c 0
 478 744 418 711 332 711 c 0
 256 711 180 747 150 747 c 0
 105 747 85 716 85 686 c 0
 85 619 246 582 335 582 c 0
1465 0 m 0
 1512 0 1538 42 1538 98 c 2
 1538 178 l 1
 1593 178 l 2
 1635 178 1658 199 1658 231 c 0
 1658 265 1633 284 1587 284 c 2
 1538 284 l 1
 1538 681 l 2
 1538 784 1504 836 1432 836 c 0
 1370 836 1326 811 1287 734 c 1
 1008 285 l 2
 999 271 995 256 995 241 c 0
 995 194 1036 178 1089 178 c 2
 1393 178 l 1
 1393 106 l 2
 1393 41 1418 0 1465 0 c 0
657 -69 m 0
 689 -69 721 -52 735 -9 c 2
 1185 1300 l 1
 1192 1324 1203 1356 1203 1378 c 0
 1203 1432 1164 1463 1116 1463 c 0
 1073 1463 1044 1422 1028 1371 c 1
 585 78 l 2
 578 56 571 33 571 13 c 0
 571 -36 613 -69 657 -69 c 0
1142 280 m 1
 1393 699 l 1
 1393 280 l 1
 1142 280 l 1
EndSplineSet
EndChar

StartChar: uni00B3
Encoding: 114 179 361
Width: 835
VWidth: 0
GlyphClass: 2
Flags: HW
PickledData: "(dp1
S'com.typemytype.robofont.layerData'
p2
(dp3
S'b'
(dp4
S'name'
p5
S'threesuperior'
p6
sS'lib'
p7
(dp8
sS'unicodes'
p9
(tsS'width'
p10
I818
sS'contours'
p11
(tsS'components'
p12
(tsS'anchors'
p13
(tsss."
LayerCount: 2
Fore
SplineSet
412 577 m 0
 586 577 705 667 705 808 c 0
 705 920 645 994 539 1023 c 1
 629 1053 685 1112 685 1209 c 0
 685 1359 571 1446 415 1446 c 0
 335 1446 158 1416 158 1344 c 0
 158 1313 181 1285 219 1285 c 0
 238 1285 324 1318 403 1318 c 0
 479 1318 542 1278 542 1205 c 0
 542 1124 475 1078 389 1078 c 2
 343 1078 l 2
 306 1078 287 1047 287 1016 c 0
 287 986 307 957 345 957 c 2
 391 957 l 2
 491 957 555 897 555 820 c 0
 555 741 494 706 410 706 c 0
 330 706 257 744 226 744 c 0
 182 744 161 710 161 680 c 0
 161 613 326 577 412 577 c 0
EndSplineSet
EndChar

StartChar: tilde
Encoding: 405 732 362
Width: 569
VWidth: 0
GlyphClass: 4
Flags: HW
AnchorPoint: "top" 293 1040 mark 0
LayerCount: 2
Fore
SplineSet
3 1206 m 0
 31 1206 57 1215 75 1247 c 0
 93 1279 114 1306 147 1306 c 0
 217 1306 314 1206 424 1206 c 0
 526.315907454 1206 617.026935637 1281.68215401 617.026935637 1410.82602003 c 0
 617.026935637 1443.82122011 590.477776695 1466.0180077 562 1467 c 0
 556 1471 549 1474 541 1474 c 0
 469 1457 473 1374 423 1374 c 0
 354 1374 256 1472 137 1472 c 0
 22 1472 -41 1398 -59 1277 c 0
 -60 1273 -61 1270 -61 1265 c 0
 -61 1226 -32 1206 3 1206 c 0
EndSplineSet
EndChar

StartChar: trademark
Encoding: 463 8482 363
Width: 1977
VWidth: 0
GlyphClass: 2
Flags: HW
LayerCount: 2
Fore
SplineSet
932 647 m 0
 988 647 1019 693 1019 759 c 2
 1019 1187 l 1
 1216 728 l 1
 1235 680 1261 653 1302 653 c 0
 1348 653 1377 690 1396 739 c 1
 1589 1187 l 1
 1589 759 l 2
 1589 688 1620 647 1675 647 c 0
 1731 647 1761 694 1761 758 c 2
 1761 1250 l 2
 1761 1359 1705 1411 1629 1411 c 0
 1562 1411 1513 1359 1484 1287 c 1
 1304 878 l 1
 1125 1287 l 1
 1094 1366 1041 1412 981 1412 c 0
 885 1412 846 1332 846 1238 c 2
 846 758 l 2
 846 685 878 647 932 647 c 0
384 648 m 0
 440 648 475 692 475 756 c 2
 475 1281 l 1
 615 1281 l 2
 667 1281 698 1304 698 1346 c 0
 698 1394 659 1412 613 1412 c 2
 136 1412 l 2
 90 1412 67 1380 67 1347 c 0
 67 1303 101 1281 151 1281 c 2
 293 1281 l 1
 293 756 l 2
 293 684 329 648 384 648 c 0
EndSplineSet
EndChar

StartChar: two
Encoding: 18 50 364
Width: 1266
VWidth: 0
GlyphClass: 2
Flags: HW
PickledData: "(dp1
S'com.typemytype.robofont.layerData'
p2
(dp3
S'b'
(dp4
S'name'
p5
S'two'
p6
sS'lib'
p7
(dp8
sS'unicodes'
p9
(tsS'width'
p10
I1160
sS'contours'
p11
(tsS'components'
p12
(tsS'anchors'
p13
(tsss."
LayerCount: 2
Fore
SplineSet
1096 1031 m 0
 1096 1261.196298 905.914616751 1449.20166026 621.80236791 1449.20166026 c 0
 449.369992416 1449.20166026 311.848625192 1394.56992694 193 1325 c 0
 152.695503224 1301.46452743 136.884588753 1269.10097926 136.884588753 1236.28647489 c 0
 136.884588753 1169.550137 202.280415422 1100.94859054 260.035097738 1100.94859054 c 0
 270.411209659 1100.94859054 280.540687379 1103.1628515 290 1108 c 0
 376 1154 444 1213 592 1213 c 0
 708 1213 807 1134 807 1018 c 0
 807 951 772 878 690 799 c 1
 174 288 l 2
 134.819511677 248.439118587 115.752170914 197.302324908 115.752170914 149.120829203 c 0
 115.752170914 70.6399409 166.34132212 -1.42108547152e-14 263 0 c 2
 983 0 l 2
 1043 0 1073 60 1073 119 c 0
 1073 178 1043 235 983 235 c 2
 446 235 l 1
 857 589 l 2
 1025 734 1096 886 1096 1031 c 0
EndSplineSet
EndChar

StartChar: uni00B2
Encoding: 113 178 365
Width: 759
VWidth: 0
GlyphClass: 2
Flags: HW
LayerCount: 2
Fore
SplineSet
168 612 m 2
 591 612 l 2
 640 612 667 636 667 678 c 0
 667 725 627 744 576 744 c 2
 286 744 l 1
 462 880 660 1069 660 1235 c 0
 660 1371 545 1450 385 1450 c 0
 290 1450 110 1404 110 1328 c 0
 110 1294 134 1265 169 1265 c 0
 180 1265 189 1266 198 1271 c 0
 242 1290 302 1314 361 1314 c 0
 427 1314 490 1282 490 1217 c 0
 490 1117 350 974 210 848 c 0
 137 781 77 735 77 684 c 0
 77 635 114 612 168 612 c 2
EndSplineSet
EndChar

StartChar: u
Encoding: 85 117 366
Width: 1208
VWidth: 0
GlyphClass: 2
Flags: HW
PickledData: "(dp1
S'b'
(dp2
sS'anchors'
p3
(tsS'lib'
p4
(dp5
sS'unicodes'
p6
(tsS'width'
p7
I1195
sS'contours'
p8
(tsS'components'
p9
(tsS'com.typemytype.robofont.layerData'
p10
(dp11
S'b'
(dp12
S'name'
p13
S'u'
sg4
(dp14
sg6
(tsg7
I1152
sg8
((dp15
S'points'
p16
((dp17
S'segmentType'
p18
S'curve'
p19
sS'x'
I915
sS'smooth'
p20
I1
sS'y'
I991
s(dp21
S'y'
I991
sS'x'
I875
sg20
I0
s(dp22
S'y'
I965
sS'x'
I834
sg20
I0
s(dp23
g18
S'curve'
p24
sS'x'
I834
sg20
I1
sS'y'
I916
s(dp25
g18
S'line'
p26
sS'x'
I834
sg20
I0
sS'y'
I395
s(dp27
S'y'
I198
sS'x'
I821
sg20
I0
s(dp28
S'y'
I90
sS'x'
I698
sg20
I0
s(dp29
g18
S'curve'
p30
sS'x'
I542
sg20
I1
sS'y'
I90
s(dp31
S'y'
I90
sS'x'
I385
sg20
I0
s(dp32
S'y'
I187
sS'x'
I306
sg20
I0
s(dp33
g18
S'curve'
p34
sS'x'
I306
sg20
I1
sS'y'
I367
s(dp35
g18
S'line'
p36
sS'x'
I306
sg20
I1
sS'y'
I916
s(dp37
S'y'
I967
sS'x'
I306
sg20
I0
s(dp38
S'y'
I991
sS'x'
I266
sg20
I0
s(dp39
g18
S'curve'
p40
sS'x'
I226
sg20
I1
sS'y'
I991
s(dp41
S'y'
I991
sS'x'
I186
sg20
I0
s(dp42
S'y'
I967
sS'x'
I146
sg20
I0
s(dp43
g18
S'curve'
p44
sS'x'
I146
sg20
I1
sS'y'
I916
s(dp45
g18
S'line'
p46
sS'x'
I146
sg20
I1
sS'y'
I369
s(dp47
S'y'
I96
sS'x'
I146
sg20
I0
s(dp48
S'y'
S'-20'
p49
sS'x'
I294
sg20
I0
s(dp50
g18
S'curve'
p51
sS'x'
I507
sg20
I1
sS'y'
S'-20'
p52
s(dp53
S'y'
S'-20'
p54
sS'x'
I656
sg20
I0
s(dp55
S'y'
I49
sS'x'
I786
sg20
I0
s(dp56
g18
S'curve'
p57
sS'x'
I834
sg20
I0
sS'y'
I179
s(dp58
g18
S'line'
p59
sS'x'
I834
sg20
I1
sS'y'
I73
s(dp60
S'y'
I24
sS'x'
I834
sg20
I0
s(dp61
S'y'
I0
sS'x'
I874
sg20
I0
s(dp62
g18
S'curve'
p63
sS'x'
I913
sg20
I1
sS'y'
I0
s(dp64
S'y'
I0
sS'x'
I953
sg20
I0
s(dp65
S'y'
I24
sS'x'
I994
sg20
I0
s(dp66
g18
S'curve'
p67
sS'x'
I994
sg20
I1
sS'y'
I75
s(dp68
g18
S'line'
p69
sS'x'
I994
sg20
I1
sS'y'
I916
s(dp70
S'y'
I967
sS'x'
I994
sg20
I0
s(dp71
S'y'
I991
sS'x'
I955
sg20
I0
stp72
stp73
sg9
(tsg3
(tsssg13
S'u'
s."
AnchorPoint: "top" 600 991 basechar 0
AnchorPoint: "ogonek" 939 22 basechar 0
LayerCount: 2
Fore
SplineSet
475 -12 m 0
 639 -12 746 50 804 170 c 1
 804 141 l 2
 804 48 856 0 941 0 c 0
 1028 0 1082 47 1082 142 c 2
 1082 841 l 2
 1082 947 1033 1004 946 1004 c 0
 855 1004 804 947 804 841 c 2
 804 436 l 2
 804 276 696 171 574 171 c 0
 475 171 396 237 396 374 c 2
 396 841 l 2
 396 947 347 1004 261 1004 c 0
 170 1004 118 947 118 841 c 2
 118 372 l 2
 118 114 285 -12 475 -12 c 0
EndSplineSet
EndChar

StartChar: underscore
Encoding: 63 95 374
Width: 1024
VWidth: 0
GlyphClass: 2
Flags: HW
LayerCount: 2
Fore
SplineSet
63 -255 m 2
 944 -255 l 2
 995 -255 1023 -231 1023 -189 c 0
 1023 -154 1001 -122 958 -122 c 2
 78 -122 l 2
 25 -122 0 -146 0 -189 c 0
 0 -222 21 -255 63 -255 c 2
EndSplineSet
EndChar

StartChar: uni00AD
Encoding: 108 173 376
Width: 770
VWidth: 0
GlyphClass: 2
Flags: HW
LayerCount: 2
Fore
SplineSet
140 435 m 2
 613 435 l 2
 687 435 733 473 733 534 c 0
 733 596 687 634 613 634 c 2
 157 634 l 2
 83 634 37 596 37 534 c 0
 37 473 77 435 140 435 c 2
EndSplineSet
EndChar

StartChar: uni02C9
Encoding: 400 713 440
Width: 569
VWidth: 0
GlyphClass: 4
Flags: HW
AnchorPoint: "top" 289 1040 mark 0
LayerCount: 2
Fore
SplineSet
19 1266 m 2
 548 1266 l 2
 607 1266 636 1304 636 1354 c 0
 636 1410 599 1441 548 1441 c 2
 26 1441 l 2
 -34 1441 -64 1401 -64 1354 c 0
 -64 1304 -33 1266 19 1266 c 2
EndSplineSet
EndChar

StartChar: uni0307
Encoding: 407 775 441
Width: 600
VWidth: 0
GlyphClass: 2
Flags: HW
LayerCount: 2
Fore
SplineSet
324 362 m 0
 417 362 482 435 482 518 c 0
 482 604 413 672 324 672 c 0
 231 672 165 601 165 518 c 0
 165 433 230 362 324 362 c 0
EndSplineSet
EndChar

StartChar: uni03A9
Encoding: 415 937 442
Width: 1628
VWidth: 0
GlyphClass: 2
Flags: HW
LayerCount: 2
Fore
SplineSet
152 0 m 2
 667 0 l 1
 582 165 415 527 415 800 c 0
 415 1001 506 1154 777 1154 c 0
 1050 1154 1141 1002 1141 800 c 0
 1141 528 974 169 888 0 c 1
 1403 0 l 2
 1462 0 1491 50 1491 101 c 0
 1491 151 1462 201 1403 201 c 2
 1157 201 l 1
 1347 442 1478 739 1478 951 c 0
 1478 1176 1360 1460 777 1460 c 0
 208 1460 77 1175 77 951 c 0
 77 739 192 482 398 201 c 1
 152 201 l 2
 93 201 64 151 64 101 c 0
 64 50 93 0 152 0 c 2
EndSplineSet
EndChar

StartChar: uni03BC
Encoding: 416 956 443
Width: 1211
VWidth: 0
GlyphClass: 2
Flags: HW
LayerCount: 2
Fore
SplineSet
257 -290 m 0
 357 -290 396 -209 396 -103 c 2
 396 503 l 1
 118 503 l 1
 118 -103 l 2
 118 -228 166 -290 257 -290 c 0
EndSplineSet
Refer: 366 117 N 1 0 0 1 0 0 2
EndChar

StartChar: afii61289
Encoding: 462 8467 462
Width: 807
VWidth: 0
GlyphClass: 2
Flags: HW
LayerCount: 2
Fore
SplineSet
551 1494 m 0
 394 1494 202 1397 201 1146 c 2
 200 801 l 1
 23 662 l 2
 8 650 1 636 1 623 c 0
 1 602 18 584 40 584 c 0
 50 584 59 586 72 596 c 2
 200 696 l 1
 200 289 l 2
 200 60 336 -17 515 -17 c 0
 598 -17 665 -14 690 -10 c 0
 722 -5 744 28 744 67 c 0
 744 114.458904761 715.857380577 144.094150555 674.109479364 144.094150555 c 0
 672.753832997 144.094150555 671.383840623 144.062901846 670 144 c 2
 605 141 l 2
 601.405660424 140.843724366 597.880007929 140.763767713 594.423161785 140.763767713 c 0
 509.399262448 140.763767713 466 189.133818625 466 340 c 2
 466 876 l 1
 691 1042 780 1134 780 1268 c 0
 780 1381 707 1494 551 1494 c 0
551 1348 m 0
 592 1348 633 1316 633 1249 c 0
 633 1149 576 1067 466 981 c 1
 466 1183 l 2
 466 1312 509 1348 551 1348 c 0
EndSplineSet
EndChar

StartChar: v
Encoding: 86 118 471
Width: 1076
VWidth: 0
GlyphClass: 2
Flags: HW
PickledData: "(dp1
S'com.typemytype.robofont.layerData'
p2
(dp3
S'b'
(dp4
S'name'
p5
S'v'
sS'lib'
p6
(dp7
sS'unicodes'
p8
(tsS'width'
p9
I1027
sS'contours'
p10
((dp11
S'points'
p12
((dp13
S'segmentType'
p14
S'line'
p15
sS'x'
I518
sS'smooth'
p16
I0
sS'y'
I0
s(dp17
S'y'
I0
sS'x'
I589
sg16
I0
s(dp18
S'y'
I36
sS'x'
I618
sg16
I0
s(dp19
g14
S'curve'
p20
sS'x'
I654
sg16
I1
sS'y'
I121
s(dp21
g14
S'line'
p22
sS'x'
I979
sg16
I1
sS'y'
I890
s(dp23
S'y'
I940
sS'x'
I1000
sg16
I0
s(dp24
S'y'
I991
sS'x'
I968
sg16
I0
s(dp25
g14
S'curve'
p26
sS'x'
I907
sg16
I1
sS'y'
I991
s(dp27
S'y'
I991
sS'x'
I878
sg16
I0
s(dp28
S'y'
I975
sS'x'
I850
sg16
I0
s(dp29
g14
S'curve'
p30
sS'x'
I836
sg16
I1
sS'y'
I940
s(dp31
g14
S'line'
p32
sS'x'
I518
sg16
I0
sS'y'
I166
stp33
s(dp34
g12
((dp35
g14
S'curve'
p36
sS'x'
I518
sg16
I0
sS'y'
I0
s(dp37
g14
S'line'
p38
sS'x'
I518
sg16
I0
sS'y'
I166
s(dp39
g14
S'line'
p40
sS'x'
I200
sg16
I1
sS'y'
I940
s(dp41
S'y'
I975
sS'x'
I186
sg16
I0
s(dp42
S'y'
I991
sS'x'
I158
sg16
I0
s(dp43
g14
S'curve'
p44
sS'x'
I129
sg16
I1
sS'y'
I991
s(dp45
S'y'
I991
sS'x'
I68
sg16
I0
s(dp46
S'y'
I940
sS'x'
I36
sg16
I0
s(dp47
g14
S'curve'
p48
sS'x'
I57
sg16
I1
sS'y'
I890
s(dp49
g14
S'line'
p50
sS'x'
I382
sg16
I1
sS'y'
I121
s(dp51
S'y'
I36
sS'x'
I418
sg16
I0
s(dp52
S'y'
I0
sS'x'
I447
sg16
I0
stp53
stp54
sS'components'
p55
(tsS'anchors'
p56
(tsss."
LayerCount: 2
Fore
SplineSet
540 -8 m 0
 666 -8 706 44 774 220 c 1
 1024 825 l 2
 1032.43855155 846.157527793 1036.2105928 866.148428014 1036.2105928 884.608693837 c 0
 1036.2105928 959.653591314 973.874027319 1009.40330115 909.292661935 1009.40330115 c 0
 859.861558359 1009.40330115 809.115339571 980.257451544 784 911 c 1
 540 278 l 1
 295 911 l 1
 269.884660429 980.257451544 219.428056095 1009.40330115 170.300660013 1009.40330115 c 0
 106.028030803 1009.40330115 44.0304868162 959.516993547 44.0304868162 884.299686802 c 0
 44.0304868162 865.92540921 47.7301268832 846.039530136 56 825 c 2
 305 220 l 1
 374 43 415 -8 540 -8 c 0
EndSplineSet
EndChar

StartChar: w
Encoding: 87 119 472
Width: 1726
VWidth: 0
GlyphClass: 2
Flags: HW
PickledData: "(dp1
S'b'
(dp2
sS'anchors'
p3
(tsS'lib'
p4
(dp5
sS'unicodes'
p6
(tsS'width'
p7
I1742
sS'contours'
p8
(tsS'components'
p9
(tsS'com.typemytype.robofont.layerData'
p10
(dp11
S'b'
(dp12
S'name'
p13
S'w'
sg4
(dp14
sg6
(tsg7
I1699
sg8
((dp15
S'points'
p16
((dp17
S'segmentType'
p18
S'curve'
p19
sS'x'
I477
sS'smooth'
p20
I1
sS'y'
I0
s(dp21
S'y'
I0
sS'x'
I524
sg20
I0
s(dp22
S'y'
I30
sS'x'
I564
sg20
I0
s(dp23
g18
S'curve'
p24
sS'x'
I588
sg20
I0
sS'y'
I96
s(dp25
g18
S'line'
p26
sS'x'
I859
sg20
I0
sS'y'
I839
s(dp27
g18
S'line'
p28
sS'x'
I859
sg20
I0
sS'y'
I991
s(dp29
S'y'
I991
sS'x'
I808
sg20
I0
s(dp30
S'y'
I959
sS'x'
I771
sg20
I0
s(dp31
g18
S'curve'
p32
sS'x'
I750
sg20
I1
sS'y'
I899
s(dp33
g18
S'line'
p34
sS'x'
I488
sg20
I0
sS'y'
I173
s(dp35
g18
S'line'
p36
sS'x'
I223
sg20
I1
sS'y'
I936
s(dp37
S'y'
I974
sS'x'
I210
sg20
I0
s(dp38
S'y'
I991
sS'x'
I183
sg20
I0
s(dp39
g18
S'curve'
p40
sS'x'
I152
sg20
I1
sS'y'
I991
s(dp41
S'y'
I991
sS'x'
I112
sg20
I0
s(dp42
S'y'
I962
sS'x'
I79
sg20
I0
s(dp43
g18
S'curve'
p44
sS'x'
I79
sg20
I1
sS'y'
I916
s(dp45
S'y'
I909
sS'x'
I79
sg20
I0
s(dp46
S'y'
I899
sS'x'
I81
sg20
I0
s(dp47
g18
S'curve'
p48
sS'x'
I84
sg20
I0
sS'y'
I888
s(dp49
g18
S'line'
p50
sS'x'
I372
sg20
I1
sS'y'
I88
s(dp51
S'y'
I26
sS'x'
I394
sg20
I0
s(dp52
S'y'
I0
sS'x'
I433
sg20
I0
stp53
s(dp54
g16
((dp55
g18
S'curve'
p56
sS'x'
I1241
sg20
I1
sS'y'
I0
s(dp57
S'y'
I0
sS'x'
I1285
sg20
I0
s(dp58
S'y'
I26
sS'x'
I1324
sg20
I0
s(dp59
g18
S'curve'
p60
sS'x'
I1346
sg20
I1
sS'y'
I88
s(dp61
g18
S'line'
p62
sS'x'
I1634
sg20
I0
sS'y'
I888
s(dp63
S'y'
I899
sS'x'
I1637
sg20
I0
s(dp64
S'y'
I909
sS'x'
I1639
sg20
I0
s(dp65
g18
S'curve'
p66
sS'x'
I1639
sg20
I1
sS'y'
I916
s(dp67
S'y'
I962
sS'x'
I1639
sg20
I0
s(dp68
S'y'
I991
sS'x'
I1606
sg20
I0
s(dp69
g18
S'curve'
p70
sS'x'
I1566
sg20
I1
sS'y'
I991
s(dp71
S'y'
I991
sS'x'
I1535
sg20
I0
s(dp72
S'y'
I974
sS'x'
I1508
sg20
I0
s(dp73
g18
S'curve'
p74
sS'x'
I1495
sg20
I1
sS'y'
I936
s(dp75
g18
S'line'
p76
sS'x'
I1230
sg20
I0
sS'y'
I173
s(dp77
g18
S'line'
p78
sS'x'
I968
sg20
I1
sS'y'
I899
s(dp79
S'y'
I959
sS'x'
I947
sg20
I0
s(dp80
S'y'
I991
sS'x'
I910
sg20
I0
s(dp81
g18
S'curve'
p82
sS'x'
I859
sg20
I0
sS'y'
I991
s(dp83
g18
S'line'
p84
sS'x'
I859
sg20
I0
sS'y'
I839
s(dp85
g18
S'line'
p86
sS'x'
I1130
sg20
I0
sS'y'
I96
s(dp87
S'y'
I30
sS'x'
I1154
sg20
I0
s(dp88
S'y'
I0
sS'x'
I1194
sg20
I0
stp89
stp90
sg9
(tsg3
(tsssg13
S'w'
s."
AnchorPoint: "top" 874 1013 basechar 0
LayerCount: 2
Fore
SplineSet
1262 0 m 0
 1351 0 1405 60 1447 207 c 1
 1647 839 l 2
 1651.86921751 855.23072504 1654.09495522 870.513443531 1654.09495522 884.73066551 c 0
 1654.09495522 958.486843603 1594.19295778 1003.56697015 1532.71456288 1003.56697015 c 0
 1481.92120411 1003.56697015 1430.05179015 972.795095839 1410 902 c 2
 1229 277 l 1
 1046 835 l 1
 1013 942 975 1006 870 1006 c 0
 765 1006 727 942 694 835 c 1
 511 277 l 1
 330 902 l 2
 310.357430056 972.795095839 258.562313946 1003.56697015 207.713916171 1003.56697015 c 0
 146.127410972 1003.56697015 85.9296982743 958.42603784 85.9296982743 884.581449056 c 0
 85.9296982743 870.406527057 88.1478129364 855.173956879 93 839 c 2
 293 207 l 1
 335 60 389 0 478 0 c 0
 584 0 637 36 691 218 c 1
 870 759 l 1
 1049 218 l 1
 1103 36 1156 0 1262 0 c 0
EndSplineSet
EndChar

StartChar: x
Encoding: 88 120 477
Width: 1091
VWidth: 0
GlyphClass: 2
Flags: HW
PickledData: "(dp1
S'com.typemytype.robofont.layerData'
p2
(dp3
S'b'
(dp4
S'name'
p5
S'x'
sS'lib'
p6
(dp7
sS'unicodes'
p8
(tsS'width'
p9
I1039
sS'contours'
p10
(tsS'components'
p11
(tsS'anchors'
p12
(tsss."
LayerCount: 2
Fore
SplineSet
886 -7 m 0
 951.474229238 -7 1013.01193442 49.0954677626 1013.01193442 111.495551802 c 0
 1013.01193442 145.906110586 995.539543484 183.320574872 968 218 c 1
 710.755 514.272 l 1
 964 815 l 2
 989.964592787 846.734502295 1002.05757902 877.544230819 1002.05757902 905.65056525 c 0
 1002.05757902 967.976174191 952.085487982 1015 891 1015 c 0
 856 1015 820 1000 790 963 c 1
 558.175 690.001 l 1
 355 924 l 1
 318 969 279 1004 235 1004 c 0
 164.539743855 1004 99.9886101406 950.817898118 99.9886101406 882.571001687 c 0
 99.9886101406 846.102569996 119.42562874 807.697450815 148 773 c 1
 380.664 505.13 l 1
 119 198 l 2
 94 168 84 135 84 106 c 0
 84.9056516503 43.5100361323 138.304417644 -6.67685406128 196.655822348 -6.67685406128 c 0
 241.847557636 -6.67685406128 273.498576162 14.6232202022 305 54 c 1
 534.294 328.254 l 1
 756 73 l 1
 802 17 845 -7 886 -7 c 0
EndSplineSet
EndChar

StartChar: y
Encoding: 89 121 478
Width: 1093
VWidth: 0
GlyphClass: 2
Flags: HW
PickledData: "(dp1
S'com.typemytype.robofont.layerData'
p2
(dp3
S'b'
(dp4
S'name'
p5
S'y'
sS'lib'
p6
(dp7
sS'unicodes'
p8
(tsS'width'
p9
I1029
sS'contours'
p10
((dp11
S'points'
p12
((dp13
S'segmentType'
p14
S'line'
p15
sS'x'
I502
sS'smooth'
p16
I0
sS'y'
I10
s(dp17
g14
S'line'
p18
sS'x'
I585
sg16
I0
sS'y'
I181
s(dp19
g14
S'line'
p20
sS'x'
I241
sg16
I1
sS'y'
I931
s(dp21
S'y'
I966
sS'x'
I225
sg16
I0
s(dp22
S'y'
I984
sS'x'
I201
sg16
I0
s(dp23
g14
S'curve'
p24
sS'x'
I171
sg16
I1
sS'y'
I984
s(dp25
S'y'
I984
sS'x'
I117
sg16
I0
s(dp26
S'y'
I936
sS'x'
I64
sg16
I0
s(dp27
g14
S'curve'
p28
sS'x'
I91
sg16
I0
sS'y'
I887
stp29
s(dp30
g12
((dp31
g14
S'curve'
p32
sS'x'
I365
sg16
I1
sS'y'
S'-388'
p33
s(dp34
S'y'
S'-388'
p35
sS'x'
I396
sg16
I0
s(dp36
S'y'
S'-373'
p37
sS'x'
I424
sg16
I0
s(dp38
g14
S'curve'
p39
sS'x'
I442
sg16
I1
sS'y'
S'-334'
p40
s(dp41
g14
S'line'
p42
sS'x'
I1009
sg16
I1
sS'y'
I888
s(dp43
S'y'
I898
sS'x'
I1013
sg16
I0
s(dp44
S'y'
I908
sS'x'
I1016
sg16
I0
s(dp45
g14
S'curve'
p46
sS'x'
I1016
sg16
I1
sS'y'
I918
s(dp47
S'y'
I962
sS'x'
I1018
sg16
I0
s(dp48
S'y'
I990
sS'x'
I978
sg16
I0
s(dp49
g14
S'curve'
p50
sS'x'
I938
sg16
I1
sS'y'
I990
s(dp51
S'y'
I990
sS'x'
I910
sg16
I0
s(dp52
S'y'
I977
sS'x'
I883
sg16
I0
s(dp53
g14
S'curve'
p54
sS'x'
I866
sg16
I0
sS'y'
I941
s(dp55
g14
S'line'
p56
sS'x'
I299
sg16
I1
sS'y'
S'-286'
p57
s(dp58
S'y'
S'-344'
p59
sS'x'
I272
sg16
I0
s(dp60
S'y'
S'-388'
p61
sS'x'
I316
sg16
I0
stp62
stp63
sS'components'
p64
(tsS'anchors'
p65
(tsss."
AnchorPoint: "top" 579 1030 basechar 0
LayerCount: 2
Fore
SplineSet
461 -351 m 2
 1047 826 l 2
 1058.34447244 849.707038553 1063.34293625 872.250642192 1063.34293625 892.941655582 c 0
 1063.34293625 963.603280045 1005.04673395 1012.65847101 942.126453316 1012.65847101 c 0
 896.793554359 1012.65847101 849.060325891 987.194234849 819 926 c 2
 567.948 422.167 l 1
 308 924 l 2
 281.091703057 977.135371179 236.432943689 999.178429092 192.359330998 999.178429092 c 0
 125.419985648 999.178429092 59.8304432158 948.330009247 59.8304432158 878.337696171 c 0
 59.8304432158 859.116652422 64.7768273827 838.451886901 76 817 c 2
 432.286 149.91 l 1
 238 -240 l 2
 227.565624262 -261.573776865 222.956801068 -282.451668613 222.956801068 -301.952418949 c 0
 222.956801068 -374.063925582 285.979433899 -427.343927095 350.499401478 -427.343927095 c 0
 392.270493918 -427.343927095 434.669185426 -405.011927332 461 -351 c 2
EndSplineSet
EndChar

StartChar: yen
Encoding: 100 165 482
Width: 1299
VWidth: 0
GlyphClass: 2
Flags: HW
LayerCount: 2
Fore
SplineSet
222 292 m 2
 1134 292 l 2
 1177 292 1198 330 1198 365 c 0
 1198 396 1176 438 1134 438 c 2
 222 438 l 2
 178 438 158 397 158 366 c 0
 158 332 178 292 222 292 c 2
222 532 m 2
 1134 532 l 2
 1177 532 1198 571 1198 605 c 0
 1198 637 1176 678 1134 678 c 2
 222 678 l 2
 178 678 158 638 158 606 c 0
 158 572 178 532 222 532 c 2
EndSplineSet
Refer: 124 89 N 1 0 0 1 0 0 2
EndChar

StartChar: z
Encoding: 90 122 484
Width: 987
VWidth: 0
GlyphClass: 2
Flags: HW
AnchorPoint: "top" 517 1001 basechar 0
LayerCount: 2
Fore
SplineSet
195 0 m 2
 792 0 l 2
 870 0 916 36 916 104 c 0
 916 154 881 205 815 205 c 2
 410 205 l 1
 872 800 l 1
 895 833 917 872 917 907 c 0
 917 980 857 1006 769 1006 c 2
 212 1006 l 2
 129 1006 88 966 88 902 c 0
 88 831 138 800 212 800 c 2
 576 800 l 1
 110 210 l 2
 85 177 68 141 68 105 c 0
 68 32 123 0 195 0 c 2
EndSplineSet
EndChar

StartChar: zero
Encoding: 16 48 488
Width: 1266
VWidth: 0
GlyphClass: 2
Flags: HW
LayerCount: 2
Fore
SplineSet
633 203 m 0
 425 203 391 440 391 721 c 0
 391 1001 425 1235 633 1235 c 0
 841 1235 875 999 875 721 c 0
 875 438 839 203 633 203 c 0
633 -30 m 0
 1051 -30 1188 323 1188 721 c 0
 1188 1122 1047 1467 633 1467 c 0
 210 1467 77 1114 77 721 c 0
 77 320 214 -30 633 -30 c 0
EndSplineSet
EndChar

StartChar: uni0358
Encoding: 412 856 491
Width: 600
VWidth: 0
Flags: HW
LayerCount: 2
Fore
SplineSet
324 362 m 0
 417 362 482 435 482 518 c 0
 482 604 413 672 324 672 c 0
 231 672 165 601 165 518 c 0
 165 433 230 362 324 362 c 0
EndSplineSet
EndChar

